<?xml version="1.0" standalone="no"?>
<!DOCTYPE svg PUBLIC "-//W3C//DTD SVG 1.1//EN" "http://www.w3.org/Graphics/SVG/1.1/DTD/svg11.dtd" >
<svg xmlns="http://www.w3.org/2000/svg">
<metadata>Generated by IcoMoon</metadata>
<defs>
<font id="icomoon" horiz-adv-x="1024">
<font-face units-per-em="1024" ascent="960" descent="-64" />
<missing-glyph horiz-adv-x="1024" />
<glyph unicode="&#x20;" horiz-adv-x="512" d="" />
<glyph unicode="&#xe900;" glyph-name="cards" horiz-adv-x="1371" d="M6.872 18.47v859.060c0 24.054 6.872 41.235 24.054 58.416s34.362 24.054 58.416 24.054h1209.557c24.054 0 41.235-6.872 58.416-24.054s24.054-34.362 24.054-58.416v-859.060c0-24.054-6.872-41.235-24.054-58.416s-34.362-24.054-58.416-24.054h-1212.993c-24.054 0-41.235 6.872-58.416 24.054-13.745 17.181-20.617 37.799-20.617 58.416zM79.034 733.208h1223.302v144.322c0 3.436-3.436 6.872-6.872 6.872h-1206.121c-3.436 0-3.436 0-3.436-3.436 0 0-3.436-3.436-3.436-3.436v-144.322zM79.034 18.47c0 0 0-3.436 3.436-3.436 0 0 3.436-3.436 3.436-3.436h1209.557c3.436 0 6.872 3.436 6.872 6.872v525.745h-1223.302v-525.745zM243.973 341.477c-6.872 6.872-10.309 17.181-10.309 27.49s3.436 20.617 10.309 27.49c6.872 6.872 17.181 10.309 27.49 10.309h577.289c10.309 0 20.617-3.436 27.49-10.309s10.309-17.181 10.309-27.49-3.436-20.617-10.309-27.49-17.181-10.309-27.49-10.309h-580.725c-10.309-3.436-17.181 0-24.054 10.309zM243.973 173.101c-6.872 6.872-10.309 17.181-10.309 27.49s3.436 20.617 10.309 27.49c6.872 6.872 13.745 10.309 24.054 10.309h460.456c10.309 0 20.617-3.436 27.49-10.309s10.309-17.181 10.309-27.49-3.436-20.617-10.309-27.49-17.181-10.309-27.49-10.309h-460.456c-10.309 0-17.181 3.436-24.054 10.309zM989.638 241.826v161.503h161.503v-161.503h-161.503z" />
<glyph unicode="&#xe901;" glyph-name="int-bank" horiz-adv-x="1255" d="M9.91 31.794v845.626c0 23.123 6.606 39.639 23.123 56.155s33.032 26.426 56.155 26.426h1060.335c23.123 0 42.942-6.606 56.155-23.123s23.123-33.032 23.123-56.155v-845.626c0-23.123-6.606-39.639-23.123-56.155s-33.032-23.123-56.155-23.123h-1060.335c-23.123 0-42.942 6.606-56.155 23.123-16.516 13.213-23.123 33.032-23.123 52.852v0zM82.581 692.439h1073.548v184.981c0 3.303-3.303 6.606-6.606 6.606h-1060.335c-3.303 0-6.606-3.303-6.606-6.606v-184.981zM82.581 31.794c0-3.303 3.303-6.606 6.606-6.606h1060.335c3.303 0 6.606 3.303 6.606 6.606v587.974h-1073.548v-587.974zM158.555 761.806c-9.91 6.606-13.213 16.516-13.213 26.426s3.303 19.819 9.91 26.426c9.91 6.606 16.516 9.91 26.426 9.91s19.819-3.303 26.426-9.91c6.606-6.606 9.91-16.516 9.91-26.426s-3.303-19.819-9.91-26.426c-6.606-6.606-16.516-13.213-26.426-13.213s-16.516 6.606-23.123 13.213v0zM247.742 761.806c-6.606 6.606-9.91 16.516-9.91 26.426s3.303 19.819 9.91 26.426c6.606 6.606 16.516 9.91 26.426 9.91s19.819-3.303 26.426-9.91c6.606-6.606 9.91-16.516 9.91-26.426s-3.303-19.819-9.91-26.426c-9.91-6.606-16.516-13.213-26.426-13.213s-19.819 6.606-26.426 13.213v0zM977.755 114.925h33.032v63.862h-132.129v-63.862h33.032v-89.738h66.065v89.738zM812.594 114.925h33.032v63.862h-132.129v-63.862h33.032v-89.738h66.065v89.738zM647.432 114.925h33.032v63.862h-132.129v-63.862h33.032v-89.738h66.065v89.738zM482.271 114.925h33.032v63.862h-132.129v-63.862h33.032v-89.738h66.065v89.738zM317.11 114.925h33.032v63.862h-132.129v-63.862h33.032v-89.738h66.065v89.738zM336.929 761.806c-6.606 6.606-9.91 16.516-9.91 26.426s3.303 19.819 9.91 26.426c6.606 6.606 16.516 9.91 26.426 9.91s19.819-3.303 26.426-9.91c6.606-6.606 9.91-16.516 9.91-26.426s-3.303-19.819-9.91-26.426c-6.606-6.606-16.516-9.91-26.426-9.91-9.91-3.303-16.516 3.303-26.426 9.91zM614.4 514.065l-429.419-191.587v-79.828h858.839v79.828l-429.419 191.587zM614.4 427.85l270.865-121.338h-541.729l270.865 121.338z" />
<glyph unicode="&#xe902;" glyph-name="operators" horiz-adv-x="749" d="M5.133 166.977v562.045c0 41.063 15.398 76.992 46.195 112.922 30.797 33.363 74.426 61.594 128.321 82.125s112.922 30.797 179.649 33.363v0h46.195c64.16-2.566 123.188-15.398 174.516-35.93 53.895-20.531 94.957-48.762 123.188-82.125 33.363-33.363 46.195-69.293 46.195-110.356v-564.612c0-30.797-10.266-61.594-30.797-89.825s-48.762-53.895-84.692-74.426c-69.293-41.063-156.551-61.594-256.642-61.594h-2.566c-100.090 0-184.782 20.531-254.075 61.594-35.93 20.531-66.727 46.195-84.692 74.426-20.531 28.231-30.797 59.028-30.797 92.391zM61.594 166.977c0-20.531 7.699-41.063 23.098-61.594s35.93-38.496 64.16-53.895c64.16-35.93 138.586-53.895 228.411-53.895v0c89.825 0 166.817 17.965 228.411 53.895 59.028 33.363 87.258 74.426 87.258 115.489v562.045c0 28.231-12.832 56.461-38.496 82.125s-61.594 46.195-105.223 61.594c-43.629 15.398-94.957 25.664-146.286 28.231h-41.063c-53.895-2.566-105.223-10.266-151.419-25.664s-82.125-38.496-107.789-64.16c-25.664-25.664-41.063-53.895-41.063-82.125v-562.045zM102.657 285.033v410.627c0 30.797 12.832 59.028 35.93 82.125s51.328 33.363 82.125 33.363h315.669c30.797 0 59.028-10.266 82.125-33.363s33.363-51.328 33.363-82.125v-410.627c0-33.363-10.266-61.594-33.363-84.692s-48.762-33.363-82.125-33.363h-315.669c-30.797 0-59.028 10.266-82.125 33.363s-35.93 51.328-35.93 84.692zM159.118 285.033c0-17.965 5.133-33.363 17.965-43.629 12.832-12.832 25.664-17.965 43.629-17.965h315.669c17.965 0 30.797 5.133 43.629 17.965s17.965 28.231 17.965 43.629v410.627c0 17.965-5.133 30.797-17.965 43.629s-25.664 17.965-43.629 17.965h-315.669c-17.965 0-30.797-5.133-43.629-17.965s-17.965-28.231-17.965-43.629v-410.627zM346.466 48.922c-7.699 10.266-12.832 20.531-12.832 33.363s5.133 25.664 12.832 33.363c7.699 10.266 17.965 12.832 30.797 12.832s20.531-5.133 30.797-15.398c7.699-10.266 12.832-20.531 12.832-33.363s-5.133-23.098-12.832-33.363c-7.699-10.266-17.965-15.398-30.797-15.398-12.832 5.133-20.531 10.266-30.797 17.965z" />
<glyph unicode="&#xe903;" glyph-name="terminals" horiz-adv-x="975" d="M247.312 355.352h-25.446c-21.943 0-31.695-21.943-31.695-36.571 0-3.747 0.64-7.975 1.961-12.19-1.321-4.216-1.961-8.443-1.961-12.19 0-14.629 9.752-36.571 31.695-36.571h26.819v-246.248c0-12.19-7.314-21.943-14.629-21.943h-138.971c-19.505 0-41.448 12.19-41.448 21.943v631.467c0 0 9.752 4.876 41.448 4.876v-2.438h42.119c0.507-2.414 1.096-4.854 1.767-7.314l51.2-207.238c6.921-32.298 26.939-64.595 55.924-67.976 0.459-2.589 0.868-5.13 1.217-7.605zM194.047 712.051c4.022 8.257 5.877 18.68 5.877 30.959v126.781c0 14.629 0 39.010-21.943 48.762-21.943 7.314-39.010-9.752-46.324-17.067l-9.752-9.752v-2.438c-14.629-12.19-34.133-19.505-43.886-19.505-34.133 0-60.952-29.257-60.952-63.39 0-14.629 0-53.638 36.571-60.952v-53.638c-24.381-4.876-48.762-19.505-48.762-51.2v-629.029c0-46.324 53.638-70.705 90.21-70.705h138.971c36.571 0 63.39 29.257 60.952 70.705v326.705c0 14.853-2.715 33.326-6.49 51.56 4.646 13.969 4.372 31.789-0.824 50.84l-51.2 207.238c-5.79 27.019-20.745 54.037-42.448 64.127zM141.406 696.686h-14.625v14.629c5.35-5.35 10.699-9.395 16.049-12.136-0.498-0.81-0.972-1.641-1.423-2.492zM666.296 718.629c-41.175 13.295-71.4 52.228-71.4 97.524 0 56.076 46.324 102.4 102.4 102.4s102.4-46.324 102.4-102.4c0-45.296-30.225-84.229-71.4-97.524h42.143c31.695 0 65.829-26.819 80.457-63.39l114.59-287.695c9.752-21.943 7.314-43.886-2.438-60.952-9.752-12.19-21.943-19.505-39.010-19.505-29.257 0-65.829 26.819-82.895 58.514l-7.314 14.629v-353.524c0-39.010-26.819-70.705-60.952-70.705s-60.952 34.133-60.952 75.581v253.562c0 17.067-7.314 26.819-12.19 26.819s-12.19-9.752-12.19-26.819v-253.562c0-41.448-26.819-75.581-60.952-75.581s-60.952 34.133-60.952 75.581v443.733l-14.629-26.819c-17.067-34.133-56.076-51.2-82.895-51.2h-75.581c-34.133 0-60.952 26.819-60.952 60.952s34.133 60.952 75.581 60.952h9.752c21.943 0 43.886 12.19 51.2 26.819l68.267 134.095c17.067 34.133 51.2 58.514 82.895 58.514h47.019zM90.21 784.457c-4.876 4.876-12.19 7.314-24.381 7.314v14.629c0 7.314 4.876 14.629 12.19 14.629 24.381 0 51.2 12.19 70.705 26.819v-87.771c-9.752 7.314-21.943 14.629-41.448 19.505l-17.067 4.876zM277.943 730.819c41.448 0 73.143 31.695 73.143 73.143s-34.133 75.581-75.581 75.581c-19.505 0-36.571-14.629-36.571-36.571s17.067-39.010 39.010-39.010c-19.505 0-36.571-17.067-36.571-36.571s17.067-36.571 36.571-36.571zM277.943 655.238c82.895 0 151.162 68.267 151.162 151.162s-68.267 151.162-151.162 151.162c-19.505 0-36.571-17.067-36.571-36.571s17.067-36.571 36.571-36.571c43.886 0 78.019-34.133 78.019-78.019s-36.571-78.019-78.019-78.019c-19.505 0-36.571-17.067-36.571-36.571s17.067-36.571 36.571-36.571zM697.295 872.229c-29.257 0-53.638-24.381-53.638-53.638s24.381-53.638 53.638-53.638c29.257 0 53.638 24.381 53.638 53.638s-24.381 53.638-53.638 53.638zM699.733 338.286c34.133 0 60.952-34.133 60.952-75.581v-253.562c0-17.067 7.314-26.819 12.19-26.819s12.19 9.752 12.19 26.819v414.476c0 29.257 17.067 36.571 24.381 36.571 17.067 4.876 34.133-7.314 46.324-34.133l29.257-63.39c9.752-19.505 29.257-36.571 39.010-36.571 0 0 0 9.752-4.876 19.505l-114.59 292.571c-7.314 19.505-26.819 34.133-34.133 34.133h-151.162c-9.752 0-29.257-12.19-39.010-31.695l-68.267-134.095c-17.067-36.571-60.952-53.638-95.086-53.638h-9.752c-17.067 0-26.819-7.314-26.819-12.19 0-7.314 7.314-12.19 12.19-12.19h75.581c12.19 0 31.695 9.752 39.010 26.819l34.133 58.514c14.629 29.257 36.571 29.257 43.886 26.819s26.819-9.752 26.819-48.762v-477.867c0-17.067 7.314-26.819 12.19-26.819s12.19 9.752 12.19 26.819v251.124c2.438 41.448 29.257 73.143 63.39 73.143zM185.295 645.486c2.438-2.438 2.438-4.876 2.438-7.314l51.2-202.362c0 2.438-2.438 4.876-2.438 7.314l-51.2 202.362z" />
<glyph unicode="&#xe904;" glyph-name="translations" horiz-adv-x="1042" d="M577.871 304.281h-116.772v-95.813h-65.871v95.813h-71.86v53.895h71.86v47.906h-71.86v53.895h71.86v257.497h188.632c53.895 0 98.807-14.971 128.749-41.918s47.906-65.871 47.906-113.778c0-50.901-14.971-86.83-44.912-113.778s-74.854-41.918-131.743-41.918h-122.76v-47.906h116.772v-53.895zM461.099 462.971h122.76c35.93 0 62.877 8.982 83.836 26.947 17.965 17.965 26.947 41.918 26.947 74.854 0 29.942-8.982 53.895-29.942 71.86s-44.912 26.947-80.842 26.947h-122.76v-200.608zM520.982 897.123c248.515 0 449.123-200.608 449.123-449.123s-200.608-449.123-449.123-449.123-449.123 200.608-449.123 449.123 200.608 449.123 449.123 449.123zM520.982 957.006c-281.45 0-509.006-227.556-509.006-509.006s227.556-509.006 509.006-509.006 509.006 227.556 509.006 509.006-230.55 509.006-509.006 509.006v0z" />
<glyph unicode="&#xe905;" glyph-name="close" horiz-adv-x="1033" d="M73.548 949.261l952.724-952.724-63.515-63.515-952.724 952.724 63.515 63.515zM962.758 949.261l63.515-63.515-952.724-952.724-63.515 63.515 952.724 952.724z" />
<glyph unicode="&#xe90c;" glyph-name="reg" d="M993.696 650.976l-278.72 278.72c-36.352 30.304-90.88 30.304-127.232 0-18.176-18.176-24.224-36.352-24.224-60.576 0-18.176 6.048-48.48 18.176-60.576l-212.064-218.144h-157.536l-12.128 6.048c-60.576-60.576-24.224-103.008-6.048-121.184l115.136-109.056-121.184-121.184h-12.128l-175.712-309.024 296.896 169.664 133.312 139.36 115.136-115.136c36.352-36.352 84.832-36.352 127.232 6.048l6.048 6.048v157.536l199.968 206.016c36.352-24.224 84.832-24.224 115.136 12.128 18.176 18.176 24.224 36.352 24.224 60.576 0 30.304-6.048 54.528-24.224 72.704zM951.296 566.144c-12.128-12.128-30.304-12.128-42.4 0l-36.352 36.352-18.176-18.176-212.064 212.064-36.352-42.4 212.064-212.064-199.968-212.064v-157.536c-12.128-6.048-18.176-6.048-18.176-6.048-6.048 0-6.048 0-12.128 6.048l-157.536 157.536-169.664-169.664-96.96-60.576 48.48 90.88 175.712 175.712-151.488 145.408c-6.048 6.048-12.128 24.224 0 24.224h145.408l224.192-212.064 42.4 48.48-218.144 212.064 230.24 224.192-30.304 36.352c-6.048 6.048-6.048 12.128-6.048 18.176s0 12.128 6.048 18.176c12.128 12.128 30.304 12.128 42.4 0l278.72-278.72c6.048-6.048 6.048-12.128 6.048-24.224 0 0 0-6.048-6.048-12.128z" />
<glyph unicode="&#xe90d;" glyph-name="uni2A" horiz-adv-x="928" d="M44 852.512q0.992 10.016 7.744 17.76t16.736 9.248q94.016 12.992 185.504 46.24t199.488 93.76q13.504 8.512 27.008 0 108.992-60.512 200.256-93.76t185.76-46.24q10.016-1.504 16.736-9.248t6.752-17.76q8.992-384.992-168-629.504-96-132.992-240.512-216-6.496-4-14.496-4t-13.504 4q-145.504 82.496-241.504 216-176.992 244.512-168 629.504zM99.488 828q-3.008-349.504 157.504-573.504 83.488-115.488 210.016-192.512 126.496 76.992 210.016 192.512 160.512 221.504 157.504 573.504-88.512 14.496-176.256 47.008t-191.264 88.512q-103.488-56-191.264-88.512t-176.256-47.008z" />
<glyph unicode="&#xe90e;" glyph-name="uni2B" d="M56.512 187.008v510.016q0 18.496 13.504 31.744t32.512 13.248h191.488l7.008 46.016 4.992 31.008q2.016 18.016 18.016 31.488t34.496 13.504h312.992q19.008 0 34.752-13.248t18.752-31.744l4.992-31.008 6.496-46.016h192.512q19.008 0 32.512-13.248t13.504-31.744v-510.016q0-19.008-13.504-32.512t-32.512-13.504h-826.496q-19.008 0-32.512 13.504t-13.504 32.512zM111.488 196.512h808v490.496h-183.008q-20 0-35.744 13.504t-18.752 33.504l-7.008 46.016-4.512 28.512h-310.016l-4.992-28.512-6.496-46.016q-3.008-20-18.752-33.504t-36.256-13.504h-182.496v-490.496zM308 465.504q0 84.992 60.992 146.016t146.016 60.992q85.504 0 146.24-60.736t60.736-146.24q0-56-27.744-103.488t-75.264-75.264-104-27.744q-84.992 0-146.016 60.736t-60.992 145.76zM364.512 465.504q0-63.008 44-107.264t106.496-44.256q63.008 0 107.264 44.256t44.256 107.264q0 62.496-44.256 107.008t-107.264 44.512q-62.016 0-106.24-44.512t-44.256-107.008zM786.496 600.992q0 18.496 12.736 31.744t31.264 13.248 31.264-13.248 12.736-31.744q0-18.016-12.992-31.264t-31.008-13.248-31.008 13.248-12.992 31.264z" />
<glyph unicode="&#xe90f;" glyph-name="uni2C" horiz-adv-x="1056" d="M56.512 308.992v130.016q0 11.488 8 19.488t19.488 8h47.008v82.016q0 24.512 18.016 42.496t42.496 18.016h727.008q25.504 0 43.008-17.76t17.504-42.752v-347.008q0-24.992-17.504-42.752t-43.008-17.76h-727.008q-24.512 0-42.496 18.016t-18.016 42.496v80h-47.008q-11.488 0-19.488 8t-8 19.488zM186.496 201.504q0-1.504 1.76-3.264t3.264-1.76h727.008q4.992 0 4.992 4.992v347.008q0 4.992-4.992 4.992h-727.008q-1.504 0-3.264-1.76t-1.76-3.264v-347.008zM684 238.496v272.992h192.512v-272.992h-192.512z" />
<glyph unicode="&#xe910;" glyph-name="uni2D" horiz-adv-x="736" d="M43.008 168.512v399.488q0 11.488 8 19.488t19.488 8h451.488v130.016q0 67.488-41.504 110.752t-106.496 43.264q-66.016 0-107.744-43.264t-41.76-110.752v-31.488q0-11.488-8.256-19.488t-19.744-8q-11.008 0-19.264 8t-8.256 19.488v31.488q0 91.008 58.016 150.016t147.008 59.008q88.512 0 146.016-59.008t57.504-150.016v-130.016h99.488q11.008 0 19.264-8t8.256-19.488v-399.488q0-11.488-8.256-19.488t-19.264-8h-606.496q-11.488 0-19.488 8t-8 19.488zM98.496 196.512h550.496v344h-550.496v-344zM304.992 423.488q0 24.992 20.992 43.264t48 18.24q26.016 0 46.752-18.24t20.736-43.264q0-18.016-11.264-32.992t-28.736-23.008v-115.008q0-11.488-8-20t-19.488-8.512-19.744 8.512-8.256 20v115.008q-17.504 8-29.248 23.264t-11.744 32.736z" />
<glyph unicode="&#xe911;" glyph-name="uni2E" d="M50.016 308.992v130.016q0 11.488 8.256 19.488t19.744 8h47.008v82.016q0 24.512 18.016 42.496t42.496 18.016h727.008q25.504 0 43.008-17.76t17.504-42.752v-347.008q0-24.992-17.504-42.752t-43.008-17.76h-727.008q-24.512 0-42.496 18.016t-18.016 42.496v80h-47.008q-11.488 0-19.744 8t-8.256 19.488zM180 201.504q0-1.504 2.016-3.264t3.488-1.76h727.008q4.992 0 4.992 4.992v347.008q0 4.992-4.992 4.992h-727.008q-1.504 0-3.488-1.76t-2.016-3.264v-347.008zM226.496 238.496v272.992h186.016v-272.992h-186.016zM455.488 238.496v272.992h188.512v-272.992h-188.512zM684 238.496v272.992h186.496v-272.992h-186.496z" />
<glyph unicode="&#xe912;" glyph-name="uni2F" horiz-adv-x="1088" d="M26.496 852.512q0 13.504 10.496 22.496l180.992 142.496q7.488 6.016 17.504 6.016h636.992q11.488 0 19.488-8t8-19.488v-285.504q0-11.488-8-19.744t-19.488-8.256h-306.016v-51.008h276.512q10.016 0 16-6.016l181.504-142.496q11.008-8 11.008-21.504 0-14.496-11.008-22.496l-181.504-142.496q-6.016-6.016-16-6.016h-276.512v-260q0-11.488-8.256-19.488t-19.744-8-19.488 8-8 19.488v260h-304.992q-11.488 0-19.744 8t-8.256 19.488v286.016q0 11.008 8.512 19.488 8 8 19.488 8h304.992v51.008h-275.488q-9.504 0-17.504 6.496l-180.992 142.016q-10.496 8.992-10.496 21.504zM99.488 852.512l144.992-114.496h600.512v230.496h-600.512zM233.504 345.984h599.008l146.496 115.488-146.496 114.496h-599.008v-230.016z" />
<glyph unicode="&#xe913;" glyph-name="uni3A" horiz-adv-x="1056" d="M66.496 201.504v640q0 24.992 17.504 42.752t43.008 17.76h802.016q25.504 0 42.752-17.76t17.248-42.752v-640q0-24.992-17.248-42.752t-42.752-17.76h-802.016q-25.504 0-43.008 17.76t-17.504 42.752zM122.016 201.504q0-4.992 4.992-4.992h802.016q4.992 0 4.992 4.992v640q0 4.992-4.992 4.992h-802.016q-4.992 0-4.992-4.992v-640zM175.008 250.496l24.512 55.488 183.488 375.488 202.496-272 101.504 88 189.504-247.008h-701.504zM680 624.512q0 19.008 14.016 32.992t32.992 14.016q20 0 34.016-14.016t14.016-32.992q0-20-14.016-34.24t-34.016-14.24q-19.008 0-32.992 14.24t-14.016 34.24z" />
<glyph unicode="&#xe914;" glyph-name="uni3B" horiz-adv-x="1056" d="M56.512 308.992v130.016q0 11.488 8 19.488t19.488 8h47.008v82.016q0 24.512 18.016 42.496t42.496 18.016h727.008q25.504 0 43.008-17.76t17.504-42.752v-347.008q0-24.992-17.504-42.752t-43.008-17.76h-727.008q-24.512 0-42.496 18.016t-18.016 42.496v80h-47.008q-11.488 0-19.488 8t-8 19.488zM186.496 201.504q0-1.504 1.76-3.264t3.264-1.76h727.008q4.992 0 4.992 4.992v347.008q0 4.992-4.992 4.992h-727.008q-1.504 0-3.264-1.76t-1.76-3.264v-347.008zM456.512 238.496v272.992h186.496v-272.992h-186.496zM684 238.496v272.992h192.512v-272.992h-192.512z" />
<glyph unicode="&#xe915;" glyph-name="uni3C" d="M44.992 460.512q0 92.992 36.256 177.504t97.504 145.504 145.76 97.248 177.504 36.256 177.76-36.256 146.016-97.248 97.504-145.504 36.256-177.504-36.256-177.76-97.504-146.016-146.016-97.504-177.76-36.256-177.504 36.256-145.76 97.504-97.504 146.016-36.256 177.76zM100.512 460.512q0-64 19.488-124.992h132q-9.504 63.488-9.504 124.992 0 62.496 9.504 126.016h-131.008q-20.512-60.512-20.512-126.016zM143.488 280.512q32-64.992 85.504-114.752t120.992-77.76q-59.008 74.496-87.008 192.512h-119.488zM143.488 641.504h119.488q28 115.488 87.008 190.496-66.496-27.488-120-76.992t-86.496-113.504zM298.016 460.512q0-58.496 10.016-124.992h166.016v251.008h-164.992q-11.008-63.008-11.008-126.016zM320.512 280.512q22.016-86.496 63.264-144.992t90.24-72.512v217.504h-153.504zM320.512 641.504h153.504v215.488q-48.512-13.504-89.504-71.744t-64-143.744zM530.496 63.008q49.504 13.504 90.24 72.256t63.264 145.248h-153.504v-217.504zM530.496 335.488h166.016q10.016 66.496 10.016 124.992 0 63.008-11.008 126.016h-164.992v-251.008zM530.496 641.504h153.504q-23.008 85.504-64 143.744t-89.504 71.744v-215.488zM654.496 88q67.488 28 120.992 77.76t85.504 114.752h-119.488q-28-118.016-87.008-192.512zM654.496 832q59.008-75.008 87.008-190.496h119.488q-32.992 64-86.496 113.504t-120 76.992zM752.512 335.488h132q19.488 60.992 19.488 124.992 0 65.504-20.512 126.016h-131.008q9.504-63.488 9.504-126.016 0-61.504-9.504-124.992z" />
<glyph unicode="&#xe916;" glyph-name="uni3D" horiz-adv-x="1056" d="M43.008 460.512q0 92.992 36.256 177.504t97.504 145.504 146.016 97.248 177.76 36.256v-456.512h456.992q0-92.992-36.256-177.76t-97.504-146.016-145.76-97.504-177.504-36.256-177.76 36.256-146.016 97.504-97.504 146.016-36.256 177.76zM562.016 519.008v456.512q92.992 0 178.016-36.256t146.24-97.248 97.504-145.504 36.256-177.504h-458.016zM617.504 573.984h343.008q-18.496 132.992-114.24 228.736t-228.736 113.248v-342.016z" />
<glyph unicode="&#xe917;" glyph-name="uni3E" horiz-adv-x="1056" d="M56.512 308.992v130.016q0 11.488 8 19.488t19.488 8h47.008v82.016q0 24.512 18.016 42.496t42.496 18.016h727.008q25.504 0 43.008-17.76t17.504-42.752v-347.008q0-24.992-17.504-42.752t-43.008-17.76h-727.008q-24.512 0-42.496 18.016t-18.016 42.496v80h-47.008q-11.488 0-19.488 8t-8 19.488zM186.496 201.504q0-1.504 1.76-3.264t3.264-1.76h727.008q4.992 0 4.992 4.992v347.008q0 4.992-4.992 4.992h-727.008q-1.504 0-3.264-1.76t-1.76-3.264v-347.008z" />
<glyph unicode="&#xe918;" glyph-name="uni3F" horiz-adv-x="1056" d="M43.008 460.512q0 92.992 36.256 177.504t97.248 145.504 145.504 97.248 177.504 36.256v-456.512h458.016q0-92.992-36.256-177.76t-97.504-146.016-146.24-97.504-178.016-36.256-177.504 36.256-145.504 97.504-97.248 146.016-36.256 177.76zM98.496 460.512q0-82.016 31.744-156.512t85.504-128.256 128-85.76 155.744-32q75.008 0 144.256 26.752t121.76 72.992 87.488 110.24 44.992 136h-453.504v454.016q-96.512-12.992-175.744-68.736t-124.736-142.24-45.504-186.496zM562.016 519.008v456.512q92.992 0 178.016-36.256t146.24-97.248 97.504-145.504 36.256-177.504h-458.016zM617.504 573.984h343.008q-18.496 132.992-114.24 228.736t-228.736 113.248v-342.016z" />
<glyph unicode="&#xe919;" glyph-name="uni4A" horiz-adv-x="992" d="M34.016 155.488q-3.488 6.496-3.488 12.992 0 8 5.504 15.488 53.504 79.488 80.736 168.992t49.248 258.016q6.496 48.992 24.512 89.504t40.256 67.264 51.008 47.744 53.504 32.256 51.744 19.264q7.488 35.488 36 58.752t65.504 23.264q37.504 0 66.24-23.264t36.256-58.752q27.008-8 51.744-19.264t53.504-32.256 51.008-47.744 40.256-67.264 24.512-89.504q22.016-168.512 49.248-258.016t80.736-168.992q4.992-7.008 4.992-15.008 0-6.496-3.008-13.504-8-14.496-24.512-14.496h-860.992q-16.512 0-24.512 14.496zM108.512 196.512h760.992q-44.992 78.016-68.992 168.992t-44 238.496q-5.504 41.504-20.512 75.488t-34.24 56.512-44.512 39.744-48.736 26.752-49.504 15.488q-9.504 2.496-15.488 9.76t-6.016 16.736v0.992q0 20-14.24 34.016t-34.752 14.016q-20 0-34.016-14.016t-15.008-34.016v-0.992q0-9.504-5.504-16.992t-15.008-9.504q-26.016-6.016-49.504-15.488t-48.992-26.752-44.736-39.744-34.24-56.512-20.512-75.488q-20-148-43.744-239.008t-68.736-168.512zM411.488 113.504h153.504q0-31.488-22.24-54.24t-54.24-22.752q-31.488 0-54.24 22.752t-22.752 54.24z" />
<glyph unicode="&#xe91a;" glyph-name="uni4B" horiz-adv-x="896" d="M56.992 555.008q-10.496 40-10.752 80t10.752 80.512q20.992 80.512 80.992 140.512 45.504 44.512 102.496 67.744t118.016 23.264 118.24-23.264 102.752-67.744q50.496-51.008 73.504-116.992 17.504-51.008 17.504-103.008 0-16-1.504-32-7.008-68.512-42.496-128-2.016-10.016-4.992-14.496l222.496-222.016q12.992-13.504 14.016-26.496v-4q0-11.008-4-18.016-4.992-8.992-15.488-19.488l-10.016-10.016q-10.496-10.496-19.488-15.488-7.008-4-16-4.512-2.016 0-4.992 0.512-12.992 1.504-26.016 14.496l-223.488 223.008q-1.504-0.992-4-2.496t-4-2.496q-78.016-51.008-172-51.008-60.992 0-118.016 23.264t-102.496 67.744q-60 60.512-80.992 140.512zM102.496 634.496q0-51.488 19.264-98.24t55.264-82.752q36.992-36 84-55.488t97.504-19.488q51.488 0 98.24 19.488t82.752 55.488q49.504 49.504 67.008 115.488 8.992 32.992 8.736 66.016t-8.736 66.016q-17.504 66.016-67.008 115.008-74.016 75.488-180.992 75.488-51.008 0-98.016-19.488t-83.488-56q-36-36-55.264-83.008t-19.264-98.496z" />
<glyph unicode="&#xe91b;" glyph-name="uni4C" horiz-adv-x="896" d="M56.992 555.008q-10.496 40-10.752 80t10.752 80.512q20.992 80.512 80.992 140.512 45.504 44.512 102.496 67.744t118.016 23.264 118.24-23.264 102.752-67.744q50.496-51.008 73.504-116.992 17.504-51.008 17.504-103.008 0-16-1.504-32-7.008-68.512-42.496-128-2.016-10.016-4.992-14.496l222.496-222.016q14.016-14.016 14.016-28.992 0-18.496-20.512-39.008-0.992-2.016-8.992-10.016-11.488-10.496-19.488-15.488-6.496-4-16.512-4h-4.512q-12.992 0.992-26.016 14.496l-223.488 223.008q-1.504-0.992-4-2.496t-4-2.496q-78.016-51.008-172-51.008-60.992 0-118.016 23.264t-102.496 67.744q-60 60.512-80.992 140.512zM102.496 634.496q0-51.488 19.264-98.24t55.264-82.752q76.512-75.008 181.504-75.008 51.488 0 98.24 19.488t82.752 55.488q49.504 49.504 67.008 115.488 8.992 32.992 8.736 66.016t-8.736 66.016q-17.504 66.016-67.008 115.008-74.016 75.488-180.992 75.488-106.016 0-181.504-75.488-36-36-55.264-83.008t-19.264-98.496zM227.488 604.992v60.512h263.008v-60.512h-263.008z" />
<glyph unicode="&#xe91c;" glyph-name="uni4D" horiz-adv-x="928" d="M48.992 305.984v603.008q0 24.992 17.504 42.752t43.008 17.76h701.504q25.504 0 43.008-17.76t17.504-42.752v-603.008q0-24.992-17.504-42.752t-43.008-17.76h-115.488v-104.512l-187.488 104.512h-398.496q-25.504 0-43.008 17.76t-17.504 42.752zM104.512 305.984q0-5.504 4.992-5.504h412.512l12.512-6.016 105.504-59.488v65.504h171.008q4.992 0 4.992 5.504v603.008q0 4.992-4.992 4.992h-701.504q-4.992 0-4.992-4.992v-603.008zM216.992 765.504q0 11.488 8 19.744t19.488 8.256h431.488q11.488 0 19.488-8.256t8-19.744-8-19.488-19.488-8h-431.488q-11.488 0-19.488 8t-8 19.488zM304.992 641.504q0 11.488 8.256 19.744t19.744 8.256h343.008q11.488 0 19.488-8.256t8-19.744-8-19.488-19.488-8h-343.008q-11.488 0-19.744 8t-8.256 19.488zM448.512 519.008q0 11.488 8 19.488t19.488 8h200q11.488 0 19.488-8t8-19.488-8-19.744-19.488-8.256h-200q-11.488 0-19.488 8.256t-8 19.744z" />
<glyph unicode="&#xe91d;" glyph-name="uni4E" horiz-adv-x="928" d="M43.008 307.008v399.008q0 25.504 17.504 43.488t43.008 18.016h555.008q25.504 0 43.008-18.016t17.504-43.488v-399.008q0-24.992-17.504-42.752t-43.008-17.76h-116v-104.512l-188 104.512h-251.008q-25.504 0-43.008 17.76t-17.504 42.752zM98.496 307.008q0-4.992 4.992-4.992h266.016l12.512-6.496 105.504-59.488v66.016h171.008q4.992 0 4.992 4.992v399.008q0 6.496-4.992 6.496h-555.008q-4.992 0-4.992-6.496v-399.008zM182.496 568q0 11.488 8 19.488t19.488 8h342.016q11.488 0 19.488-8t8-19.488-8-19.488-19.488-8h-342.016q-11.488 0-19.488 8t-8 19.488zM218.016 825.984v116.992q0 25.504 18.016 42.752t43.488 17.248h555.008q24.992 0 42.752-17.248t17.76-42.752v-399.488q0-25.504-17.76-43.008t-42.752-17.504h-75.488v55.488h75.488q4.992 0 4.992 4.992v399.488q0 4.992-4.992 4.992h-555.008q-4.992 0-4.992-4.992v-116.992h-56.512zM324.512 444.992q0 11.488 8.256 19.744t19.744 8.256h199.488q11.488 0 19.488-8.256t8-19.744-8-19.488-19.488-8h-199.488q-11.488 0-19.744 8t-8.256 19.488z" />
<glyph unicode="&#xe91e;" glyph-name="uni4F" horiz-adv-x="832" d="M21.504 211.488q0 19.488 15.488 39.008 7.008 8 15.008 24.512 3.008 6.496 8.992 18.752t8.512 18.24q24 50.496 36.992 64.512l314.496 313.504-31.008 29.504q-17.504 17.504-17.504 43.008t17.504 43.008l52.512 52.512q16.992 16.992 43.008 16.992 24.512 0 43.008-16.992l8-8.512 56.512 56.512q38.496 38.496 94.016 38.496h0.992q56-0.512 96.512-40.512 39.488-39.488 40.992-95.488 0-56-40-96l-56.512-56.512 8.512-7.008q17.504-17.504 17.504-43.008t-17.504-43.008l-52.512-52.512q-20-18.496-43.008-18.496-24.512 0-43.008 18.496l-29.504 30.016-313.504-313.504q-13.504-13.504-63.488-38.016-20-8.512-36.992-17.504-11.488-4.992-25.504-15.008-19.008-15.008-37.504-15.008h-2.496q-20 0.992-44 24.992-24.512 24.512-24.512 44.992zM79.008 212.512l2.016-2.496q2.016-2.496 4-4.512 6.016-6.016 8-7.008 4.512 2.496 5.504 4 27.008 16.512 32.512 19.488 16.992 7.488 38.016 18.496 38.496 16 48 25.504l313.504 313.504-70.496 70.496-313.504-313.504q-7.008-6.016-26.496-48-6.016-14.496-18.496-38.016-6.496-12.992-19.488-31.488-0.512-0.992-1.504-3.264t-1.504-3.264zM428.992 758.496l208.992-208.992q2.016-0.992 4-0.992t3.008 0.992l52.512 52.512q3.488 3.488 0 7.008l-46.016 47.008 95.008 95.488q23.488 23.488 23.488 56-1.504 34.496-24.512 57.504-23.488 23.008-56.992 24-0.992 0-2.016 0.512-32 0-54.496-22.496l-95.488-96-47.008 48q-2.016 0.992-4 0.992t-3.008-0.992l-53.504-52.512q-2.016-2.016-2.016-4t2.016-4z" />
<glyph unicode="&#xe91f;" glyph-name="uni5A" horiz-adv-x="1088" d="M47.008 460.512q0 92.992 36.256 177.504t97.504 145.504 146.24 97.248 178.016 36.256q119.008 0 221.248-56.992t164.736-155.488 69.504-216.512h109.504l-139.008-135.008-135.488 135.008h109.504q-5.504 76.992-39.008 146.24t-86.496 119.264-124.736 79.264-149.76 29.248q-108.992 0-201.76-54.016t-146.752-146.496-54.016-200.992q0-108.992 54.016-201.76t146.752-146.752 201.76-54.016q94.016 0 179.008 43.008l23.488-51.008q-98.016-47.008-202.496-47.008-92.992 0-178.016 36.256t-146.24 97.504-97.504 146.016-36.256 177.76z" />
<glyph unicode="&#xe920;" glyph-name="uni5B" horiz-adv-x="1056" d="M21.504 872q0 11.488 8 19.744t19.488 8.256h133.504q18.016 0 25.504-16.512l46.016-100.512h679.008l28.512 95.488q3.008 10.496 12.992 15.744t20.992 2.24q11.488-3.488 16.992-13.504t1.504-20.992l-146.496-489.504q-6.496-20.512-27.008-20.512h-432q-16.512 0-25.504 16.512l-218.016 476h-116q-11.488 0-19.488 8t-8 19.488zM279.488 728l146.496-320.992h394.016l96.512 320.992h-636.992zM412.512 233.984q0 38.016 27.744 65.76t65.76 27.744 64.992-27.488 27.008-66.016-27.008-65.76-64.992-27.264q-38.496 0-66.016 27.488t-27.488 65.504zM468 233.984q0-15.488 11.008-26.496t27.008-11.008q15.488 0 26.016 11.008t10.496 26.496-10.752 26.752-25.76 11.264q-16 0-27.008-11.264t-11.008-26.752zM682.016 233.984q0 38.496 27.008 66.016t64.992 27.488 65.76-27.744 27.744-65.76-27.488-65.504-66.016-27.488q-38.016 0-64.992 27.264t-27.008 65.76zM737.504 233.984q0-15.488 10.496-26.496t26.016-11.008 26.752 11.008 11.264 26.496-11.264 26.752-26.752 11.264q-15.008 0-25.76-11.264t-10.752-26.752z" />
<glyph unicode="&#xe921;" glyph-name="uni5C" horiz-adv-x="832" d="M68.512 63.008v901.504q0 24.992 17.504 42.496t43.008 17.504h556.992q24.992 0 42.752-17.76t17.76-42.24v-901.504q0-25.504-17.76-42.752t-42.752-17.248h-556.992q-25.504 0-43.008 17.248t-17.504 42.752zM124 170.496q0-4.992 4.992-4.992h556.992q4.992 0 4.992 4.992v794.016q0 4.992-4.992 4.992h-556.992q-4.992 0-4.992-4.992v-794.016zM360.512 83.488q0-19.008 14.016-32.992t32.992-14.016 32.992 14.016 14.016 32.992-14.016 33.248-32.992 14.24-32.992-14.24-14.016-33.248z" />
<glyph unicode="&#xe922;" glyph-name="uni5D" horiz-adv-x="928" d="M51.008 63.008v562.496q0 12 4.512 22.496 0 4 4 12l74.496 120 2.016 2.016q7.008 14.496 23.488 14.496h98.496v19.488q0 91.008 58.016 149.76t147.008 58.752q88.512 0 146.016-59.008t57.504-149.504v-19.488h98.496q19.488 0 26.496-19.488l72.992-116.992q0.512-1.504 1.504-4t1.504-4q6.016-12 6.016-26.496v-562.496q0-25.504-17.504-42.752t-43.008-17.248h-701.504q-24.992 0-42.752 17.248t-17.76 42.752zM106.496 63.008q0-4.992 4.992-4.992h701.504q4.992 0 4.992 4.992v562.496q0 4.992-4.992 4.992h-701.504q-4.992 0-4.992-4.992v-562.496zM141.504 685.984h116.512v55.008h-83.008zM313.504 685.984h298.016v55.008h-298.016v-55.008zM313.504 796.512h298.016v19.488q0 68-41.504 110.752t-107.008 42.752q-66.016 0-107.744-42.752t-41.76-110.752v-19.488zM666.496 685.984h116l-34.016 55.008h-82.016v-55.008z" />
<glyph unicode="&#xe923;" glyph-name="uni5E" horiz-adv-x="864" d="M60.512 228.992v562.016q0 60.512 46.016 111.488t127.488 81.504 181.504 33.504h47.488q97.504-4.512 176.992-35.264t124.736-81.248 45.248-110.016v-562.016q0-47.488-29.76-90.24t-85.76-74.752q-106.016-60.992-259.488-60.992h-2.016q-149.504 0-256.992 62.016-56 31.488-85.76 73.76t-29.76 90.24zM115.488 228.992q0-31.488 23.008-61.504t65.504-55.008q96-54.496 230.016-54.496h0.992q135.488 0 231.488 54.496 88 51.488 88 116.512v562.016q0 43.008-39.264 80.992t-107.264 62.24-148 27.744h-42.016q-82.016-2.496-151.744-26.24t-110.24-62.24-40.512-82.496v-562.016zM157.504 348v408.512q0 48.512 34.752 83.008t83.264 34.496h319.488q48.512 0 82.496-34.496t34.016-83.008v-408.512q0-48.992-34.016-83.488t-82.496-34.496h-319.488q-48.512 0-83.264 34.496t-34.752 83.488zM212.992 348q0-26.016 18.496-44.256t44-18.24h319.488q25.504 0 43.488 18.24t18.016 44.256v408.512q0 25.504-18.016 44t-43.488 18.496h-319.488q-25.504 0-44-18.496t-18.496-44v-408.512zM388 145.984q0 19.488 13.76 33.248t33.248 13.76q19.008 0 33.248-14.016t14.24-32.992-14.24-32.992-33.248-14.016q-19.488 0-33.248 13.76t-13.76 33.248z" />
<glyph unicode="&#xe924;" glyph-name="uni5F" horiz-adv-x="736" d="M43.008 168.512v399.488q0 11.488 8 19.488t19.488 8h98.496v130.016q0 91.008 58.016 150.016t147.008 59.008q88.512 0 146.016-59.008t57.504-150.016v-130.016h99.488q11.008 0 19.264-8t8.256-19.488v-399.488q0-11.488-8.256-19.488t-19.264-8h-606.496q-11.488 0-19.488 8t-8 19.488zM98.496 196.512h550.496v344h-550.496v-344zM224.512 595.488h297.504v130.016q0 67.488-41.504 110.752t-106.496 43.264q-66.016 0-107.744-43.264t-41.76-110.752v-130.016zM304.992 423.488q0 24.992 20.992 43.264t48 18.24q26.016 0 46.752-18.24t20.736-43.264q0-18.016-11.264-32.992t-28.736-23.008v-115.008q0-11.488-8-20t-19.488-8.512-19.744 8.512-8.256 20v115.008q-17.504 8-29.248 23.264t-11.744 32.736z" />
<glyph unicode="&#xe925;" glyph-name="uni6A" horiz-adv-x="992" d="M44 378.496v154.496q0 16.992 12 31.264t28 16.256l27.488 4 35.008 3.008q4.992 14.016 10.016 23.488l-23.488 26.496-16.512 22.496q-8 12-8 26.496 0 2.496 0.512 5.504 1.504 18.016 12.992 29.504l109.504 109.504q12.512 12.512 30.496 14.016h4.512q15.008 0 26.496-8.512l22.496-16.512 26.496-22.496q4 1.504 11.744 4.512t11.744 4.512l3.008 35.008 4 27.488q2.016 16.512 16.256 28.256t31.264 11.744h154.496q16.992 0 31.008-11.744t16-28.256l4-27.488 3.008-35.008 24-8.992 26.496 22.496 22.496 16.512q12 8.512 27.488 8.512h4.512q18.016-1.504 29.504-14.016l109.504-109.504q12.512-11.488 13.504-29.504 0.512-2.016 0.512-4 0-15.488-8.992-28l-16.512-22.496-22.496-26.496q1.504-4 4.736-11.744t4.736-11.744l34.496-3.008 28-4q16.512-2.016 28.256-16.256t11.744-31.264v-154.496q0-16.992-11.744-31.008t-28.256-16l-28-4-34.496-3.008q-1.504-4-4.736-12t-4.736-12l22.496-26.496 16.512-22.496q8.992-11.488 8.992-27.008 0-2.016-0.512-4-0.992-18.016-13.504-30.496l-109.504-109.504q-11.488-11.488-29.504-12.992h-4.992q-15.008 0-27.008 8l-22.496 16.512-26.496 23.488q-12-6.016-24-10.496l-3.008-34.496-4-28q-2.016-16-16-27.744t-31.008-11.744h-154.496q-16.992 0-31.264 11.744t-16.256 27.744l-4 28-3.008 34.496q-10.016 3.488-23.488 10.496l-26.496-23.488-22.496-16.512q-11.488-8.512-26.496-8.512h-4.512q-18.016 1.504-30.496 13.504l-109.504 109.504q-11.488 12.512-12.992 30.496-0.512 3.008-0.512 5.504 0 14.496 8 25.504l16.512 22.496 23.488 26.496q-4 8-10.016 24l-35.008 3.008-27.488 4q-16 2.496-28 16.256t-12 30.752zM92.992 379.488l26.016-4 64.512-4.992q6.016-20 8.992-28.992 1.504-3.488 4-10.24t4-10.24q4.992-11.488 14.496-26.496l-34.016-40-8-8.992-15.488-21.504 107.488-107.488 21.504 15.488 9.504 8 40 34.016q15.008-9.504 26.496-14.496 3.488-1.504 10.24-4.256t10.24-4.256q13.504-4.512 28.512-8.992l4-51.008 1.504-13.504 4-25.504h152.512l4 25.504 0.992 13.504 4 51.008q20 6.016 28.992 8.992 2.016 0.992 9.504 4t11.008 4.512q11.488 4.992 26.496 14.496l40-34.016 10.016-8 20.512-15.488 107.488 107.488-15.488 21.504-8 8.992-32.512 40q11.008 22.016 12.992 26.496 8 18.496 8.512 20.512 6.016 12.992 8.992 28.992l64.512 4.992 25.504 4v152.512l-25.504 4.512-12.512 0.992-52 4q-3.008 15.008-8.992 28.512-2.496 8-8.512 20.512-2.016 4.512-12.992 26.496l32.512 40 8 10.496 15.488 20.512-107.488 107.488-20.512-15.488-10.016-8-40-32.992q-1.504 0.992-11.264 6.016t-15.264 7.488q-10.016 4.992-20.512 8-12.992 6.016-28.992 8.992l-4 52.512-0.992 12-4 26.016h-152.512l-4-26.016-1.504-12-4-52.512q-15.008-3.008-28.512-8.992-5.504-1.504-20.512-8-5.504-2.496-15.264-7.488t-11.264-6.016l-40 32.992-9.504 8-21.504 15.488-107.488-107.488 15.488-20.512 8-10.496 34.016-40q-9.504-15.008-14.496-26.496-1.504-3.488-4.256-10.496t-3.744-10.016q-4.512-13.504-8.992-28.512l-64.512-4.992-26.016-4.512v-152.512zM343.008 456.512q0 64 44.992 109.248t109.504 45.248q64 0 109.504-45.504t45.504-108.992q0-64.512-45.504-109.504t-109.504-44.992q-64.512 0-109.504 44.992t-44.992 109.504zM391.008 456.512q0-44 31.264-75.264t75.264-31.264q43.008 0 74.24 31.264t31.264 75.264q0 43.008-31.264 74.24t-74.24 31.264q-44 0-75.264-31.264t-31.264-74.24z" />
<glyph unicode="&#xe926;" glyph-name="uni6B" horiz-adv-x="896" d="M56.992 555.008q-10.496 40-10.752 80t10.752 80.512q20.992 80.512 80.992 140.512 45.504 44.512 102.752 67.744t117.76 23.264q60.992 0 118.24-23.264t102.752-67.744q50.496-51.008 73.504-116.992 17.504-51.008 17.504-103.008 0-16-1.504-32-7.008-68.512-42.496-128-2.016-10.016-4.992-14.496l222.496-222.016q12.992-13.504 14.016-26.496v-4q0-11.008-4-18.016-4.992-8.992-15.488-19.488l-10.016-10.016q-10.496-10.496-19.488-15.488-7.008-4-16-4.512-2.016 0-4.992 0.512-12.992 1.504-26.016 14.496l-223.488 223.008q-1.504-0.992-4-2.496t-4-2.496q-78.016-51.008-172-51.008-60.512 0-117.76 23.264t-102.752 67.744q-60 60.512-80.992 140.512zM102.496 634.496q0-51.488 19.264-98.24t55.264-82.752q36.992-36 84-55.488t97.504-19.488q51.488 0 98.24 19.488t82.752 55.488q49.504 49.504 67.008 115.488 8.992 32.992 8.736 66.016t-8.736 66.016q-17.504 66.016-67.008 115.008-74.016 75.488-180.992 75.488-51.008 0-98.016-19.488t-83.488-56q-36-36-55.264-83.008t-19.264-98.496zM227.488 604.992v60.512h100.992v100.992h60.512v-100.992h101.504v-60.512h-101.504v-101.504h-60.512v101.504h-100.992z" />
<glyph unicode="&#xe927;" glyph-name="uni6C" horiz-adv-x="1152" d="M60.512 201.504v639.008q0 24.992 17.504 42.752t43.008 17.76h900.992q25.504 0 43.008-17.76t17.504-42.752v-639.008q0-24.992-17.504-42.752t-43.008-17.76h-900.992q-25.504 0-43.008 17.76t-17.504 42.752zM115.488 201.504q0-1.504 1.76-3.264t3.744-1.76h900.992q4.992 0 4.992 4.992v391.008h-911.488v-391.008zM115.488 733.984h911.488v106.496q0 4.992-4.992 4.992h-900.992q-2.016 0-3.744-1.76t-1.76-3.264v-106.496zM228.512 336.512q0 11.488 8 19.488t19.488 8h342.016q11.488 0 19.488-8t8-19.488-8-19.488-19.488-8h-342.016q-11.488 0-19.488 8t-8 19.488zM228.512 460.512q0 11.488 8 19.488t19.488 8h430.016q11.488 0 19.488-8t8-19.488-8-19.488-19.488-8h-430.016q-11.488 0-19.488 8t-8 19.488zM794.496 367.488v120.512h120v-120.512h-120z" />
<glyph unicode="&#xe928;" glyph-name="uni6D" horiz-adv-x="928" d="M48.992 305.984v603.008q0 24.992 17.504 42.752t43.008 17.76h701.504q25.504 0 43.008-17.76t17.504-42.752v-603.008q0-24.992-17.504-42.752t-43.008-17.76h-115.488v-104.512l-187.488 104.512h-398.496q-25.504 0-43.008 17.76t-17.504 42.752zM104.512 305.984q0-5.504 4.992-5.504h412.512l12.512-6.016 105.504-59.488v65.504h171.008q4.992 0 4.992 5.504v603.008q0 4.992-4.992 4.992h-701.504q-4.992 0-4.992-4.992v-603.008zM258.016 556.512v76.992h76.992v-76.992h-76.992zM422.016 556.512v76.992h76.512v-76.992h-76.512zM585.504 556.512v76.992h76.992v-76.992h-76.992z" />
<glyph unicode="&#xe929;" glyph-name="uni6E" horiz-adv-x="864" d="M13.504 175.008l34.496 151.488q3.008 12 4.992 14.016l534.016 532.512 84.512 84.992q10.016 10.016 24.512 10.016 4 0 8.992-0.992 20-3.488 36.512-20l84.992-84.992q12-11.488 12-24 0-14.496-16-30.496l-84.992-84.992-532.512-533.504q-0.992-0.992-3.264-3.008t-4.256-3.264-4-1.76l-148.512-39.008q-4-0.992-7.488-0.992-10.016 0-16.992 7.008-8.512 8.512-8.512 18.496 0 4 1.504 8.512zM73.504 209.504l97.504 24.512 6.016 5.504-73.504 73.504-4.992-6.016zM142.496 352l73.504-74.016 463.008 464-74.016 72.992zM644 853.504l74.016-73.504 56 56.512-73.504 73.504z" />
<glyph unicode="&#xe92a;" glyph-name="uni6F" horiz-adv-x="800" d="M47.008 626.496v99.008q0 25.504 17.504 43.008t43.008 17.504h119.008v76.992q0 11.488 8 19.488t19.488 8h282.496q0.992 0 2.016-0.992 0.992 0.992 3.008 0.992 11.488 0 19.744-8t8.256-19.488v-76.992h118.496q25.504 0 43.008-17.504t17.504-43.008v-99.008h-52v-563.488q0-25.504-17.504-42.752t-43.008-17.248h-476.512q-25.504 0-42.752 17.248t-17.248 42.752v563.488h-52.512zM102.496 681.504h590.496v44q0 5.504-4.992 5.504h-580.512q-4.992 0-4.992-5.504v-44zM154.496 63.008q0-4.992 4.992-4.992h476.512q4.992 0 4.992 4.992v563.488h-486.496v-563.488zM242.496 107.008v455.008h55.488v-455.008h-55.488zM281.504 785.984h232.512v49.504h-232.512v-49.504zM370.496 107.008v455.008h55.488v-455.008h-55.488zM498.496 107.008v455.008h55.488v-455.008h-55.488z" />
<glyph unicode="&#xe92b;" glyph-name="uni7A" horiz-adv-x="1088" d="M16.512 488h109.504q7.008 118.016 69.504 216.512t164.736 155.488 221.248 56.992q92.992 0 178.016-36.256t146.24-97.248 97.504-145.504 36.256-177.504-36.256-177.76-97.504-146.016-146.24-97.504-178.016-36.256q-104.512 0-202.496 47.008l23.488 51.008q84.992-43.008 179.008-43.008 108.992 0 201.76 54.016t146.752 146.752 54.016 201.76q0 108.512-54.016 200.992t-146.752 146.496-201.76 54.016q-78.016 0-149.76-29.248t-124.736-79.264-86.752-119.264-39.264-146.24h110.016l-136.512-135.008z" />
<glyph unicode="&#xe92c;" glyph-name="uni7B" horiz-adv-x="1120" d="M44 63.008v516.512q0 25.504 17.504 43.264t43.008 17.76h684q1.504 3.008 4 5.504 4.992 6.496 10.496 15.008t11.744 20.992 9.504 24.512 4.256 25.76-4.992 24.256q-11.488 26.016-55.264 40.992t-113.76 17.504q-216 7.488-262.496 94.016-10.016 19.008-10.752 40.512t3.744 35.744 11.488 25.248q6.016 10.016 17.248 12t21.248-4q9.504-5.504 12-16.736t-3.488-21.248l-1.504-3.008q-0.992-3.008-2.496-7.264t-2.24-10.016 0.512-12.512 4.736-13.248q4.992-9.504 16.512-18.496t34.24-19.264 64.736-17.504 98.496-9.248q178.496-6.016 216.992-91.008 27.008-57.504-18.496-138.496h151.488q24.992 0 42.752-17.76t17.76-43.264v-516.512q0-25.504-17.76-42.752t-42.752-17.248h-902.016q-25.504 0-43.008 17.248t-17.504 42.752zM99.488 63.008q0-4.992 4.992-4.992h902.016q4.992 0 4.992 4.992v516.512q0 2.016-1.76 4t-3.264 2.016h-902.016q-4.992 0-4.992-6.016v-516.512zM243.488 293.504v26.496q0 8.992 6.24 15.264t15.264 6.24h26.016q8.992 0 15.264-6.24t6.24-15.264v-26.496q0-8.992-6.24-15.264t-15.264-6.24h-26.016q-8.992 0-15.264 6.24t-6.24 15.264zM243.488 431.008v26.496q0 8.992 6.24 15.264t15.264 6.24h26.016q8.992 0 15.264-6.24t6.24-15.264v-26.496q0-8.992-6.24-15.264t-15.264-6.24h-26.016q-8.992 0-15.264 6.24t-6.24 15.264zM288.992 151.008q0 11.488 8 19.744t19.488 8.256h478.016q11.488 0 19.744-8.256t8.256-19.744-8.256-19.488-19.744-8h-478.016q-11.488 0-19.488 8t-8 19.488zM313.504 361.984v27.008q0 8.992 6.24 15.264t15.264 6.24h25.504q8.992 0 15.264-6.24t6.24-15.264v-27.008q0-8.992-6.24-15.264t-15.264-6.24h-25.504q-8.992 0-15.264 6.24t-6.24 15.264zM382.016 293.504v26.496q0 8.512 6.496 15.008t15.008 6.496h26.496q8.512 0 15.008-6.496t6.496-15.008v-26.496q0-8.512-6.496-15.008t-15.008-6.496h-26.496q-8.512 0-15.008 6.496t-6.496 15.008zM382.016 431.008v26.496q0 8.512 6.496 15.008t15.008 6.496h26.496q8.512 0 15.008-6.496t6.496-15.008v-26.496q0-8.512-6.496-15.008t-15.008-6.496h-26.496q-8.512 0-15.008 6.496t-6.496 15.008zM451.488 361.984v27.008q0 8.512 6.496 15.008t15.008 6.496h26.496q8.992 0 15.264-6.24t6.24-15.264v-27.008q0-8.992-6.24-15.264t-15.264-6.24h-26.496q-8.512 0-15.008 6.496t-6.496 15.008zM520.992 293.504v26.496q0 8.992 6.24 15.264t15.264 6.24h26.016q8.992 0 15.264-6.24t6.24-15.264v-26.496q0-8.992-6.24-15.264t-15.264-6.24h-26.016q-8.992 0-15.264 6.24t-6.24 15.264zM520.992 431.008v26.496q0 8.992 6.24 15.264t15.264 6.24h26.016q8.992 0 15.264-6.24t6.24-15.264v-26.496q0-8.992-6.24-15.264t-15.264-6.24h-26.016q-8.992 0-15.264 6.24t-6.24 15.264zM591.008 361.984v27.008q0 8.512 6.496 15.008t15.008 6.496h26.496q8.512 0 15.008-6.496t6.496-15.008v-27.008q0-8.512-6.496-15.008t-15.008-6.496h-26.496q-8.512 0-15.008 6.496t-6.496 15.008zM659.488 293.504v26.496q0 8.992 6.24 15.264t15.264 6.24h25.504q8.992 0 15.264-6.24t6.24-15.264v-26.496q0-8.992-6.24-15.264t-15.264-6.24h-25.504q-8.992 0-15.264 6.24t-6.24 15.264zM659.488 431.008v26.496q0 8.992 6.24 15.264t15.264 6.24h25.504q8.992 0 15.264-6.24t6.24-15.264v-26.496q0-8.992-6.24-15.264t-15.264-6.24h-25.504q-8.992 0-15.264 6.24t-6.24 15.264zM730.016 361.984v27.008q0 8.992 6.24 15.264t15.264 6.24h25.504q9.504 0 16-6.496t6.496-15.008v-27.008q0-8.512-6.496-15.008t-16-6.496h-25.504q-8.992 0-15.264 6.24t-6.24 15.264zM797.504 293.504v26.496q0 8.512 6.496 15.008t15.008 6.496h27.008q8.512 0 15.008-6.496t6.496-15.008v-26.496q0-8.512-6.496-15.008t-15.008-6.496h-27.008q-8.512 0-15.008 6.496t-6.496 15.008zM797.504 431.008v26.496q0 8.512 6.496 15.008t15.008 6.496h27.008q8.512 0 15.008-6.496t6.496-15.008v-26.496q0-8.512-6.496-15.008t-15.008-6.496h-27.008q-8.512 0-15.008 6.496t-6.496 15.008z" />
<glyph unicode="&#xe92d;" glyph-name="uni7C" horiz-adv-x="1088" d="M42.016 827.008q-3.008 11.008 2.752 20.992t16.736 12.992l357.504 92.992h8.992q10.016 0 17.76-6.24t9.76-16.256q4.512-27.488 30.496-46.016t59.008-18.496 58.752 18.496 30.24 46.016q1.504 10.016 9.248 16.256t18.24 6.24h8l357.504-92.992q11.488-3.008 17.504-12.992t3.008-20.992l-51.008-196.512q-2.016-8.992-9.76-14.752t-17.248-5.76h-132v-441.504q0-11.488-8.512-19.488t-20-8h-529.504q-11.488 0-19.488 8t-8 19.488v441.504h-132q-10.016 0-18.016 5.504t-10.016 15.008zM102.496 813.984l39.008-148.512h138.016q11.488 0 19.488-8.256t8-19.744v-440.992h474.496v440.992q0 11.488 8.256 19.744t19.264 8.256h139.008l39.008 148.512-307.008 79.488q-16.512-36.992-53.248-60t-81.76-23.008q-45.504 0-82.24 23.008t-53.248 60z" />
<glyph unicode="&#xe92e;" glyph-name="uni7D" horiz-adv-x="864" d="M61.504 168.512v670.016q0 11.488 8 19.488t19.488 8h536.512q12.512 0 19.488-7.008l164-155.008q8.992-7.488 8.992-20.512v-515.008q0-11.488-8-19.488t-19.488-8h-701.504q-11.488 0-19.488 8t-8 19.488zM116.512 196.512h646.496v476l-147.488 138.016h-61.504v-218.016h-323.488v218.016h-114.016v-614.016zM396.512 653.984h92.992v156.512h-92.992v-156.512z" />
<glyph unicode="&#xe92f;" glyph-name="uni7E" horiz-adv-x="864" d="M19.488 463.488q0 11.488 8 19.488l477.504 476.992q8.512 8.512 19.488 8.512h294.496q11.488 0 19.744-8.256t8.256-19.744v-294.496q0-11.008-8.512-19.488l-476.992-477.504q-8-8-19.488-8t-19.488 8l-295.008 295.008q-8 8-8 19.488zM86.016 463.488l256-255.008 449.504 448.512v256h-256zM567.488 780.992q0 39.008 26.496 65.504t65.504 26.496 65.504-26.496q27.008-27.008 27.008-64.992t-27.008-64.992q-27.488-27.488-65.504-27.488t-65.504 27.488q-26.496 26.496-26.496 64.512zM622.496 780.992q0-14.016 11.488-25.504 10.016-11.488 25.504-11.488 15.008 0 26.496 11.488 11.008 11.008 11.008 26.016t-11.008 26.016q-10.496 10.496-26.496 10.496-16.512 0-25.504-10.496-11.488-11.488-11.488-26.496z" />
<glyph unicode="&#xe930;" glyph-name="uni7F" horiz-adv-x="928" d="M38.016 745.984v148q0 26.496 17.76 44.512t44.736 18.016h530.496q26.496 0 44.256-17.76t17.76-44.736v-148q0-25.504-17.76-44t-44.256-18.496h-28v-142.496l202.016-202.016q34.016-34.016 51.744-76.736t17.76-90.752-18.016-91.264-51.488-76.736q-35.008-35.008-78.496-52.512t-89.504-17.504q-44 0-86.016 16t-76 47.488q-2.016 2.016-2.016 2.496l-146.496 146.016-69.504 70.016-120.992 120.512q-8 8-8 19.488v328h-27.488q-26.496 0-44.512 18.24t-18.016 44.256zM92.992 745.984q0-6.016 7.488-6.496h530.496q7.008 0 7.008 6.496v148q0 7.008-7.008 7.488h-530.496q-7.008 0-7.488-7.488v-148zM183.488 368l76.512-78.016q14.496 26.496 14.496 55.488 0 42.016-26.24 73.76t-64.736 40.736v-92zM183.488 516.512q30.496-4.992 57.76-20.512t46.496-38.016 30.496-51.744 11.264-60.736q0-52-28.512-95.488l65.504-66.496 122.016-122.016 256.992 258.496-188.512 188.992q-8 7.008-8 20.512-0.992 0.992-0.992 5.504v148.512h-364.512v-167.008zM529.504 24q26.496-19.008 57.504-28 25.504-7.008 51.488-7.488 5.504 0 11.488 0.512 32 2.016 61.76 15.488t54.24 38.016q25.504 26.496 39.264 59.264t13.76 69.76q0 60.512-35.488 107.488z" />
<glyph unicode="&#xe931;" glyph-name="uni8A" horiz-adv-x="896" d="M40 284q3.008 11.008 12 16.512l100.512 56.992-87.008 51.488q-10.016 6.016-12.736 17.248t3.744 20.736q4.992 10.016 16.256 12.992t21.248-3.008l114.016-66.496 71.488 40.992q-11.008 28.992-11.008 60v2.496q0 31.488 11.008 62.496l-71.488 42.016-114.016-66.496q-7.008-4-14.016-4.512-15.488 0-23.488 13.504-6.016 10.016-3.488 21.248t12.512 16.736l87.008 51.008-100.512 57.504q-8.992 5.504-12 16.512-0.992 3.488-0.992 7.488 0 7.008 4 14.016 4.992 10.016 16.256 12.992t21.76-3.008l98.016-56.512 0.992 97.504q0 11.488 8.256 19.488t19.744 8 19.488-8 8-19.488l-0.992-128.992 73.504-43.008q19.488 23.488 46.752 40t59.744 21.504v83.008l-114.496 64.512q-10.016 6.016-12.736 16.736t2.752 20.736q4.992 10.016 16.256 13.248t21.248-1.76l87.008-50.016v114.496q0 11.488 8.256 20t19.744 8.512 20-8 8.512-19.488v-113.504l84.992 48q10.016 4.992 20.992 2.016t16.992-13.504q4.992-10.016 2.016-20.736t-13.504-16.736l-111.488-63.488v-84q64.512-11.488 106.496-62.496l70.496 40.992-0.992 132q0 11.488 8.256 19.488t19.744 8 19.488-8 8-19.488l0.992-100.512 100.512 58.496q10.016 6.016 21.248 3.008t16.256-12.992q4.512-7.488 4.512-15.008 0-3.008-0.992-6.016-2.016-11.008-12.512-16.992l-100.512-57.504 84-50.016q10.016-4.992 12.736-16.512t-2.24-21.504q-8-13.504-23.488-13.504-8.992 0-14.496 4.512l-111.488 65.504-72-42.016q11.488-28.512 11.488-61.504 0-34.016-10.496-61.504l71.008-40.992 111.488 65.504q10.016 6.016 20.736 3.008t17.248-12.992q4.992-8.992 2.496-20.512t-12.992-17.504l-84-49.504 100.512-56.992q9.504-6.016 12.512-16.992 0.992-3.488 0.992-6.496 0-7.488-4.512-14.496-8-14.496-23.488-14.496-7.008 0-14.016 4l-100.512 58.496-0.992-101.504q0-11.488-8.256-19.008t-19.264-7.488q-11.488 0-19.744 8.256t-8.256 19.744l0.992 132-69.504 40q-20.512-24.512-47.488-40.992t-60-21.504v-83.008l111.488-63.488q10.016-6.016 13.248-16.736t-1.76-21.248q-8-14.496-24.512-14.496-8 0-13.504 4.512l-84.992 48v-116q0-11.488-8.256-19.488t-19.264-8q-11.488 0-20.256 8.256t-8.736 19.264v116.992l-87.008-48.992q-4.992-4-12.992-4.512-16.512 0-24.512 14.496-4.992 10.016-2.496 20.992t12.512 16.992l114.496 64.512v80.992q-32.992 4.992-60 21.248t-47.488 41.248l-72.512-42.016 0.992-128.992q0-11.488-8.256-19.744t-19.264-8.256q-11.488 0-19.744 7.744t-8.256 18.752l-0.992 98.496-98.016-57.504q-8-3.008-14.496-3.008-15.488 0-23.488 13.504-4 6.496-4 14.016 0 3.488 0.992 7.488zM323.488 493.984q0-24.512 9.248-46.016t25.76-38.016 38.016-25.76 46.016-9.248 46.016 9.248 37.76 25.76 25.504 38.016 9.248 46.016-9.248 46.016-25.504 37.76-37.76 25.504-46.016 9.248-46.016-9.248-38.016-25.504-25.76-37.76-9.248-46.016z" />
<glyph unicode="&#xe932;" glyph-name="uni8B" horiz-adv-x="896" d="M39.008 281.984q3.008 11.008 12 16.512l100.512 56.992-87.008 51.488q-10.016 6.016-12.736 17.248t3.744 20.256q4.992 10.016 16.256 13.248t21.248-2.752l114.016-66.496 180 103.488-180 104.512-114.016-67.008q-7.008-4-14.016-4-15.488 0-23.488 13.504-6.016 10.016-3.488 21.248t12.512 16.736l87.008 51.008-100.512 57.504q-8.992 5.504-12 16.512-0.992 3.488-0.992 7.488 0 7.008 4 13.504 4.992 10.016 16.256 13.248t21.76-2.752l98.016-56.512 0.992 97.504q0 11.488 8.256 19.488t19.744 8 19.488-8.256 8-19.264l-0.992-128.992 180-104.512v206.016l-114.496 64.512q-10.016 6.016-12.736 16.736t2.752 20.736q4.992 10.016 16.256 13.248t21.248-1.76l87.008-50.016v114.496q0 11.488 8.256 20t19.744 8.512 20-8 8.512-19.488v-113.504l84.992 48q10.016 4.992 20.992 2.016t16.992-13.504q4.992-10.016 2.016-20.736t-13.504-16.736l-111.488-63.488v-208l176.992 102.496-0.992 132q0 11.488 8.256 19.488t19.744 8 19.488-8.256 8-19.264l0.992-100.512 100.512 58.496q10.016 6.016 21.248 3.008t16.256-13.504q4-7.008 4-14.496 0-3.488-0.512-6.496-2.496-11.008-12.512-16.512l-100.512-57.504 84-50.016q10.016-4.992 13.248-16.512t-2.752-21.504q-8-13.504-23.488-13.504-8.992 0-14.496 4l-111.488 65.504-178.496-103.008 178.496-102.496 111.488 65.504q10.016 6.016 20.736 3.008t17.248-13.504q6.016-8.992 3.008-20.256t-13.504-17.248l-84-49.504 100.512-56.992q9.504-6.016 12.512-16.992 0.992-3.488 0.992-6.496 0-7.488-4.512-14.496-8-14.496-23.488-14.496-7.008 0-14.016 4l-100.512 58.496-0.992-101.504q0-11.488-8.256-19.008t-19.264-7.488q-11.488 0-19.744 8.256t-8.256 19.264l0.992 132.512-176.992 102.016v-207.488l111.488-63.488q10.016-6.016 13.248-16.992t-1.76-20.992q-8-14.496-24.512-14.496-8 0-13.504 4l-84.992 48.512v-116q0-11.488-8.256-19.488t-19.264-8q-11.488 0-20.256 8.256t-8.736 19.264v116.992l-87.008-49.504q-4.992-4-12.992-4-16.512 0-24.512 14.496-4.992 10.016-2.496 20.736t12.512 17.248l114.496 64.512v205.504l-180-104.512 0.992-128.992q0-11.488-8.256-19.488t-19.264-8q-11.488 0-19.744 7.744t-8.256 18.752l-0.992 98.496-98.016-57.504q-8-3.008-14.496-3.008-15.488 0-23.488 13.504-4 6.496-4 14.016 0 3.488 0.992 7.488z" />
<glyph unicode="&#xe933;" glyph-name="uni8C" horiz-adv-x="928" d="M20.512 339.008q0 29.504 11.264 55.744t30.752 45.76 46.016 30.752 56.512 11.264q17.504 0 38.016-4.992l303.008 409.504 0.992 0.992q25.504 30.496 58.752 47.488t70.24 16.992q29.504 0 56.736-11.744t49.248-32.736 38.24-48.992 23.744-62.016l82.016-52.512q12-8.512 12-22.496 0-15.488-12-24.512l-76.992-48.992v-146.496q0-54.496-16-103.008t-44-88-67.488-67.488-86.496-40.512h-3.008l-51.488-7.008q-0.992 0-2.016-0.992h-61.504v-93.504q0-11.488-8-19.488t-19.488-8-19.488 8.256-8 19.264v93.504h-36v-93.504q0-11.488-8.256-19.488t-19.264-8q-11.488 0-19.488 8.256t-8 19.264v93.504h-166.016q-65.504 0-108.512 48.992-36 39.008-36 95.008zM76 339.008q0-34.016 22.496-59.008 12.512-14.496 29.76-22.24t36.736-7.744h369.504l48 7.488q36.992 10.016 68.736 32.992t54.24 55.744 35.264 72.736 12.736 83.008v162.016q0 15.488 12.512 23.488l52.992 33.504-55.008 35.008q-10.016 7.008-13.504 19.488-4 25.504-14.752 47.488t-26.016 38.496-34.24 25.76-39.488 9.248q-48.992 0-86.016-43.008l-315.488-424.992q-4.992-8-14.752-10.752t-19.264 1.248q-18.496 8-35.488 8.512-18.496 0-35.008-7.264t-28.256-19.008-18.752-27.744-7.008-34.496zM193.504 308.256q0 9.248 4.992 17.76l252 343.008 3.008 3.008q34.016 34.016 86.016 42.016 4.992 0 9.76 0.512t9.76 0.512q51.008 0 88.512-30.24t43.488-76.256q0.992-8 0.992-15.488 0-28-15.008-55.008-19.008-34.016-55.488-53.504l-387.008-199.488q-6.016-3.008-13.504-3.008-13.504 0-20.512 8.992-7.008 8-7.008 17.248zM313.504 388.512l282.496 145.504q20.992 11.008 32 28.992 8.992 14.016 8.512 30.016 0 4-0.512 8.512-3.008 24.512-24.992 41.504t-52 16.992q-3.008 0-6.016-0.736t-7.008-0.736q-31.488-4.992-51.488-24.512zM644.992 777.504q0 11.488 7.488 19.008t19.008 7.488 19.744-7.488 8.256-19.008-8.256-19.488-19.744-8-19.008 8-7.488 19.488z" />
<glyph unicode="&#xe934;" glyph-name="uni8D" horiz-adv-x="960" d="M62.496-4v563.488q0 13.504 4 22.496 0 4 4 12l75.008 120.992q0.992 0 0.992 0.512t0.992 0.512q7.008 14.496 23.488 14.496h98.496v20.512q0 44.992 15.264 83.264t42.496 66.016 64.512 43.744 82.24 16q44 0 82.016-16t64.992-43.744 42.496-66.016 15.488-83.264v-20.512h99.008q20.512 0 26.016-19.488l72.512-116.992q3.008-4.992 3.008-8 7.008-12.512 7.488-26.496v-563.488q0-25.504-18.016-42.752t-43.488-17.248h-702.496q-25.504 0-43.008 17.248t-17.504 42.752zM118.016-4q0-4.992 4.992-4.992h702.496q4.992 0 4.992 4.992v563.488q0 4.992-4.992 4.992h-702.496q-4.992 0-4.992-4.992v-563.488zM152.512 620h116.992v55.008h-83.008zM325.504 620h298.016v55.008h-298.016v-55.008zM325.504 730.496h298.016v20.512q0 34.016-10.752 62.016t-30.752 48.512-47.488 31.744-60.512 11.264-60-11.264-47.008-31.744-30.752-48.736-10.752-61.76v-20.512zM679.008 620h116.512l-34.496 55.008h-82.016v-55.008z" />
<glyph unicode="&#xe935;" glyph-name="uni8E" horiz-adv-x="1056" d="M71.488 520.512l38.016 212.992q4.992 32.992 20.512 55.008t36.992 30.016q13.504 4.992 26.496 4.992 35.008 0 71.488-28.512l177.504-132.992q3.008 16.512 15.264 27.008t28.736 10.496h92q16.512 0 28.736-10.752t15.264-25.76l176.992 132q36.992 28.512 72 28.512 13.504 0 26.496-4.992 21.504-8 36.256-30.24t21.248-53.76l36.992-214.016q2.016-14.016 2.016-27.008-0.512-16.512-3.488-30.496-6.016-26.016-23.488-40-22.496-20.512-56.992-20.512-10.016 0-20.992 2.24t-22.016 5.248l-141.504 43.008 226.496-226.496q8.512-8.512 8.512-18.496 0-5.504-2.496-11.008-7.008-17.504-24.512-17.504l-75.008-4-4-76q-2.016-17.504-17.504-23.488-6.016-2.016-10.016-2.016-11.488 0-19.488 8l-275.488 275.488-275.488-275.488q-8-8-19.488-8-4 0-10.016 2.016-17.504 7.008-17.504 23.488l-4 76-76 4q-8 0-14.752 4.512t-8.736 12.992q-2.496 6.016-2.496 11.008 0 10.016 8.512 18.496l226.496 226.496-141.504-43.008q-11.488-3.008-22.016-5.248t-22.016-2.24q-32.992 0-56.992 19.488-27.488 25.504-27.488 69.504 0 13.504 2.496 28.992zM125.504 480q2.496-11.008 7.488-16 7.008-4.992 20.512-4.992 14.496 0 27.488 4l257.504 79.008v54.496l-206.016 154.496q-22.496 16.512-39.008 16.512-4.992 0-6.016-1.504-6.016-2.016-12.736-11.744t-10.752-29.76l-36.992-212.992q-2.496-12.512-2.496-21.504 0-5.504 0.992-10.016zM195.488 230.496l34.016-0.992q13.504-2.016 20.512-8.992 8.992-8.992 8.992-21.504l2.016-34.016 238.496 239.008v2.016l-64.512 65.504zM496.512 508h72v136.512h-72v-136.512zM531.488 452.992l0.992-0.992 0.992 0.992h-2.016zM564.992 404l238.016-239.008 2.016 34.016q0.992 12.512 8.992 21.504 8.992 7.008 21.504 8.992l34.016 0.992-239.488 240.992-64.992-65.504v-2.016zM626.496 541.984l256.992-79.008q14.016-4.512 26.496-4.512h2.496q13.504 0.512 18.496 5.504 4.992 4 7.488 15.488 0.992 4.992 0.992 12.512 0 8.512-1.504 19.488l-38.016 212.992q-3.008 20.512-10.24 30.016t-12.256 11.488q-3.488 1.504-7.488 1.504-4.992 0-12-2.496-12-4-25.504-14.016l-206.016-154.496v-54.496z" />
<glyph unicode="&#xe936;" glyph-name="uni8F" horiz-adv-x="1120" d="M49.504 181.504q-0.992 12.512-0.992 24 0 17.504 2.496 33.504 3.488 26.496 9.504 44.512t7.008 20q4 11.488 14.24 15.488t21.76 0q11.488-4.992 16-15.488t-0.512-21.504q-3.008-8-7.744-24t-6.752-34.016q-0.992-8.992-0.992-18.016t0.992-18.016q2.016-18.496 11.008-32 19.488-28.512 76-28.512h171.008q0.992 0.992 0.992 3.008l36 75.488h-72.992q-22.496 0-39.264 11.264t-23.264 30.752l-73.504 218.016-31.008 4.512q-11.488 0.992-18.496 10.24t-4.992 20.256q2.016 11.488 10.752 18.496t20.256 4.992l48-6.016q17.504-2.016 22.496-18.496l79.008-234.496q2.016-3.008 5.504-3.488t4.512-0.512h499.008q2.016 0 2.016 3.008l109.504 428.992h-47.008q-30.496 0-67.488-14.752t-71.264-39.488-61.504-58.016-38.24-69.76l-35.008-111.008q-2.016-8.992-9.76-14.24t-16.736-5.248h-228.512q-11.488 0-19.488 8.256t-8 19.744 8 19.488 19.488 8h208l28.512 91.008q14.496 47.008 47.744 87.488t74.752 70.24 86.016 46.752 83.488 16.992h83.008q13.504 0 21.504-10.496 8.992-10.016 4.992-24.512l-119.008-464v-0.992q-4.992-18.496-19.264-30.24t-31.744-12.736h-65.504l35.488-75.488q0.992-0.992 1.504-3.008h232.992q11.488 0 19.744-8.256t8.256-19.744-8.256-19.488-19.744-8h-842.496q-86.016 0-122.016 52.992-17.504 25.504-20 56.512zM424 127.488h316.512l-38.016 77.504v0.992h-241.504v-0.992z" />
<glyph unicode="&#xe937;" glyph-name="uni20AC" horiz-adv-x="928" d="M19.488 361.984v277.504q0 11.488 8 19.744t19.488 8.256h268.512l229.504 186.016q12.992 11.008 29.504 4.512 15.488-8.512 15.488-26.016v-663.488q0-17.504-15.488-24.512-6.016-3.008-12.512-3.008-9.504 0-16.992 6.016l-229.504 187.488h-268.512q-11.488 0-19.488 8t-8 19.488zM75.008 389.984h250.496q9.504 0 17.504-6.496l191.488-156.512v548l-191.488-156.992q-7.488-6.016-17.504-6.016h-250.496v-222.016zM621.504 387.008q-3.008 11.008 2.24 20.992t16.256 13.504q25.504 8.512 41.504 30.24t16 48.736q0 27.488-16 49.504t-41.504 30.496q-11.488 3.488-16.512 13.504t-2.016 20.992q4 11.008 14.016 16t20.992 1.504q43.008-14.016 69.504-50.24t26.496-81.76q0-44.512-26.496-80.736t-69.504-50.24q-4-2.016-8.512-2.016-8.992 0-16.256 5.248t-10.24 14.24zM661.504 253.504q-3.008 11.008 2.24 21.248t16.256 13.76q70.496 21.504 113.504 80t43.008 132q0 74.016-43.008 132.736t-113.504 80.256q-11.008 3.488-16.256 13.504t-2.24 20.992q3.488 11.008 13.76 16.256t21.248 2.24q88.512-27.488 142.016-100.512t53.504-165.504q0-91.488-53.504-164.736t-142.016-100.736q-2.016-0.992-8.512-0.992-8.992 0-16.256 5.248t-10.24 14.24z" />
<glyph unicode="&#xe938;" glyph-name="uni21" d="M36 756.512q0 52.992 20.512 100.992t55.488 82.496 83.008 55.008 100.992 20.512q62.016 0 118.016-28.512t92-78.016q36 49.504 92 78.016t118.016 28.512q52.992 0 100.992-20.512t83.008-55.008 55.488-82.496 20.512-100.992q0-34.496-7.008-67.488t-16.992-59.264-29.248-55.488-34.752-48.992-43.264-47.488-45.248-43.488-50.016-44.256q-52-46.496-79.744-72.256t-68.992-72-71.264-92.256q-8.992-12.512-23.488-12.512-13.504 0-22.496 12.512-23.488 34.496-50.016 65.76t-60.256 63.744-51.744 48.736-57.504 50.752q-34.496 30.016-52 46.016t-46.24 44.256-43.744 47.744-34.24 48.992-28.736 56-16.256 60.512-6.752 70.496zM91.008 756.512q0-22.016 2.496-42.24t8.512-39.744 11.744-35.488 17.504-34.24 20.256-31.264 24.992-31.008 26.752-28.992 30.752-29.76 31.488-28.736 34.496-30.496q48.512-42.496 71.488-63.488t63.488-62.752 71.008-81.248q29.504 40.512 68.736 82.496t66.496 67.264 71.264 64.256q84.992 76 116.512 111.008 72.512 80.512 87.008 163.488 4.512 24.512 4.512 51.008 0 84.512-60 144t-144.512 59.488q-59.488 0-109.76-32t-74.752-85.504q-8.512-15.488-25.504-15.488-17.504 0-24.512 15.488-25.504 53.504-76 85.504t-109.504 32q-84.512 0-144.736-59.744t-60.256-143.744z" />
<glyph unicode="&#xe939;" glyph-name="uni22" horiz-adv-x="960" d="M21.504 692.992q6.496 18.496 26.496 18.496h305.504l100 288.512q6.496 18.496 27.008 18.496 20 0 26.496-18.496l100-288.512h305.504q8.992 0 16.256-4.992t9.248-13.504q7.008-19.488-8-31.008l-244.992-191.488 88-290.496q2.016-8 2.016-11.488 0-11.488-8-19.488t-19.488-8q-8 0-16.512 4.992l-250.496 175.008-251.008-175.008q-16.512-10.016-32.992 0-15.008 11.488-10.016 31.008l88.992 293.504-244.992 191.488q-14.016 11.008-8.992 31.008zM128 656l196.512-153.504q6.496-4.992 9.248-13.504t0.256-16l-71.008-235.488 202.016 140q15.008 10.016 30.496 0l202.016-140-71.008 235.488q-2.496 7.488 0.256 16t9.248 13.504l196.512 153.504h-245.504q-19.488 0-26.016 18.496l-80.512 232.512-80.992-232.512q-6.496-18.496-25.504-18.496h-246.016z" />
<glyph unicode="&#xe93a;" glyph-name="uni23" d="M30.496 290.496q-2.016 15.488 8.512 24.512l71.488 72q8 8 18.496 8l144.512 4.992 179.008 179.488-344.992 182.016q-12.992 6.496-14.496 20.512-2.016 14.016 7.488 23.488l72.512 72q10.496 10.496 26.496 7.008l434.496-124q22.016 23.008 54.016 55.008t38.016 36.992h0.992q31.008 27.008 70.24 48.992t74.24 22.016q33.504 0 57.504-22.496 17.504-18.016 21.504-42.496t-2.496-47.488-19.488-46.752-25.76-40.256-24.256-28l-90.016-90.016 124-434.496q3.488-15.488-7.488-26.496l-71.488-71.488q-8.992-10.496-23.488-8.512-14.016 1.504-20.512 14.496l-182.496 344.992-179.008-179.008-4.992-144.512q0-10.016-8.512-18.496l-71.488-71.488q-8-8-19.488-8h-4.992q-16 3.488-20.512 16.992l-73.504 176.512-176.512 73.504q-14.016 4.512-17.504 20.512zM107.488 304.992l148.512-61.504q11.488-4.992 14.496-15.488l62.496-148.512 34.496 35.008 4.992 144.512q2.016 11.488 8.512 18.016l212.992 212.992q10.496 10.496 24.512 7.488 12.992-1.504 19.488-14.496l182.016-344 34.016 33.504-123.008 434.496q-4.992 14.016 7.488 26.496l100.992 101.504q6.016 6.496 14.496 17.504t18.752 27.008 16.256 31.008 7.488 29.248-7.488 22.24q-4 6.016-17.504 6.016-19.008 0-48-15.264t-60.512-42.24l-2.016-0.992q-0.992-0.992-16.992-16.736t-39.488-39.264l-43.008-43.008q-12.512-12.512-26.496-7.488l-434.496 123.008-33.504-33.504 344-182.496q12.992-6.496 14.496-19.488 3.008-14.016-7.488-24.512l-212.992-212.992q-6.016-6.016-18.496-8l-144-5.504z" />
<glyph unicode="&#xe93b;" glyph-name="uni24" horiz-adv-x="608" d="M35.008 736v11.008q0 74.016 36.512 136.992t99.488 99.744 136.992 36.736 136.992-36.736 99.744-99.744 36.736-136.992v-18.016q-0.992-0.992-0.992-4.512v-7.008q-6.016-55.488-30.24-130.496t-60-152.992-67.744-140.992-66.016-123.488q-6.496-12.992-19.744-20.736t-28.736-7.744-28.256 7.744-19.744 20.736q-34.016 60.512-66.016 123.488t-67.744 140.992-60 152.992-30.24 130.496v11.488q-0.992 2.016-0.992 7.008zM90.016 737.984q0-4 0.992-4.992v-10.496q6.016-52.992 31.488-128.512t62.016-153.76 65.76-135.488 57.76-108.256q29.504 52.512 58.24 108.512t65.76 134.752 62.496 154.24 31.008 128.512v6.496q0 2.016 0.992 3.008v15.008q0 90.016-64 154.24t-154.496 64.256q-90.016 0-154.016-64.256t-64-154.24v-8.992zM208 735.008q0 41.504 29.248 71.008t70.752 29.504 71.008-29.504 29.504-71.008-29.504-71.008-71.008-29.504-70.752 29.504-29.248 71.008zM263.008 735.008q0-18.496 13.248-31.744t31.744-13.248 32 13.248 13.504 31.744-13.504 31.744-32 13.248-31.744-13.248-13.248-31.744z" />
<glyph unicode="&#xe93c;" glyph-name="uni25FC" horiz-adv-x="800" d="M0 140.992v814.016h814.016v-814.016h-814.016z" />
<glyph unicode="&#xe93d;" glyph-name="uni26" horiz-adv-x="1056" d="M58.496 228v563.008q0 19.488 18.496 26.016l259.008 88.992h0.992q0.992 0.992 3.008 0.992h3.008q0.512 0 0.992 0.512t0.992 0.512q0-0.992 0.992-0.992h4.992l2.496-0.992q0.512 0 1.504-0.512t1.504-0.512h0.992l278.496-139.488 311.008 137.504q14.016 6.016 27.008-2.016 12-7.488 12-22.496v-574.496q0-20-17.504-26.016l-320.512-130.016q-7.488-6.016-16.992-6.016-12 0-20.512 10.496l-264.512 134.016-251.008-84.992q-15.008-3.488-25.504 4-11.008 8-11.008 22.496zM113.504 267.008l204 68.512v506.016l-204-70.496v-504zM372.512 335.488l230.496-117.504v502.496l-230.496 115.008v-500zM658.496 212.512l272.512 109.504v513.504l-272.512-120v-503.008z" />
<glyph unicode="&#xe93e;" glyph-name="uni27" horiz-adv-x="640" d="M43.008 290.496v273.504q0 72.992 34.24 136.256t93.76 103.008 132 46.24q-3.008 76-35.488 105.504-3.488 3.008-7.264 5.248t-7.008 3.744-7.008 2.752-6.752 2.016-6.24 1.248-5.504 0.736-4.512 0.256-3.744-0.256-2.496-0.256h-0.992q-11.008-1.504-20.256 4.736t-11.264 17.76 4.512 20.736 18.016 10.752q3.008 1.504 16 2.016t36.992-6.496 43.008-24q52.512-44 55.488-146.496 110.016-11.008 184.512-92.992t74.496-192.512v-273.504q0-58.496-22.752-111.744t-60.992-91.744-91.264-61.248-111.488-22.752h-1.504q-119.008 0-202.496 83.488-84 85.504-84 204zM98.496 290.496q0-95.488 68.512-164t164-68.512q63.008 0 116.256 31.264t84 84.736 30.752 116.512v273.504q0 90.496-62.016 157.504t-152 74.016h-30.496q-92-4.512-155.488-71.744t-63.488-159.744v-273.504zM256 535.008v116q0 28 19.488 47.264t47.008 19.264h16.512q27.008 0 46.24-19.488t19.264-47.008v-116q0-27.008-19.264-46.24t-46.24-19.264h-16.512q-27.488 0-47.008 19.488t-19.488 46.016zM311.488 535.008q0-4 3.008-7.008 6.016-3.008 8-3.008h16.512q4 0 7.008 3.008t3.008 7.008v116q0 4.512-3.008 7.264t-7.008 2.752h-16.512q-4.512 0-7.744-2.752t-3.264-7.264v-116z" />
<glyph unicode="&#xe93f;" glyph-name="uni28" horiz-adv-x="1056" d="M67.488 30.496v911.488q0 11.488 8 19.488t19.488 8 19.744-8 8.256-19.488v-884h883.488q11.488 0 19.488-8t8-19.488-8-19.488-19.488-8h-911.488q-11.488 0-19.488 8t-8 19.488zM170.016 157.504v208q0 24.992 17.504 42.496t43.008 17.504h119.488q24.992 0 42.752-17.76t17.76-42.24v-208q0-25.504-17.76-43.008t-42.752-17.504h-119.488q-25.504 0-43.008 17.504t-17.504 43.008zM225.504 157.504q0-4.992 4.992-4.992h119.488q5.504 0 5.504 4.992v208q0 1.504-2.016 3.264t-3.488 1.76h-119.488q-4.992 0-4.992-4.992v-208zM460.992 157.504v466.016q0 24.512 17.504 42.24t42.496 17.76h120q25.504 0 43.008-17.504t17.504-42.496v-466.016q0-25.504-17.504-43.008t-43.008-17.504h-120q-24.992 0-42.496 17.504t-17.504 43.008zM516 157.504q0-4.992 4.992-4.992h120q4.992 0 4.992 4.992v466.016q0 4.992-4.992 4.992h-120q-4.992 0-4.992-4.992v-466.016zM751.488 157.504v603.008q0 24.512 17.76 42.496t42.752 18.016h120q25.504 0 43.008-17.76t17.504-42.752v-603.008q0-25.504-17.504-43.008t-43.008-17.504h-120q-24.992 0-42.752 17.504t-17.76 43.008zM807.008 157.504q0-4.992 4.992-4.992h120q4.992 0 4.992 4.992v603.008q0 4.992-4.992 4.992h-120q-1.504 0-3.264-1.76t-1.76-3.264v-603.008z" />
<glyph unicode="&#xe940;" glyph-name="uni29" horiz-adv-x="1056" d="M43.008 460.512q0 92.992 36.256 177.504t97.504 145.504 146.016 97.248 177.76 36.256v-456.512h456.992q0-92.992-36.256-177.76t-97.504-146.016-145.76-97.504-177.504-36.256-177.76 36.256-146.016 97.504-97.504 146.016-36.256 177.76zM98.496 460.512q0-82.016 31.744-156.512t85.76-128.256 128.256-85.76 156.256-32q99.488 0 186.24 45.76t142.496 124.736 68.736 175.488h-453.504v454.016q-96.512-12.992-175.488-68.736t-124.736-142.496-45.76-186.24zM562.016 519.008v456.512q92.992 0 178.016-36.256t146.24-97.248 97.504-145.504 36.256-177.504h-458.016z" />
<glyph unicode="&#xe941;" glyph-name="uni30" horiz-adv-x="1120" d="M51.008 195.488v497.504q2.496 23.008 19.744 39.008t40.736 16h551.008v-56h-551.008q-4.992 0-4.992-4.992v-485.504q0-4.992 4.992-4.992h666.496q2.016 0 3.744 1.76t1.76 3.264v164.992h55.008v-164.992q0-24.992-17.504-42.752t-43.008-17.76h-666.496q-23.488 0-40.736 15.744t-19.744 38.752zM466.016 473.984q62.016 99.008 170.016 164 88 52.992 192.512 71.488v96.992q0 18.496 17.504 25.504 18.016 7.008 29.504-6.016l190.496-190.496q8-8 8-19.488t-8-19.488l-190.496-189.504q-8-8-19.488-8-4 0-10.016 2.016-17.504 7.008-17.504 25.504v94.496h-18.496q-46.016 0-93.76-8.512t-80-18.496-65.76-24.512-43.744-20-20.736-12q-0.512 0-0.992-0.512-7.488-4.992-17.248-4t-16.736 7.008q-15.008 15.008-4.992 34.016zM595.008 539.488q107.488 36.512 215.008 36.512 32.512 0 48.992-2.016 10.496-0.512 17.504-8.512t7.008-19.008v-52.992l124 122.496-124 124v-54.016q0-11.008-6.752-18.752t-16.736-9.248q-151.008-21.504-264.992-118.496z" />
<glyph unicode="&#xe942;" glyph-name="uni31" horiz-adv-x="1088" d="M92.992 560.512q25.504 113.504 103.488 202.016l-77.504 76.992 194.496-2.016v-191.488l-78.016 77.504q-67.488-77.504-89.248-177.248t6.496-198.24 102.24-172q57.504-58.016 131.264-88t153.248-30.016v-55.008q-90.016 0-174.016 34.24t-149.504 99.744q-84.512 84.512-116.512 197.248t-6.496 226.24zM539.488 863.008v56q88.992 0 172.992-34.24t149.504-99.744q84.512-84.512 116.512-197.248t6.496-226.24-103.488-202.016l78.016-78.016-194.496 3.008v190.496l78.016-76.512q67.488 77.504 88.992 176.992t-6.752 198.016-101.76 172.512q-57.504 57.504-131.488 87.264t-152.512 29.76z" />
<glyph unicode="&#xe943;" glyph-name="uni32" d="M44.992 461.504q0 92.992 36.256 177.504t97.504 145.504 146.24 97.248 178.016 36.256 177.504-36.256 145.504-97.248 97.248-145.504 36.256-177.504-36.256-177.76-97.248-146.016-145.504-97.504-177.504-36.256-178.016 36.256-146.24 97.504-97.504 146.016-36.256 177.76zM100.512 461.504q0-108.992 54.016-201.76t146.752-146.752 201.76-54.016q74.016 0 141.504 26.24t121.504 73.248l-566.496 566.016q-47.008-54.016-72.992-121.504t-26.016-141.504zM238.496 763.488l566.496-566.016q47.008 54.016 72.992 121.76t26.016 142.24q0 108.512-53.76 200.992t-146.24 146.496-200.992 54.016q-74.496 0-142.496-26.24t-122.016-73.248z" />
<glyph unicode="&#xe944;" glyph-name="uni33" d="M44.992 460.512q0 92.992 36.256 177.504t97.504 145.504 145.76 97.248 177.504 36.256 177.76-36.256 146.016-97.248 97.504-145.504 36.256-177.504-36.256-177.76-97.248-146.016-145.504-97.504-177.504-36.256h-0.992q-92.992 0-177.504 36.256t-145.76 97.504-97.504 146.016-36.256 177.76zM101.504 432.992q6.496-98.496 57.504-181.76t134.016-134.496 180.992-57.76v131.008q0 11.488 8.512 19.744t19.488 8.256q11.488 0 20-8.256t8.512-19.744v-131.008q98.016 6.496 180.992 57.76t134.016 134.496 57.504 181.76h-131.008q-11.488 0-19.488 8t-8 19.488q0 11.008 8 19.264t19.488 8.256h131.008q-6.496 98.016-57.504 180.992t-134.016 134.24-180.992 57.76v-131.008q0-11.488-8.512-19.744t-20-8.256q-11.008 0-19.488 8.256t-8.512 19.744v131.008q-98.016-6.496-180.992-57.76t-134.016-134.24-57.504-180.992h131.008q11.488 0 19.488-8.256t8-19.264q0-11.488-8-19.488t-19.488-8h-131.008z" />
<glyph unicode="&#xe945;" glyph-name="uni34" horiz-adv-x="960" d="M11.488 469.504l135.008 135.488v-109.504h300.992v300.992h-109.504l139.008 135.008 135.488-135.008h-109.504v-300.992h300.992v109.504l135.008-135.488-135.008-139.008v109.504h-300.992v-300.992h109.504l-135.488-135.008-139.008 135.008h109.504v300.992h-300.992v-109.504z" />
<glyph unicode="&#xe946;" glyph-name="uni35" horiz-adv-x="864" d="M6.016 140.992v194.496l76.992-78.016 356.512 355.488 316 316.512-77.504 78.016h194.496v-193.504l-78.016 76.512-316.512-316.512-38.496-39.008-316.512-316 76.512-78.016h-193.504z" />
<glyph unicode="&#xe947;" glyph-name="uni36" horiz-adv-x="1056" d="M27.008 564.736q-2.496 11.264 3.488 20.736 84.992 127.488 219.008 199.488t286.016 72q152.992 0 286.752-72t218.24-199.488q6.016-9.504 4-20.736t-11.488-17.248q-10.016-6.496-21.248-4.512t-17.248 11.488q-76.992 116-198.752 181.504t-260.256 65.504q-138.016 0-259.488-65.504t-199.008-181.504q-7.488-12-22.496-12-9.504 0-15.488 4.992-9.504 6.016-12 17.248zM156.992 478.24q-2.016 11.264 4 21.248 63.008 94.496 162.24 147.488t212.256 52.992q113.504 0 212.736-52.992t162.24-147.488q6.496-10.016 4.256-20.992t-11.744-18.016q-10.016-6.016-20.992-4t-17.504 12q-55.008 83.008-142.496 129.76t-186.496 46.752-186.24-46.752-142.24-129.76q-7.488-12-22.496-12-10.016 0-15.488 4-10.016 6.496-12 17.76zM294.016 387.264q-2.016 11.264 4 21.248 39.488 60 102.752 94.016t134.752 34.016q72 0 134.752-34.016t102.752-94.016q6.496-10.016 4.512-20.992t-11.488-18.016q-10.016-6.016-20.992-3.744t-18.016 11.744q-32.512 48.512-82.752 75.488t-108.736 27.008q-58.016 0-108.736-27.008t-82.752-75.488q-7.488-12-22.496-12-10.016 0-15.488 4-10.016 6.496-12 17.76zM427.008 250.496q0 32.512 17.504 60.512 15.488 23.008 39.488 36t51.488 12.992 51.488-12.992 39.488-36q18.496-27.488 18.496-60.512 0-34.496-18.496-60.512-15.488-23.008-39.488-36t-51.488-12.992-51.488 12.992-39.488 36q-17.504 26.496-17.504 60.512zM482.496 250.496q0-15.008 8-29.504 16-24.512 44.992-24.512t44.992 24.512q9.504 14.496 9.504 29.504 0 15.488-9.504 30.016-15.008 23.488-44.992 23.488t-44.992-23.488q-8-14.496-8-30.016z" />
<glyph unicode="&#xe948;" glyph-name="uni37" horiz-adv-x="832" d="M29.504 844.512q-1.504 12 4.736 21.504t17.76 11.488q149.504 30.016 295.008-13.76t252.992-151.264q108-108.512 152-254.016t14.016-295.008q-2.016-11.488-11.744-17.76t-21.248-3.744q-6.016 0.992-14.016 7.008-10.496 10.496-7.488 26.016 27.008 135.488-12.992 267.744t-137.504 229.76q-97.504 98.496-229.504 138.24t-268.992 12.256q-11.008-2.496-20.992 4t-12 17.504zM61.504 692q-2.496 11.488 3.744 20.992t17.76 11.488q111.488 22.016 219.264-10.24t188.256-112.256q80-80 112.512-188.256t9.504-219.744q-1.504-11.488-11.264-17.76t-20.736-3.744q-4.992 0.992-14.016 7.488-10.016 10.016-8.512 25.504 20 97.504-8.512 192.256t-99.008 165.248q-69.504 69.504-164.256 98.016t-193.248 9.504q-11.008-2.496-20.256 3.744t-11.264 17.76zM64.512 304.992q7.488 32.512 29.504 56 26.016 24.512 56.512 30.016 27.008 4.992 53.248-3.008t45.248-27.008q42.016-42.016 29.504-99.008-6.016-32-29.504-55.488t-55.488-29.504q-27.488-5.504-53.504 2.24t-44.992 27.264q-20 19.008-28 45.248t-2.496 53.248zM94.016 529.984q-2.496 11.488 3.744 21.248t17.76 11.744q70.016 14.496 138.752-6.24t119.744-71.744q50.496-50.496 71.008-119.008t6.496-139.008q-2.016-11.488-11.488-17.76t-20.992-3.744q-7.008 1.504-14.496 7.008-10.016 10.016-7.008 26.016 11.488 56.992-4.992 111.744t-57.504 95.744q-42.016 40.992-96.736 57.504t-112.256 4.992q-11.008-2.496-20.736 4t-11.264 17.504zM119.008 294.496q-4.992-30.496 15.008-48.992 20.992-20.992 48.512-14.496 16.512 3.008 27.488 14.496 11.008 11.008 14.496 27.488 6.496 28.512-14.496 48-19.008 20.512-48.992 15.488-16.512-3.488-27.008-15.488-12-10.496-15.008-26.496z" />
<glyph unicode="&#xe949;" glyph-name="uni38" horiz-adv-x="832" d="M66.496 162.496q-30.016 149.504 13.76 295.008t151.264 254.016q107.488 107.488 252.992 151.008t296 13.504q11.008-2.496 17.248-11.744t4.256-20.736q-2.496-11.008-12-17.248t-20.992-4.256q-135.488 27.488-267.744-12.256t-230.752-138.24q-97.504-97.504-137.248-229.76t-12.256-267.744q1.504-16-8.512-26.016-5.504-5.504-14.016-7.008-11.008-2.496-20.512 3.744t-11.488 17.76zM219.008 192.992q-22.016 111.488 10.496 219.744t112.512 188.256 187.488 112.256 219.008 10.24q11.488-2.496 18.016-11.744t4.512-20.736-11.744-17.76-20.736-3.744q-97.504 19.008-192.736-9.504t-164.736-98.016q-70.016-70.496-98.752-165.504t-8.736-192q3.488-15.488-8.512-25.504-6.016-6.016-12.992-7.488-11.488-2.496-21.248 3.744t-11.744 17.76zM380 225.984q-14.016 70.496 6.496 139.008t71.008 119.008q51.008 51.008 120 71.744t139.488 6.24q11.008-2.496 17.248-12t4.256-20.992q-2.496-11.008-12-17.248t-20.992-4.256q-56.992 11.488-112-4.992t-96-57.504q-41.504-40.512-58.016-95.264t-5.504-112.256q3.008-16-7.008-26.016-8-6.016-14.496-7.008-11.008-2.496-20.736 3.744t-11.744 17.76zM552.992 260.992q-11.008 56.992 29.504 99.008 19.008 19.008 45.504 27.008t54.016 3.008q29.504-6.016 55.488-30.016 23.488-23.488 29.504-56 5.504-27.008-2.496-53.248t-27.008-45.248q-19.008-19.488-45.504-27.264t-54.016-2.24q-32.512 6.496-55.488 29.504-23.488 23.488-29.504 55.488zM607.008 272q3.008-16.512 14.496-27.488 13.504-11.488 27.488-14.496 27.008-6.016 49.504 14.496 19.008 19.008 14.016 48.992-3.008 15.488-14.016 26.496-12.512 12.512-28 15.488-28.512 4.992-48.992-15.488t-14.496-48z" />
<glyph unicode="&#xe94a;" glyph-name="uni39" horiz-adv-x="832" d="M24.992 315.008q0 48 33.504 82.016l154.496 154.496q32.992 32.992 79.744 34.016t81.248-31.008l-38.016-39.488q-17.504 16-42.016 15.488t-42.016-18.016l-154.496-154.496q-17.504-17.504-17.504-43.008t17.504-43.008l58.016-57.504q17.504-17.504 43.008-17.504t43.008 17.504l155.008 155.008q16.992 16.992 17.504 41.248t-16.512 41.76l40.992 37.504q31.488-34.496 30.496-80.992t-34.016-79.488l-154.496-154.496q-33.504-34.016-82.016-34.016t-82.016 34.016l-58.016 58.016q-33.504 34.016-33.504 82.016zM289.504 434.496q0 11.488 8.512 19.008l200.512 200.512q7.488 8.512 19.008 8.512t20-8.512q7.488-7.488 7.488-19.488t-7.488-19.488l-200.512-200.512q-7.488-7.488-19.488-7.488t-19.488 7.488q-8.512 8.512-8.512 20zM366.496 659.264q0.992 46.752 34.016 79.744l154.496 154.496q34.016 33.504 82.016 33.504t82.016-33.504l58.016-58.016q34.016-34.016 34.016-82.016t-34.016-82.016l-154.496-154.496q-32.992-32.992-79.488-34.016t-80.992 30.496l37.504 40.992q17.504-16.992 41.76-16.512t41.248 17.504l155.008 155.008q18.016 16.512 18.016 43.008t-18.016 43.008l-57.504 58.016q-17.504 17.504-43.008 17.504t-43.008-17.504l-154.496-154.496q-17.504-17.504-18.016-42.016t15.488-42.016l-39.488-38.016q-32 34.496-31.008 81.248z" />
<glyph unicode="&#xe94b;" glyph-name="uni40" d="M54.496 63.008v346.496q0 25.504 17.248 42.752t42.752 17.248h62.496v496q0 24.992 17.504 42.496t43.008 17.504h258.016l0.992-0.992 357.504-356.992h0.992v-198.016h61.504q25.504 0 43.008-17.248t17.504-42.752v-346.496q0-25.504-17.504-42.752t-43.008-17.248h-802.016q-25.504 0-42.752 17.248t-17.248 42.752zM109.504 63.008q0-4.992 4.992-4.992h802.016q4.992 0 4.992 4.992v346.496q0 4.992-4.992 4.992h-802.016q-4.992 0-4.992-4.992v-346.496zM232.512 469.504h567.008v142.496h-296.512q-25.504 0-43.488 17.76t-18.016 42.752v298.016h-204q-4.992 0-4.992-4.992v-496zM455.488 313.984q0 11.488 8.256 19.488t19.744 8h343.008q11.488 0 19.488-8t8-19.488-8-19.488-19.488-8h-343.008q-11.488 0-19.744 8t-8.256 19.488zM496.512 672.512q0-1.504 2.24-3.264t4.256-1.76h272l-278.496 278.496v-273.504zM599.008 191.008q0 11.008 8 19.008t19.488 8h200q11.488 0 19.488-8t8-19.008q0-11.488-8-20t-19.488-8.512h-200q-11.488 0-19.488 8.512t-8 20z" />
<glyph unicode="&#xe94c;" glyph-name="uni41" horiz-adv-x="800" d="M68.512 63.008v901.504q0 24.992 17.504 42.496t43.008 17.504h259.008l0.992-0.992 356.512-356.992h0.992v-603.488q0-25.504-17.76-42.752t-42.752-17.248h-556.992q-25.504 0-43.008 17.248t-17.504 42.752zM124 63.008q0-4.992 4.992-4.992h556.992q4.992 0 4.992 4.992v548h-296.992q-25.504 0-42.752 17.76t-17.248 42.752v298.016h-204.992q-4.992 0-4.992-4.992v-901.504zM388.992 671.488q0-4.992 4.992-4.992h273.504l-278.496 278.496v-273.504z" />
<glyph unicode="&#xe94d;" glyph-name="uni42" horiz-adv-x="800" d="M68.512 63.008v901.504q0 24.992 17.504 42.496t43.008 17.504h259.008l0.992-0.992 356.512-356.992h0.992v-603.488q0-25.504-17.504-42.752t-43.008-17.248h-556.992q-25.504 0-43.008 17.248t-17.504 42.752zM124 63.008q0-4.992 4.992-4.992h556.992q4.992 0 4.992 4.992v548h-296.992q-25.504 0-42.752 18.016t-17.248 43.488v296.992h-204.992q-4.992 0-4.992-4.992v-901.504zM164.992 199.488v55.008h55.008v-55.008h-55.008zM164.992 331.488v55.488h55.008v-55.488h-55.008zM164.992 463.488v56.512h55.008v-56.512h-55.008zM263.008 227.008q0 11.488 8.256 19.488t19.744 8h331.488q11.488 0 19.488-8t8-19.488-8-19.488-19.488-8h-331.488q-11.488 0-19.744 8t-8.256 19.488zM263.008 359.008q0 11.488 8.256 19.744t19.744 8.256h331.488q11.488 0 19.488-8.256t8-19.744-8-19.488-19.488-8h-331.488q-11.488 0-19.744 8t-8.256 19.488zM263.008 492q0 11.008 8.256 19.488t19.744 8.512h331.488q11.488 0 19.488-8.512t8-19.488q0-11.488-8-20t-19.488-8.512h-331.488q-11.488 0-19.744 8.512t-8.256 20zM388.992 672.512q0-6.016 4.992-6.016h273.504l-278.496 278.496v-272.512z" />
<glyph unicode="&#xe94e;" glyph-name="uni43" d="M67.488 63.008v901.504q0 24.992 17.504 42.496t43.008 17.504h259.008l0.992-0.992 356.512-356.992h0.992v-223.488h-55.488v168h-296.992q-25.504 0-42.752 18.016t-17.248 43.488v296.992h-204.992q-4.992 0-4.992-4.992v-901.504q0-4.992 4.992-4.992h326.496v-55.008h-326.496q-25.504 0-43.008 17.248t-17.504 42.752zM164 144.992q0 11.488 8 19.488t19.488 8h199.488q11.488 0 19.744-8t8.256-19.488-8.256-19.488-19.744-8h-199.488q-11.488 0-19.488 8t-8 19.488zM164 268.992q0 11.488 8 19.488t19.488 8h199.488q11.488 0 19.744-8t8.256-19.488-8.256-19.488-19.744-8h-199.488q-11.488 0-19.488 8t-8 19.488zM164 392q0 11.488 8 19.488t19.488 8h430.016q11.488 0 19.488-8t8-19.488-8-19.744-19.488-8.256h-430.016q-11.488 0-19.488 8.256t-8 19.744zM164 516q0 11.488 8 19.488t19.488 8h430.016q11.488 0 19.488-8t8-19.488-8-19.744-19.488-8.256h-430.016q-11.488 0-19.488 8.256t-8 19.744zM388 672.512q0-6.016 4.992-6.016h273.504l-278.496 278.496v-272.512zM500.512 37.504l40.992 145.504q0.992 4 7.488 12.512l245.504 245.504 61.504 60.512q13.504 13.504 31.008 13.504 20 0 35.488-15.488l76.992-76.992q12.992-12.992 12.992-33.504-2.016-18.016-14.016-30.016l-60.512-60.512-247.008-246.496q-4.512-4.512-12-6.016l-144.512-42.016q-3.008-0.992-8-0.992-11.488 0-19.488 8t-8 17.504q0 4.512 1.504 8.992zM566.496 70.496l91.008 25.504 222.016 222.016-65.504 64.512-220.992-220.992zM852.992 421.504l65.504-64.512 34.016 35.008-64.512 64.512z" />
<glyph unicode="&#xe94f;" glyph-name="uni44" horiz-adv-x="864" d="M67.488 63.008v901.504q0 24.992 17.504 42.496t43.008 17.504h259.008l0.992-0.992 356.512-356.992h0.992v-358.496h-55.488v303.008h-296.992q-25.504 0-42.752 18.016t-17.248 43.488v296.992h-204.992q-4.992 0-4.992-4.992v-901.504q0-4.992 4.992-4.992h464v-55.008h-464q-25.504 0-43.008 17.248t-17.504 42.752zM388 672.512q0-6.016 4.992-6.016h273.504l-278.496 278.496v-272.512zM592 159.488h96v95.008h60.512v-95.008h95.488v-61.504h-95.488v-95.008h-60.512v95.008h-96v61.504z" />
<glyph unicode="&#xe950;" glyph-name="uni45" d="M65.504 201.504v640q0 24.992 17.504 42.752t43.008 17.76h310.016q24.992 0 42.752-18.016t17.76-42.496v-53.504h436.512v-0.992q22.016-1.504 37.76-16.992t17.248-36.992v-531.488q0-24.992-17.504-42.752t-43.008-17.76h-801.504q-25.504 0-43.008 17.76t-17.504 42.752zM120.992 201.504q0-4.992 4.992-4.992h801.504q2.016 0 3.744 1.76t1.76 3.264v531.488h-812v-531.488zM120.992 788h320.512v53.504q0 1.504-2.016 3.264t-3.488 1.76h-310.016q-4.992 0-4.992-4.992v-53.504z" />
<glyph unicode="&#xe951;" glyph-name="uni46" horiz-adv-x="960" d="M60.512 201.504v603.008q0 24.992 17.504 42.752t43.008 17.76h178.016v34.016q0 11.488 8 19.488t19.488 8 19.744-8 8.256-19.488v-34.016h234.496v34.016q0 11.488 8 19.488t19.488 8 19.488-8 8-19.488v-34.016h178.496q25.504 0 42.752-17.76t17.248-42.752v-603.008q0-24.992-17.248-42.752t-42.752-17.76h-701.504q-25.504 0-43.008 17.76t-17.504 42.752zM115.488 201.504q0-1.504 1.76-3.264t3.744-1.76h701.504q4.992 0 4.992 4.992v406.496h-712v-406.496zM115.488 663.008h712v141.504q0 4.992-4.992 4.992h-178.496v-12q0-11.488-8-19.744t-19.488-8.256-19.488 8.256-8 19.744v12h-234.496v-12q0-11.488-8.256-19.744t-19.744-8.256-19.488 8.256-8 19.744v12h-178.016q-5.504 0-5.504-4.992v-141.504zM193.504 250.496v120.992h120.992v-120.992h-120.992zM193.504 413.504v119.488h120.992v-119.488h-120.992zM356.512 413.504v119.488h120.512v-119.488h-120.512z" />
<glyph unicode="&#xe952;" glyph-name="uni47" horiz-adv-x="1056" d="M66.496 201.504v640q0 24.992 17.504 42.752t43.008 17.76h802.016q25.504 0 42.752-17.76t17.248-42.752v-640q0-24.992-17.248-42.752t-42.752-17.76h-802.016q-25.504 0-43.008 17.76t-17.504 42.752zM122.016 201.504q0-4.992 4.992-4.992h802.016q4.992 0 4.992 4.992v443.488h-812v-443.488zM122.016 700h812v141.504q0 4.992-4.992 4.992h-802.016q-4.992 0-4.992-4.992v-141.504zM170.016 772q0 11.488 8 19.488t19.488 8 19.744-8 8.256-19.488-8.256-19.744-19.744-8.256-19.488 8.256-8 19.744zM238.496 772q0 11.488 8 19.488t19.488 8 19.744-8 8.256-19.488-8.256-19.744-19.744-8.256-19.488 8.256-8 19.744zM307.008 772q0 11.488 8.256 19.488t19.744 8 19.488-8 8-19.488-8-19.744-19.488-8.256-19.744 8.256-8.256 19.744z" />
<glyph unicode="&#xe953;" glyph-name="uni48" horiz-adv-x="1056" d="M66.496 201.504v640q0 24.992 17.504 42.752t43.008 17.76h802.016q25.504 0 42.752-17.76t17.248-42.752v-640q0-24.992-17.248-42.752t-42.752-17.76h-802.016q-25.504 0-43.008 17.76t-17.504 42.752zM122.016 201.504q0-4.992 4.992-4.992h802.016q4.992 0 4.992 4.992v443.488h-812v-443.488zM122.016 700h812v141.504q0 4.992-4.992 4.992h-802.016q-4.992 0-4.992-4.992v-141.504zM170.016 772q0 11.488 8 19.488t19.488 8 19.744-8 8.256-19.488-8.256-19.744-19.744-8.256-19.488 8.256-8 19.744zM238.496 772q0 11.488 8 19.488t19.488 8 19.744-8 8.256-19.488-8.256-19.744-19.744-8.256-19.488 8.256-8 19.744zM285.504 414.496q0 15.488 12.512 23.488l147.488 92.992q9.504 7.008 20.736 4.512t17.248-12.512q6.016-9.504 3.488-20.736t-12-17.248l-110.496-70.496 110.496-70.496q9.504-6.016 12-17.504t-3.488-21.504q-8-12.512-23.488-12.512-8.992 0-15.488 4l-146.496 95.488q-12.512 8-12.512 22.496zM307.008 772q0 11.488 8.256 19.488t19.744 8 19.488-8 8-19.488-8-19.744-19.488-8.256-19.744 8.256-8.256 19.744zM569.504 326.496q2.016 11.488 12 17.504l110.496 70.496-110.496 70.496q-10.016 6.016-12 17.504-0.512 3.008-0.512 5.504 0 8 4.512 15.008 6.016 10.016 16.992 12 3.008 0.512 5.504 0.992 8 0 15.488-4.992l146.496-92.992q12.992-8 12.992-23.488 0-14.016-12-22.496l-147.488-95.488q-6.496-4-15.488-4-14.496 0-22.496 12.512-4.512 7.488-4.512 16 0 2.496 0.512 5.504z" />
<glyph unicode="&#xe954;" glyph-name="uni49" horiz-adv-x="1056" d="M59.488 201.504v603.008q0 24.992 17.504 42.752t43.008 17.76h228v75.488q0 11.488 8.256 19.744t19.744 8.256h289.504q11.488 0 19.488-8.256t8-19.744v-75.488h228.512q25.504 0 43.008-17.76t17.504-42.752v-603.008q0-24.992-17.504-42.752t-43.008-17.76h-801.504q-25.504 0-43.008 17.76t-17.504 42.752zM114.496 201.504q0-1.504 1.76-3.264t3.744-1.76h136v612.992h-136q-5.504 0-5.504-4.992v-603.008zM312.512 196.512h417.504v612.992h-417.504v-612.992zM403.488 864.992h234.496v48h-234.496v-48zM785.504 196.512h136q4.992 0 4.992 4.992v603.008q0 4.992-4.992 4.992h-136v-612.992z" />
<glyph unicode="&#xe955;" glyph-name="uni50" horiz-adv-x="672" d="M42.016 63.008v244.992q4.512 92.992 71.488 158.496t160 68.512h117.504q60.512-2.496 112.256-33.248t82.752-82.016 33.504-111.744v-12.512q0-28 0.512-28.256t0.512 28.256v-232.512q0-25.504-17.76-42.752t-42.752-17.248h-457.504q-25.504 0-43.008 17.248t-17.504 42.752zM97.504 152.512v-89.504q0-4.992 4.992-4.992h457.504q4.992 0 4.992 4.992l-0.992 232.512v10.496q-3.488 69.504-52.736 119.488t-118.24 54.496h-124.512q-71.488-5.504-121.248-58.496t-49.76-124.992v-144zM155.488 741.984q0 72.512 51.488 123.744t124 51.264q72.992 0 124.512-51.264t51.488-123.744q0-72.992-51.488-124.512t-124.512-51.488q-72.512 0-124 51.488t-51.488 124.512zM211.008 741.984q0-50.016 35.488-85.248t84.512-35.264q50.016 0 85.248 35.264t35.264 85.248q0 48.992-35.264 84.512t-85.248 35.488q-48.992 0-84.512-35.488t-35.488-84.512z" />
<glyph unicode="&#xe956;" glyph-name="uni51" horiz-adv-x="704" d="M17.504 168.512q0 11.488 8 19.744t19.488 8.256h613.504q11.488 0 19.488-8.256t8-19.744-8-19.488-19.488-8h-613.504q-11.488 0-19.488 8t-8 19.488zM17.504 345.984q0 11.488 8 20t19.488 8.512h613.504q11.488 0 19.488-8.512t8-20q0-11.008-8-19.488t-19.488-8.512h-613.504q-11.488 0-19.488 8.512t-8 19.488zM17.504 524q0 11.488 8 19.488t19.488 8h613.504q11.488 0 19.488-8t8-19.488-8-19.488-19.488-8h-613.504q-11.488 0-19.488 8t-8 19.488zM17.504 700.992q0 11.488 8 19.744t19.488 8.256h613.504q11.488 0 19.488-8.256t8-19.744-8-19.488-19.488-8h-613.504q-11.488 0-19.488 8t-8 19.488z" />
<glyph unicode="&#xe957;" glyph-name="uni52" horiz-adv-x="672" d="M31.488 703.008q0 61.504 24.256 117.76t65.248 96.992 98.016 64.736 119.008 24q83.488 0 154.24-40.736t111.744-110.752 40.992-152q0-55.008-26.496-117.504t-76.992-150.496q-10.496-18.496-25.504-60.512-13.504-40-24.512-56.512-8-12.992-23.488-12.992h-250.016q-14.496 0-22.496 11.008-14.016 19.488-34.496 69.504-16 41.504-28 61.504-51.488 84.992-76.512 142.752t-24.992 113.248zM87.008 703.008q0-45.504 23.008-96.992t70.016-130.016q11.488-18.496 32.992-70.016 9.504-27.008 20.512-46.016h218.016q7.008 15.488 12.512 32.992 14.016 43.488 29.504 69.504 47.008 82.016 71.744 138.752t24.736 101.76q0 67.008-33.76 124t-91.744 90.496-126.496 33.504q-68 0-125.76-33.504t-91.488-90.496-33.76-124zM226.496 245.504q0 11.488 8.512 19.488t20 8h167.008q11.488 0 19.488-8t8-19.488-8-19.488-19.488-8h-167.008q-11.488 0-20 8t-8.512 19.488zM277.504 168.512q0 11.488 8 19.744t19.488 8.256h65.504q12.512 0 20.736-8.256t8.256-19.744-8.256-19.488-20.736-8h-65.504q-11.488 0-19.488 8t-8 19.488z" />
<glyph unicode="&#xe958;" glyph-name="uni53" horiz-adv-x="704" d="M19.488 168.512q0 11.488 8 19.744t19.488 8.256h383.008q11.488 0 19.488-8.256t8-19.744-8-19.488-19.488-8h-383.008q-11.488 0-19.488 8t-8 19.488zM19.488 292.512q0 11.488 8 19.488t19.488 8h613.504q11.488 0 19.488-8t8-19.488-8-19.488-19.488-8h-613.504q-11.488 0-19.488 8t-8 19.488zM19.488 415.488q0 11.488 8 19.488t19.488 8h383.008q11.488 0 19.488-8t8-19.488-8-19.488-19.488-8h-383.008q-11.488 0-19.488 8t-8 19.488zM19.488 539.488q0 11.488 8 19.488t19.488 8h613.504q11.488 0 19.488-8t8-19.488-8-19.744-19.488-8.256h-613.504q-11.488 0-19.488 8.256t-8 19.744zM19.488 661.984q0 11.488 8 19.744t19.488 8.256h383.008q11.488 0 19.488-8.256t8-19.744-8-19.488-19.488-8h-383.008q-11.488 0-19.488 8t-8 19.488zM19.488 785.984q0 11.008 8 19.488t19.488 8.512h613.504q11.488 0 19.488-8.512t8-19.488q0-11.488-8-19.488t-19.488-8h-613.504q-11.488 0-19.488 8t-8 19.488z" />
<glyph unicode="&#xe959;" glyph-name="uni54" horiz-adv-x="704" d="M11.488 292.512q0 11.488 8 19.488t19.488 8h613.504q11.488 0 19.488-8t8-19.488-8-19.488-19.488-8h-613.504q-11.488 0-19.488 8t-8 19.488zM11.488 539.488q0 11.488 8 19.488t19.488 8h613.504q11.488 0 19.488-8t8-19.488-8-19.744-19.488-8.256h-613.504q-11.488 0-19.488 8.256t-8 19.744zM11.488 785.984q0 11.008 8 19.488t19.488 8.512h613.504q11.488 0 19.488-8.512t8-19.488q0-11.488-8-19.488t-19.488-8h-613.504q-11.488 0-19.488 8t-8 19.488zM127.008 168.512q0 11.488 8 19.744t19.488 8.256h382.016q11.488 0 19.488-8.256t8-19.744-8-19.488-19.488-8h-382.016q-11.488 0-19.488 8t-8 19.488zM127.008 415.488q0 11.488 8 19.488t19.488 8h382.016q11.488 0 19.488-8t8-19.488-8-19.488-19.488-8h-382.016q-11.488 0-19.488 8t-8 19.488zM127.008 661.984q0 11.488 8 19.744t19.488 8.256h382.016q11.488 0 19.488-8.256t8-19.744-8-19.488-19.488-8h-382.016q-11.488 0-19.488 8t-8 19.488z" />
<glyph unicode="&#xe95a;" glyph-name="uni55" d="M46.016 456.512v2.496q0 92 35.008 176 35.008 84.992 95.744 146.752t144.736 98.752 176.992 37.504h5.504q92 0 176.256-35.744t145.248-96.256 97.76-144.256 37.248-176.256v-4.992q-0.512-90.496-34.496-173.504-35.008-84.992-95.488-146.752t-144.992-98.752-177.504-37.504h-4.992q-92 0-176.256 35.744t-145.504 96.256-98.016 144.256-37.248 176.256zM120.992 582.496l51.008-15.488q8.512-2.016 14.016-9.504t5.504-16v-167.008q0-19.488-17.504-25.504l-50.016-20.512q30.016-88 96-152.512 14.016-14.016 44.992-39.008l35.008 44.992q7.488 10.496 20 10.496 4.512 0 9.504-1.504l159.008-47.008q18.496-4.512 20.512-26.496v-58.496q128 1.504 230.496 76.992l-28.992 43.008q-5.504 6.496-5.504 15.264t5.504 15.264l94.496 137.504q8 12 20.992 12 4.992 0 10.496-2.016l50.496-16.512q18.016 57.504 18.016 124 0 62.496-18.016 116.992l-58.496-20.512q-5.504-2.016-10.496-2.016-12.512 0-20.512 12l-96.992 135.008q-6.016 8-6.016 16 0 7.488 4.992 15.008l34.496 52.992q-104.992 72.992-228.992 72.992l0.992-59.488q0-19.488-19.488-26.496l-159.008-50.496q-4.512-1.504-8.992-1.504-12.512 0-20.512 11.008l-36.992 44.992q-102.496-76.992-140-198.496zM364.512 541.504q0 20 18.496 26.496l155.488 51.008q5.504 2.016 10.496 2.016 12 0 20.512-11.008l99.008-130.016q5.504-8.992 5.504-16.512 0-8.512-5.504-17.504l-99.008-134.016q-8.512-11.008-20.512-11.008-4.992 0-10.496 2.016l-153.504 48.992q-8.512 2.016-13.504 9.248t-4.992 16.256z" />
<glyph unicode="&#xe95b;" glyph-name="uni56" horiz-adv-x="960" d="M40.992 260q0 167.488 46.016 308 34.016 108 87.008 181.504 31.488 44.512 64.512 77.504 36.512 36.512 79.008 65.504 76.992 53.504 180.992 87.008 144.992 46.016 308.512 46.016h8q32 0 50.496-2.016 25.504-2.016 41.248-17.76t17.76-41.248q2.496-28.992 2.016-60 0-55.008-7.008-116.512-24.992-218.496-116.512-358.016-30.016-47.488-74.016-91.488l-0.992-0.992q-40.992-40.992-91.008-73.504-140.512-92-358.496-116.992-70.496-8-119.008-8-29.504 0-56.992 3.008-25.504 2.016-41.504 18.016t-18.016 41.504q-2.016 18.496-2.016 58.496zM96.512 260q0-36.992 0.992-53.504 0.992-5.504 3.008-7.264t7.008-1.76q28.992-3.488 52-3.488 41.504 0 112.992 8.512 200.992 21.504 334.496 107.488 44.512 30.496 82.016 66.496v0.992q36.512 36.512 66.496 82.016 87.008 133.504 108.992 335.008 7.008 59.008 7.008 110.496 0 28-2.016 54.016 0 9.504-9.504 9.504-15.488 2.016-44.992 2.016h-8q-156 0-292-44-97.504-31.008-166.016-79.008-34.496-24-71.488-59.488-36-38.016-58.496-70.496-48.512-70.496-79.488-167.008-43.008-136-43.008-290.496zM323.488 445.504q0 11.488 7.488 20l44.992 44-39.008 39.008q-7.488 8.512-7.488 20t7.488 19.008q8.512 8.512 20 8.512t19.008-8.512l38.496-38.016 31.008 30.016-38.016 37.504q-7.488 8.512-7.488 20t7.488 19.008q8.512 8.512 20 8.512t19.008-8.512l38.016-36.992 30.496 30.016-38.016 38.016q-8.512 8.512-8.512 19.744t8.512 18.752q8.512 8.512 20 8.512t19.008-8.512l38.016-36.512 44 44q8.512 8.512 20 8.512t20-8.512q7.488-8.512 7.488-20t-7.488-19.008l-44.992-44.992 39.008-39.008q8.512-7.488 8.512-19.008t-8.512-20q-8-8-19.488-8t-19.488 8l-39.008 39.008-30.496-30.496 38.496-38.016q8.512-8.512 8.512-20t-8.512-20q-8-8-19.488-8-11.008 0-19.008 8l-39.008 39.008-31.008-31.008 38.016-36.512q8.512-8.512 8.512-20t-8.512-20-19.488-8.512-19.488 8.512l-38.016 37.504-44-44q-8-8-19.488-8-12 0-20 8-7.488 7.488-7.488 19.008z" />
<glyph unicode="&#xe95c;" glyph-name="uni57" horiz-adv-x="992" d="M44 460.512q0 92.992 36.256 177.504t97.248 145.504 145.504 97.248 177.504 36.256 178.016-36.256 146.24-97.248 97.504-145.504 36.256-177.504-36.256-177.76-97.504-146.016-146.24-97.504-178.016-36.256-177.504 36.256-145.504 97.504-97.248 146.016-36.256 177.76zM99.488 460.512q0-82.016 31.744-156.512t85.504-128.256 128-85.76 155.744-32q108.992 0 201.76 54.016t146.752 146.752 54.016 201.76q0 108.512-54.016 200.992t-146.752 146.496-201.76 54.016q-108.512 0-200.992-54.016t-146.24-146.496-53.76-200.992zM400 214.24q0 11.264 7.488 19.744l223.488 223.488-223.488 229.504q-7.488 7.488-7.488 18.752t8.512 19.744q7.488 7.488 19.008 7.488t20-8.512l242.496-248.512q7.488-7.488 7.488-19.008t-7.488-20l-242.496-241.504q-8.512-8.512-19.488-8.512-12 0-20.512 8.512-7.488 7.488-7.488 18.752z" />
<glyph unicode="&#xe95d;" glyph-name="uni58" d="M42.016 470.496q0 139.008 76.512 256t204 173.504q11.008 4.512 21.76 0t16.256-15.488q4.512-11.008 0-21.76t-15.488-15.264q-112-48.992-178.752-151.744t-66.752-225.248q0-83.488 32.512-159.488t87.488-131.008 131.008-87.488 159.488-32.512 159.488 32.512 131.008 87.488 87.488 131.008 32.512 159.488q0 124-68.256 226.752t-182.752 151.264q-11.008 4.512-15.264 15.744t0.256 22.24 15.264 15.488 22.24 0q130.016-55.008 208-172.736t78.016-258.752q0-95.008-37.248-181.504t-99.744-149.248-149.248-99.744-181.76-36.992-181.76 36.992-149.248 99.744-99.744 149.248-37.248 181.504zM467.008 695.008v259.008q0 18.016 12.512 30.496t30.496 12.512q17.504 0 30.24-12.736t12.736-30.24v-259.008q0-17.504-12.736-30.24t-30.24-12.736q-18.016 0-30.496 12.512t-12.512 30.496z" />
<glyph unicode="&#xe95e;" glyph-name="uni59" d="M44.992 460.512q0 92.992 36.256 177.504t97.504 145.504 145.76 97.248 177.504 36.256 177.76-36.256 146.016-97.248 97.504-145.504 36.256-177.504-36.256-177.76-97.504-146.016-146.016-97.504-177.76-36.256-177.504 36.256-145.76 97.504-97.504 146.016-36.256 177.76zM100.512 460.512q0-108.992 54.016-201.76t146.496-146.752 200.992-54.016q82.016 0 156.256 32t128.256 85.76 85.76 128.256 31.744 156.512q0 81.504-31.744 155.744t-85.76 128-128.512 85.76-156 32q-108.512 0-200.992-54.016t-146.496-146.496-54.016-200.992zM228.992 551.488q0 12 7.488 19.488 8.512 8.512 20 8.512t20-7.488l228.512-223.008 223.008 222.016q8.512 8.512 20 8.512t19.008-8.512q8-6.496 8-19.488 0-11.488-8-19.488l-241.504-242.496q-8.512-7.488-20-7.488t-19.008 7.488l-248.992 242.496q-8.512 7.488-8.512 19.488z" />
<glyph unicode="&#xe95f;" glyph-name="uni60" d="M44.992 460.512q0 92.992 36.256 177.504t97.504 145.504 145.76 97.248 177.504 36.256 177.76-36.256 146.016-97.248 97.504-145.504 36.256-177.504-36.256-177.76-97.504-146.016-146.016-97.504-177.76-36.256-177.504 36.256-145.76 97.504-97.504 146.016-36.256 177.76zM100.512 460.512q0-108.992 54.016-201.76t146.496-146.752 200.992-54.016q82.016 0 156.256 32t128.256 85.76 85.76 128.256 31.744 156.512q0 81.504-31.744 155.744t-85.76 128-128.512 85.76-156 32q-108.512 0-200.992-54.016t-146.496-146.496-54.016-200.992zM239.008 688.256q1.504 8.256 7.008 13.76 14.016 14.016 29.504 7.488l347.008-123.008q6.016-1.504 10.496-6.496t6.016-11.008l112.512-336.992q6.496-16.512-7.008-28.512-7.008-7.008-18.496-7.008-7.008 0-10.016 2.016l-324.992 124.992q-10.496 4.512-15.008 15.008l-135.488 334.016q-3.008 7.488-1.504 15.744zM423.008 370.496l258.016-99.488-90.016 268.512-47.488-47.488q-1.504 3.008-4 5.504-15.488 15.488-37.248 15.488t-37.248-15.488-15.488-37.504 15.488-37.504q3.008-3.008 4.992-4z" />
<glyph unicode="&#xe960;" glyph-name="uni61" horiz-adv-x="800" d="M67.488 63.008v901.504q0 24.992 17.504 42.496t43.008 17.504h259.008l0.992-0.992 356.512-356.992h0.992v-603.488q0-25.504-17.76-42.752t-42.752-17.248h-556.992q-25.504 0-43.008 17.248t-17.504 42.752zM123.008 63.008q0-4.992 4.992-4.992h556.992q4.992 0 4.992 4.992v548h-296.992q-25.504 0-42.752 18.016t-17.248 43.488v296.992h-204.992q-4.992 0-4.992-4.992v-901.504zM164 227.008q0 11.488 8 19.488t19.488 8h430.016q11.488 0 19.488-8t8-19.488-8-19.488-19.488-8h-430.016q-11.488 0-19.488 8t-8 19.488zM164 359.008q0 11.488 8 19.744t19.488 8.256h430.016q11.488 0 19.488-8.256t8-19.744-8-19.488-19.488-8h-430.016q-11.488 0-19.488 8t-8 19.488zM164 492q0 11.008 8 19.488t19.488 8.512h430.016q11.488 0 19.488-8.512t8-19.488q0-11.488-8-20t-19.488-8.512h-430.016q-11.488 0-19.488 8.512t-8 20zM388 672.512q0-6.016 4.992-6.016h273.504l-278.496 278.496v-272.512z" />
<glyph unicode="&#xe961;" glyph-name="uni62" horiz-adv-x="800" d="M67.488 63.008v901.504q0 24.992 17.504 42.496t43.008 17.504h259.008l0.992-0.992 356.512-356.992h0.992v-603.488q0-25.504-17.76-42.752t-42.752-17.248h-556.992q-25.504 0-43.008 17.248t-17.504 42.752zM123.008 63.008q0-4.992 4.992-4.992h556.992q4.992 0 4.992 4.992v548h-296.992q-25.504 0-42.752 17.76t-17.248 42.752v298.016h-204.992q-4.992 0-4.992-4.992v-901.504zM164 329.504q0 15.008 12 23.488l147.488 92.992q9.504 6.016 20.736 3.744t17.248-11.744q6.016-10.016 3.744-21.504t-11.744-17.504l-111.008-69.504 111.008-72q10.016-6.016 12-17.248t-4-20.256q-8.512-13.504-23.488-13.504-8 0-14.496 4.992l-147.488 94.496q-12 7.488-12 23.488zM388 671.488q0-4.992 4.992-4.992h273.504l-278.496 278.496v-273.504zM448 240.512q2.016 11.008 12 16.992l110.496 72-110.496 69.504q-10.016 6.016-12 17.504l-0.992 6.016q0 8 4.512 15.488 6.016 10.016 16.992 12 3.008 0.512 6.016 0.512 8 0 15.008-4.512l147.488-92.992q12-8.512 12-23.488t-12-23.488l-147.488-94.496q-6.496-4.992-14.496-4.992-15.008 0-23.488 13.504-4.512 7.008-4.512 14.496z" />
<glyph unicode="&#xe962;" glyph-name="uni63" horiz-adv-x="864" d="M55.488 63.008v706.496q0 25.504 17.504 43.488t42.496 18.016h259.488v-0.992l235.488-284.512v-482.496q0-25.504-17.504-42.752t-43.008-17.248h-434.496q-24.992 0-42.496 17.248t-17.504 42.752zM110.496 63.008q0-4.992 4.992-4.992h434.496q4.992 0 4.992 4.992v428h-175.008q-24.992 0-42.752 17.504t-17.76 43.008v223.488h-204q-4.992 0-4.992-5.504v-706.496zM146.496 160.512q0 11.488 8 19.488t19.488 8h317.504q11.488 0 19.488-8t8-19.488-8-19.488-19.488-8h-317.504q-11.488 0-19.488 8t-8 19.488zM146.496 276q0 11.488 8 19.744t19.488 8.256h317.504q11.488 0 19.488-8.256t8-19.744q0-11.008-8-19.264t-19.488-8.256h-317.504q-11.488 0-19.488 8.256t-8 19.264zM146.496 392.992q0 11.488 8 19.488t19.488 8h317.504q11.488 0 19.488-8t8-19.488-8-19.488-19.488-8h-317.504q-11.488 0-19.488 8t-8 19.488zM266.016 865.984v97.504q0 25.504 17.76 42.752t42.752 17.248h259.008l235.488-284.512v-482.496q0-25.504-17.248-42.752t-42.752-17.248h-112v55.008h112q4.992 0 4.992 4.992v427.008h-175.008q-24.992 0-42.752 17.76t-17.76 42.752v224.512h-204q-4.992 0-4.992-4.992v-97.504h-55.488zM375.008 551.488q0-4.992 4.992-4.992h157.504l-162.496 196.512v-191.488zM585.504 744q0-1.504 2.016-3.264t3.488-1.76h157.504l-163.008 197.504v-192.512z" />
<glyph unicode="&#xe963;" glyph-name="uni64" horiz-adv-x="864" d="M67.488 63.008v901.504q0 24.992 17.504 42.496t43.008 17.504h259.008l0.992-0.992 356.512-356.992h0.992v-386.016h-55.488v330.496h-296.992q-25.504 0-42.752 18.016t-17.248 43.488v296.992h-204.992q-4.992 0-4.992-4.992v-901.504q0-4.992 4.992-4.992h556.992q4.992 0 4.992 4.992v49.504h55.488v-49.504q0-25.504-17.76-42.752t-42.752-17.248h-556.992q-25.504 0-43.008 17.248t-17.504 42.752zM388 672.512q0-6.016 4.992-6.016h273.504l-278.496 278.496v-272.512zM592 166.496v60.512h252v-60.512h-252z" />
</font>
</defs>
</svg>
