<?xml version="1.0" encoding="utf-8"?>
<!-- Generator: Adobe Illustrator 19.0.0, SVG Export Plug-In . SVG Version: 6.00 Build 0)  -->
<svg version="1.1" id="Слой_1" xmlns="http://www.w3.org/2000/svg" xmlns:xlink="http://www.w3.org/1999/xlink" x="0px" y="0px"
	 viewBox="0 0 60.9 60.1" style="enable-background:new 0 0 60.9 60.1;" xml:space="preserve">
<style type="text/css">
	.st0{fill:#CF0A2C;}
	.st1{fill:#FFFFFF;}
</style>
<g>
	<path id="XMLID_19_" class="st0" d="M55.5,60h-50c-2.8,0-5-2.2-5-5V5c0-2.8,2.2-5,5-5h50c2.8,0,5,2.2,5,5v50
		C60.5,57.8,58.3,60,55.5,60z"/>
</g>
<path class="st1" d="M41.2,35L41.2,35c-0.1,0.6-0.4,1.1-1,1.1c-0.5,0-0.8-0.2-1.1-0.6c-0.4-0.4-0.7-1.1-1-2
	c0.9-3.2,3.8-13.5,3.8-13.5h-5.5c0,0-0.5,2.6-1,4.7c0-0.1,0,0-0.1-0.1c-0.5-1-1.2-2-2-2.8c-1.4-1.3-3.1-1.9-5.1-1.9
	c-2.8,0-5.1,1-6.9,3c-1.8,2-2.8,4.6-2.8,7.4c0,3.2,0.9,5.8,2.7,7.8c1.9,2.1,4.2,3,7.1,3c1.7,0,3.4-0.5,4.9-1.5
	c1-0.7,1.9-1.6,2.7-2.7c0.4,1.2,0.7,2,1.1,2.5c0.7,1,1.7,1.5,2.9,1.5c1.2,0,2.2-0.6,2.8-1.6c0.5-0.9,0.7-1.9,0.7-3.7V35H41.2z
	 M32,36.8c-0.8,1.2-1.9,1.9-3.1,1.9c-1.4,0-2.5-0.6-3.3-2c-0.8-1.4-1.2-3.4-1.2-6.1c0-2.5,0.4-4.4,1.3-5.8c0.8-1.3,1.9-1.9,3.3-1.9
	c1.2,0,2.2,0.5,3,1.6c0.9,1.2,1.7,3.2,2.2,5.7C33.5,33.5,32.8,35.6,32,36.8z"/>
</svg>
