<?xml version="1.0" encoding="UTF-8" standalone="no"?>
<svg width="56px" height="83px" viewBox="0 0 56 83" version="1.1" xmlns="http://www.w3.org/2000/svg" xmlns:xlink="http://www.w3.org/1999/xlink" xmlns:sketch="http://www.bohemiancoding.com/sketch/ns">
    <!-- Generator: Sketch 3.4.4 (17249) - http://www.bohemiancoding.com/sketch -->
    <title>alfa-click</title>
    <desc>Created with Sketch.</desc>
    <defs></defs>
    <g id="Page-1" stroke="none" stroke-width="1" fill="none" fill-rule="evenodd" sketch:type="MSPage">
        <g id="alfa-click" sketch:type="MSLayerGroup" fill="#DC3729">
            <path d="M27.7,0.3 C33.5,0.3 35.3,4.3 36.9,8.4 C37.5,10.1 52.7,50.2 53.1,51.4 C53.2,51.7 53.1,52.3 52.6,52.5 C52.1,52.7 44.2,55.7 43.8,55.8 C43.4,56 42.9,55.7 42.7,55.3 C42.5,54.9 39.3,46.1 38.9,45.2 L16.6,45.2 C16.2,46.2 12.9,54.9 12.8,55.3 C12.6,55.7 12.2,56 11.7,55.8 C11.2,55.6 3.4,52.7 2.9,52.5 C2.4,52.3 2.2,51.8 2.4,51.4 C3,49.9 17.8,10.4 18.6,8.4 C20,4.4 21.9,0.3 27.7,0.3 Z M1.2,72 C0.7,72 0.4,72.4 0.4,72.8 L0.4,82.2 C0.4,82.7 0.8,83 1.2,83 L54.4,83 C54.9,83 55.2,82.6 55.2,82.2 L55.2,72.8 C55.2,72.3 54.8,72 54.4,72 L1.2,72 Z M27.7,13.3 L20.1,35.4 L35.4,35.4 L27.8,13.3 L27.7,13.3 Z" id="Shape" sketch:type="MSShapeGroup"></path>
        </g>
    </g>
</svg>