<?xml version="1.0" encoding="utf-8"?>
<!-- Generator: Adobe Illustrator 19.0.0, SVG Export Plug-In . SVG Version: 6.00 Build 0)  -->
<svg version="1.1" id="Слой_1" xmlns="http://www.w3.org/2000/svg" xmlns:xlink="http://www.w3.org/1999/xlink" x="0px" y="0px"
	 viewBox="0 0 60.5 60.5" style="enable-background:new 0 0 60.5 60.5;" xml:space="preserve">
<style type="text/css">
	.st0{opacity:0.4;}
	.st1{fill:#ECEFF0;}
	.st2{fill:#EFAC36;}
	.st3{fill:#21221D;}
</style>
<g>
	<g class="st0">
		<path id="XMLID_19_" class="st1" d="M52.2,60.2h-44c-4.4,0-8-3.6-8-8v-44c0-4.4,3.6-8,8-8h44c4.4,0,8,3.6,8,8v44
			C60.2,56.7,56.7,60.2,52.2,60.2z"/>
	</g>
	<g>
		<g>
			<path class="st2" d="M19.1,40.5c4,0.1,8.6,0.1,11.2,0.1c2.5,0,7.1,0,11.1-0.1c1.6-1.8,2.8-4.3,3.4-6.3h-29
				C16.3,36.2,17.5,38.7,19.1,40.5z"/>
		</g>
		<g>
			<path class="st3" d="M19.1,40.3c2.7,3,6.7,5,11.1,5c4.4,0,8.4-1.9,11.1-4.9c-4,0.1-8.5,0.2-11.1,0.2
				C27.7,40.5,23.2,40.4,19.1,40.3z"/>
		</g>
		<g>
			<path class="st3" d="M15.3,30.2c0,1.3,0.2,3,0.5,4h29c0.3-1,0.5-2.7,0.5-4c0-1.3-0.2-2-0.5-4h-29C15.4,28.2,15.3,29,15.3,30.2z"
				/>
		</g>
		<g>
			<path class="st3" d="M41.4,20.2c-2.7-3-6.7-5-11.1-5c-4.4,0-8.4,1.9-11.1,5c4-0.1,8.6,0,11.2,0C32.9,20.2,37.4,20.1,41.4,20.2z"
				/>
		</g>
		<g>
			<path class="st2" d="M30.3,20.2c-2.6,0-7.1-0.3-11.2-0.2c-1.6,1.8-2.8,4.2-3.4,6.2h29c-0.6-2-1.8-4.4-3.4-6.2
				C37.4,19.9,32.9,20.2,30.3,20.2z"/>
		</g>
	</g>
</g>
</svg>
