<?xml version="1.0" encoding="utf-8"?>
<!-- Generator: Adobe Illustrator 19.0.0, SVG Export Plug-In . SVG Version: 6.00 Build 0)  -->
<svg version="1.1" id="Слой_1" xmlns="http://www.w3.org/2000/svg" xmlns:xlink="http://www.w3.org/1999/xlink" x="0px" y="0px"
	 viewBox="0 0 60.8 60.1" style="enable-background:new 0 0 60.8 60.1;" xml:space="preserve">
<style type="text/css">
	.st0{fill:#ECEFF0;}
	.st1{fill:#EFAC36;}
	.st2{fill:#21221D;}
</style>
<g>
	<path id="XMLID_19_" class="st0" d="M52.5,60.1h-44c-4.4,0-8-3.6-8-8v-44c0-4.4,3.6-8,8-8h44c4.4,0,8,3.6,8,8v44
		C60.5,56.5,56.9,60.1,52.5,60.1z"/>
</g>
<g>
	<g>
		<path class="st1" d="M19.4,40.3c4,0.1,8.6,0.1,11.2,0.1c2.5,0,7.1,0,11.1-0.1c1.6-1.8,2.8-4.3,3.4-6.3H16
			C16.6,36.1,17.7,38.5,19.4,40.3z"/>
	</g>
	<g>
		<path class="st2" d="M19.4,40.2c2.7,3,6.7,5,11.1,5c4.4,0,8.4-1.9,11.1-4.9c-4,0.1-8.5,0.2-11.1,0.2C28,40.4,23.4,40.3,19.4,40.2z
			"/>
	</g>
	<g>
		<path class="st2" d="M15.5,30.1c0,1.3,0.2,3,0.5,4h29c0.3-1,0.5-2.7,0.5-4c0-1.3-0.2-2-0.5-4H16C15.7,28.1,15.5,28.9,15.5,30.1z"
			/>
	</g>
	<g>
		<path class="st2" d="M41.6,20.1c-2.7-3-6.7-5-11.1-5c-4.4,0-8.4,1.9-11.1,5c4-0.1,8.6,0,11.2,0C33.1,20.1,37.6,20,41.6,20.1z"/>
	</g>
	<g>
		<path class="st1" d="M30.5,20.1c-2.6,0-7.1-0.3-11.2-0.2c-1.6,1.8-2.8,4.2-3.4,6.2h29c-0.6-2-1.8-4.4-3.4-6.2
			C37.6,19.8,33.1,20.1,30.5,20.1z"/>
	</g>
</g>
</svg>
