<?xml version="1.0" encoding="utf-8"?>
<!-- Generator: Adobe Illustrator 19.0.0, SVG Export Plug-In . SVG Version: 6.00 Build 0)  -->
<svg version="1.1" id="Слой_1" xmlns="http://www.w3.org/2000/svg" xmlns:xlink="http://www.w3.org/1999/xlink" x="0px" y="0px"
	 viewBox="0 0 80.4 70.2"  width="80" height="70" style="enable-background:new 0 0 80.4 70.2;" xml:space="preserve">
<style type="text/css">
	.st0{fill:#70B2E2;}
	.st1{opacity:0.5;}
	.st2{fill:#57A0D7;}
</style>
<g>
	<g>
		<g id="XMLID_33_">
			<path class="st0" d="M28.9,17.4c-0.1,0-0.1,0-0.2,0.1L20.4,27c-0.1,0.1-0.2,0.1-0.3,0.1s-0.2,0-0.3-0.1l-8.7-9.5
				c-0.1-0.1-0.5-0.1-0.6-0.1c-0.5,0-1.2,0.7-1.2,1.6v3l10,6.8c0.2,0.1,0.4,0.1,0.6,0.1c0.2,0,0.1,0,0.3-0.1l9.2-6.8v-3
				C29.2,18,29.3,17.4,28.9,17.4L28.9,17.4z"/>
		</g>
		<g id="XMLID_30_">
			<path class="st0" d="M2.2,24.3L18.7,32c0.5,0.2,1,0.4,1.5,0.4s1-0.1,1.5-0.3l16.5-7.6v15.6l-18,8.3l-18-8.3v-16 M38.7,22.3
				c-0.2,0-0.4,0-0.7,0.1l-17.1,7.8c-0.2,0.1-0.4,0.1-0.7,0.1s-0.5,0-0.7-0.1L2.5,22.4c-0.2-0.1-0.4-0.1-0.7-0.1
				c-0.8,0-1.6,0.7-1.6,1.6v16.5c0,0.6,0.4,1.2,0.9,1.5l18.4,8.5c0.2,0.1,0.4,0.1,0.7,0.1s0.5,0,0.7-0.1l18.4-8.5
				c0.6-0.3,0.9-0.8,0.9-1.5V23.9C40.2,23,39.5,22.3,38.7,22.3L38.7,22.3z"/>
		</g>
		<g id="XMLID_27_">
			<path class="st0" d="M2.2,24.3L18.7,32c0.5,0.2,1,0.4,1.5,0.4s1-0.1,1.5-0.3l16.5-7.6v15.6l-18,8.3l-18-8.3v-16 M38.7,22.3
				c-0.2,0-0.4,0-0.7,0.1l-17.1,7.8c-0.2,0.1-0.4,0.1-0.7,0.1s-0.5,0-0.7-0.1L2.5,22.4c-0.2-0.1-0.4-0.1-0.7-0.1
				c-0.8,0-1.6,0.7-1.6,1.6v16.5c0,0.6,0.4,1.2,0.9,1.5l18.4,8.5c0.2,0.1,0.4,0.1,0.7,0.1s0.5,0,0.7-0.1l18.4-8.5
				c0.6-0.3,0.9-0.8,0.9-1.5V23.9C40.2,23,39.5,22.3,38.7,22.3L38.7,22.3z"/>
		</g>
		<g id="XMLID_20_">
			<path class="st0" d="M5.2,21.4l2.1,1.5l-2.1-0.9v-0.8 M33.8,21.8V22l-0.7,0.3L33.8,21.8 M34.4,18.8c-0.2,0-0.2,0-0.4,0.1
				l-13.5,9.7c-0.2,0.1-0.3,0.1-0.5,0.1c-0.2,0-0.3,0-0.5-0.1L5.8,19c-0.2-0.1-0.6-0.1-0.8-0.1c-0.7,0-1.7,0.7-1.7,1.6v2.8l15.8,7.1
				c0.2,0.1,0.5,0.1,0.7,0.1s0.2,0,0.4-0.1l15-7.1v-2.8C35.2,19.5,35.1,18.8,34.4,18.8L34.4,18.8z"/>
		</g>
		<g id="XMLID_19_">
			<path class="st0" d="M36.2,32.2c-0.9,0-1.6,0.7-1.6,1.6c0,0.9,0.7,1.6,1.6,1.6s1.6-0.7,1.6-1.6C37.9,32.9,37.1,32.2,36.2,32.2
				L36.2,32.2z"/>
		</g>
	</g>
	<g id="XMLID_18_" class="st1">
		<g id="XMLID_24_">
			<rect id="XMLID_62_" x="19.2" y="32.1" class="st2" width="2" height="1"/>
		</g>
		<g id="XMLID_23_">
			<path id="XMLID_54_" class="st2" d="M21.2,47.1h-2v-1h2V47.1z M21.2,45.1h-2v-1h2V45.1z M21.2,43.1h-2v-1h2V43.1z M21.2,41.1h-2
				v-1h2V41.1z M21.2,39.1h-2v-1h2V39.1z M21.2,37.1h-2v-1h2V37.1z M21.2,35.1h-2v-1h2V35.1z"/>
		</g>
		<g id="XMLID_22_">
			<path id="XMLID_53_" class="st2" d="M20.2,49.1"/>
		</g>
	</g>
</g>
<g>
	<g>
		<g id="XMLID_17_">
			<path class="st0" d="M68.9,37.1c-0.1,0-0.1,0-0.2,0.1l-8.3,9.5c-0.1,0.1-0.2,0.1-0.3,0.1s-0.2,0-0.3-0.1l-8.7-9.5
				c-0.1-0.1-0.5-0.1-0.6-0.1c-0.5,0-1.2,0.7-1.2,1.6v3l10,6.8c0.2,0.1,0.4,0.1,0.6,0.1c0.2,0,0.1,0,0.3-0.1l9.2-6.8v-3
				C69.2,37.8,69.3,37.1,68.9,37.1L68.9,37.1z"/>
		</g>
		<g id="XMLID_14_">
			<path class="st0" d="M42.2,44.2l16.5,7.6c0.5,0.2,1,0.3,1.5,0.3s1-0.1,1.5-0.3l16.5-7.6v15.6l-18,8.3l-18-8.3V44.2 M78.7,42
				c-0.2,0-0.4,0-0.7,0.1L60.9,50c-0.2,0.1-0.4,0.1-0.7,0.1s-0.5,0-0.7-0.1l-17.1-7.8c-0.2-0.1-0.4-0.1-0.7-0.1
				c-0.8,0-1.6,0.7-1.6,1.6v16.5c0,0.6,0.4,1.2,0.9,1.5L59.6,70c0.2,0.1,0.4,0.1,0.7,0.1s0.5,0,0.7-0.1l18.4-8.5
				c0.6-0.3,0.9-0.8,0.9-1.5V43.6C80.2,42.7,79.5,42,78.7,42L78.7,42z"/>
		</g>
		<g id="XMLID_11_">
			<path class="st0" d="M42.2,44.2l16.5,7.6c0.5,0.2,1,0.3,1.5,0.3s1-0.1,1.5-0.3l16.5-7.6v15.6l-18,8.3l-18-8.3V44.2 M78.7,42
				c-0.2,0-0.4,0-0.7,0.1L60.9,50c-0.2,0.1-0.4,0.1-0.7,0.1s-0.5,0-0.7-0.1l-17.1-7.8c-0.2-0.1-0.4-0.1-0.7-0.1
				c-0.8,0-1.6,0.7-1.6,1.6v16.5c0,0.6,0.4,1.2,0.9,1.5L59.6,70c0.2,0.1,0.4,0.1,0.7,0.1s0.5,0,0.7-0.1l18.4-8.5
				c0.6-0.3,0.9-0.8,0.9-1.5V43.6C80.2,42.7,79.5,42,78.7,42L78.7,42z"/>
		</g>
		<g id="XMLID_7_">
			<path class="st0" d="M45.2,41.2l2.1,1.5l-2.1-0.9V41.2 M73.8,41.5v0.2L73.1,42L73.8,41.5 M74.4,38.6c-0.2,0-0.2,0-0.4,0.1
				l-13.5,9.7c-0.2,0.1-0.3,0.1-0.5,0.1c-0.2,0-0.3,0-0.5-0.1l-13.9-9.7c-0.2-0.1-0.6-0.1-0.8-0.1c-0.7,0-1.7,0.7-1.7,1.6V43
				L59.1,50c0.2,0.1,0.5,0.1,0.7,0.1s0.2,0,0.4-0.1l15-7.1v-2.8C75.2,39.3,75.1,38.6,74.4,38.6L74.4,38.6z"/>
		</g>
		<g id="XMLID_3_">
			<path class="st0" d="M76.2,51.9c-0.9,0-1.6,0.7-1.6,1.6c0,0.9,0.7,1.6,1.6,1.6s1.6-0.7,1.6-1.6C77.9,52.6,77.1,51.9,76.2,51.9
				L76.2,51.9z"/>
		</g>
	</g>
	<g id="XMLID_2_" class="st1">
		<g id="XMLID_6_">
			<path id="XMLID_52_" class="st2" d="M60.2,52.1"/>
		</g>
		<g id="XMLID_5_">
			<path id="XMLID_43_" class="st2" d="M61.2,68.1h-2v-1h2V68.1z M61.2,66.1h-2v-1h2V66.1z M61.2,64.1h-2v-1h2V64.1z M61.2,62.1h-2
				v-1h2V62.1z M61.2,60.1h-2v-1h2V60.1z M61.2,58.1h-2v-1h2V58.1z M61.2,56.1h-2v-1h2V56.1z M61.2,54.1h-2v-1h2V54.1z"/>
		</g>
		<g id="XMLID_4_">
			<rect id="XMLID_42_" x="59.2" y="68.1" class="st2" width="2" height="1"/>
		</g>
	</g>
</g>
<g id="XMLID_38_">
	<path id="XMLID_39_" class="st0" d="M19.1,1.3L19.1,1.3L17.7,2l-0.2-0.8l1.7-0.9h0.9v7.8h-1V1.3z"/>
</g>
<g id="XMLID_34_">
	<path id="XMLID_36_" class="st0" d="M56.8,28.4v-0.6l0.8-0.8c2-1.9,2.9-2.9,2.9-4.1c0-0.8-0.4-1.5-1.5-1.5c-0.7,0-1.3,0.4-1.7,0.7
		L57,21.3c0.5-0.5,1.3-0.8,2.2-0.8c1.7,0,2.4,1.2,2.4,2.3c0,1.4-1,2.6-2.7,4.2l-0.6,0.6v0h3.5v0.9H56.8z"/>
</g>
<g>
	<path id="XMLID_35_" class="st0" d="M35.2,62.1h-8c-4.4,0-8-3.6-8-8h2c0,3.3,2.7,6,6,6h8V62.1z"/>
</g>
<g id="XMLID_1_">
	<polygon class="st0" points="33.2,58.1 33.2,64.1 37.2,61.1 33.2,58.1 	"/>
</g>
</svg>
