<?xml version="1.0" encoding="UTF-8" standalone="no"?>
<svg width="30px" height="23px" viewBox="0 0 30 23" version="1.1" xmlns="http://www.w3.org/2000/svg" xmlns:xlink="http://www.w3.org/1999/xlink" xmlns:sketch="http://www.bohemiancoding.com/sketch/ns">
    <!-- Generator: Sketch 3.4.4 (17249) - http://www.bohemiancoding.com/sketch -->
    <title>card</title>
    <desc>Created with Sketch.</desc>
    <defs></defs>
    <g id="Page-1" stroke="none" stroke-width="1" fill="none" fill-rule="evenodd" sketch:type="MSPage">
        <path d="M0.5,20.4 L0.5,2.3 C0.5,1.8 0.7,1.4 1,1.1 C1.3,0.8 1.7,0.6 2.2,0.6 L27.7,0.6 C28.2,0.6 28.6,0.8 28.9,1.1 C29.2,1.4 29.4,1.8 29.4,2.3 L29.4,20.4 C29.4,20.9 29.2,21.3 28.9,21.6 C28.6,21.9 28.2,22.1 27.7,22.1 L2.3,22.1 C1.8,22.1 1.4,21.9 1.1,21.6 C0.8,21.3 0.5,20.8 0.5,20.4 L0.5,20.4 Z M2.1,5.3 L27.9,5.3 L27.9,2.3 C27.9,2.2 27.9,2.2 27.8,2.2 L2.3,2.2 L2.2,2.2 L2.2,2.3 L2.2,5.3 L2.1,5.3 Z M2.1,20.4 L2.1,20.4 C2.2,20.5 2.2,20.5 2.3,20.5 L27.8,20.5 C27.9,20.5 27.9,20.5 27.9,20.4 L27.9,9.3 L2.1,9.3 L2.1,20.4 L2.1,20.4 Z M5.5,13.6 C5.3,13.4 5.3,13.3 5.3,13 C5.3,12.8 5.4,12.6 5.5,12.4 C5.6,12.2 5.8,12.2 6.1,12.2 L18.3,12.2 C18.5,12.2 18.7,12.3 18.9,12.4 C19.1,12.5 19,12.8 19,13 C19,13.2 18.9,13.4 18.8,13.6 C18.6,13.8 18.5,13.8 18.2,13.8 L6.1,13.8 C5.9,13.8 5.7,13.8 5.5,13.6 L5.5,13.6 Z M5.5,17.1 C5.3,16.9 5.3,16.8 5.3,16.5 C5.3,16.3 5.4,16.1 5.5,15.9 C5.7,15.7 5.8,15.7 6.1,15.7 L15.8,15.7 C16,15.7 16.2,15.8 16.4,15.9 C16.6,16.1 16.6,16.2 16.6,16.5 C16.6,16.7 16.5,16.9 16.4,17.1 C16.2,17.3 16.1,17.3 15.8,17.3 L6.1,17.3 C5.9,17.3 5.7,17.3 5.5,17.1 L5.5,17.1 Z M21.3,15.6 L21.3,12.2 L24.7,12.2 L24.7,15.6 L21.3,15.6 L21.3,15.6 Z" id="card" stroke="#263238" fill="#263238" sketch:type="MSShapeGroup"></path>
    </g>
</svg>