<?xml version="1.0" encoding="utf-8"?>
<!-- Generator: Adobe Illustrator 19.0.0, SVG Export Plug-In . SVG Version: 6.00 Build 0)  -->
<svg version="1.1" id="Слой_1" xmlns="http://www.w3.org/2000/svg" xmlns:xlink="http://www.w3.org/1999/xlink" x="0px" y="0px"
	 viewBox="0 0 78.2 38.1" style="enable-background:new 0 0 78.2 38.1;" width="78" height="37" xml:space="preserve">
<style type="text/css">
	.st0{fill:#70B2E2;}
	.st1{fill:none;stroke:#70B2E2;stroke-width:2;stroke-miterlimit:10;}
</style>
<g>
	<path class="st0" d="M0.1,23.1v-21c0-0.5,0.2-1,0.6-1.4c0.4-0.4,0.9-0.6,1.4-0.6h30c0.6,0,1,0.2,1.4,0.6c0.4,0.4,0.6,0.9,0.6,1.4
		v21c0,0.5-0.2,1-0.6,1.4c-0.4,0.4-0.9,0.6-1.4,0.6h-30c-0.6,0-1-0.2-1.4-0.6C0.3,24.2,0.1,23.7,0.1,23.1z M2.1,6.1h30V2.3
		c0-0.1-0.1-0.2-0.2-0.2H2.3c0,0-0.1,0-0.1,0.1c0,0-0.1,0.1-0.1,0.1V6.1z M2.1,23c0,0,0,0.1,0.1,0.1c0,0,0.1,0.1,0.1,0.1H32
		c0.1,0,0.2-0.1,0.2-0.2V10.1h-30V23z M5.4,14.8c-0.2-0.2-0.3-0.4-0.3-0.7c0-0.3,0.1-0.5,0.3-0.7c0.2-0.2,0.4-0.3,0.6-0.3h14.3
		c0.3,0,0.5,0.1,0.6,0.3c0.2,0.2,0.3,0.4,0.3,0.6c0,0.3-0.1,0.6-0.3,0.7c-0.2,0.2-0.4,0.4-0.6,0.4H6C5.8,15.1,5.6,14.9,5.4,14.8z
		 M5.4,18.8c-0.2-0.2-0.3-0.4-0.3-0.7s0.1-0.5,0.3-0.7c0.2-0.2,0.4-0.3,0.6-0.3h11.4c0.3,0,0.5,0.1,0.6,0.3c0.2,0.2,0.3,0.4,0.3,0.7
		c0,0.3-0.1,0.5-0.3,0.7c-0.2,0.2-0.4,0.3-0.6,0.3H6C5.8,19.1,5.6,19,5.4,18.8z M25.1,17.1v-4h4v4H25.1z"/>
</g>
<g>
	<path class="st0" d="M44.1,23.1v-21c0-0.5,0.2-1,0.6-1.4c0.4-0.4,0.9-0.6,1.4-0.6h30c0.6,0,1,0.2,1.4,0.6c0.4,0.4,0.6,0.9,0.6,1.4
		v21c0,0.5-0.2,1-0.6,1.4c-0.4,0.4-0.9,0.6-1.4,0.6h-30c-0.6,0-1-0.2-1.4-0.6C44.3,24.2,44.1,23.7,44.1,23.1z M46.1,6.1h30V2.3
		c0-0.1-0.1-0.2-0.2-0.2H46.3c0,0-0.1,0-0.1,0.1c0,0-0.1,0.1-0.1,0.1V6.1z M46.1,23c0,0,0,0.1,0.1,0.1c0,0,0.1,0.1,0.1,0.1H76
		c0.1,0,0.2-0.1,0.2-0.2V10.1h-30V23z M49.4,14.8c-0.2-0.2-0.3-0.4-0.3-0.7c0-0.3,0.1-0.5,0.3-0.7c0.2-0.2,0.4-0.3,0.6-0.3h14.3
		c0.3,0,0.5,0.1,0.6,0.3c0.2,0.2,0.3,0.4,0.3,0.6c0,0.3-0.1,0.6-0.3,0.7c-0.2,0.2-0.4,0.4-0.6,0.4H50C49.8,15.1,49.6,14.9,49.4,14.8
		z M49.4,18.8c-0.2-0.2-0.3-0.4-0.3-0.7s0.1-0.5,0.3-0.7c0.2-0.2,0.4-0.3,0.6-0.3h11.4c0.3,0,0.5,0.1,0.6,0.3
		c0.2,0.2,0.3,0.4,0.3,0.7c0,0.3-0.1,0.5-0.3,0.7c-0.2,0.2-0.4,0.3-0.6,0.3H50C49.8,19.1,49.6,19,49.4,18.8z M69.1,17.1v-4h4v4H69.1
		z"/>
</g>
<g>
	<polygon id="XMLID_10_" class="st0" points="53.1,30.1 49.1,34.1 57.1,34.1 53.1,30.1 	"/>
</g>
<path class="st1" d="M24.1,31.1v3c0,1.7,1.3,3,3,3h23c1.7,0,3-1.3,3-3v-3"/>
</svg>
