<?xml version="1.0" encoding="utf-8"?>
<!-- Generator: Adobe Illustrator 19.0.0, SVG Export Plug-In . SVG Version: 6.00 Build 0)  -->
<svg version="1.1" id="Слой_1" xmlns="http://www.w3.org/2000/svg" xmlns:xlink="http://www.w3.org/1999/xlink" x="0px" y="0px"
	 viewBox="0 0 50.4 50.6" style="enable-background:new 0 0 50.4 50.6;" xml:space="preserve">
<style type="text/css">
	.st0{fill:#322D3C;}
	.st1{fill:#F8B418;}
</style>
<g>
	<path id="XMLID_97_" class="st0" d="M45.2,50.3h-40c-2.8,0-5-2.2-5-5v-40c0-2.8,2.2-5,5-5h40c2.8,0,5,2.2,5,5v40
		C50.2,48.1,47.9,50.3,45.2,50.3z"/>
</g>
<path class="st1" d="M38.4,16.2L26.8,9.5c-0.5-0.3-1.1-0.3-1.6,0l-11.6,6.7c-0.5,0.3-0.8,0.8-0.8,1.4l0,13.4c0,0.6,0.3,1.1,0.8,1.4
	l11.6,6.7c0.2,0.1,0.5,0.2,0.8,0.2c0.3,0,0.6-0.1,0.8-0.2l11.6-6.7c0.5-0.3,0.8-0.8,0.8-1.4l0-13.4C39.2,17,38.9,16.5,38.4,16.2z
	 M13.8,31l0-13.4c0-0.2,0-0.4,0.2-0.5l11.2-6.5v13.7L16.6,33L14,31.5C13.9,31.4,13.8,31.2,13.8,31z M17.4,33.5l7.8-7.8V38L17.4,33.5
	z M26.2,38.1V25.8l7.8,7.8L26.2,38.1z M38.1,31c0,0.2-0.1,0.4-0.3,0.5L35,33l-8.8-8.7V10.6l11.5,6.6c0.2,0.1,0.3,0.3,0.3,0.5
	L38.1,31z"/>
</svg>
