<?xml version="1.0" encoding="utf-8"?>
<!-- Generator: Adobe Illustrator 19.0.0, SVG Export Plug-In . SVG Version: 6.00 Build 0)  -->
<svg version="1.1" id="Слой_1" xmlns="http://www.w3.org/2000/svg" xmlns:xlink="http://www.w3.org/1999/xlink" x="0px" y="0px"
	 viewBox="0 0 50.2 50.3" style="enable-background:new 0 0 50.2 50.3;" xml:space="preserve">
<style type="text/css">
	.st0{fill:#F38420;}
	.st1{fill:#FFFFFF;}
</style>
<g>
	<g id="g5499_1_">
		<path id="rect2987_1_" class="st0" d="M6.2,0.2h37.5C47.2,0.2,50,3,50,6.4v37.5c0,3.5-2.8,6.2-6.2,6.2H6.2c-3.5,0-6.2-2.8-6.2-6.2
			V6.4C0,3,2.8,0.2,6.2,0.2z"/>
		<g id="g7980_1_" transform="matrix(1.3569974,0,0,1.3569974,-1327.8679,-536.34264)">
			<path id="path9_1_" class="st1" d="M997,414c4,0,7.3-3.3,7.3-7.3c0-4-3.3-7.3-7.3-7.3c-4,0-7.3,3.3-7.3,7.3S992.9,414,997,414z
				 M997,403.1c2,0,3.6,1.6,3.6,3.6s-1.6,3.6-3.6,3.6c-2,0-3.6-1.6-3.6-3.6S995,403.1,997,403.1L997,403.1z"/>
			<path id="path11-0_1_" class="st1" d="M1002.3,414.5c-2,1.6-5.3,1.6-5.3,1.6s-3.3,0-5.3-1.6c-1.5-1.2-2.7-0.5-3.1,0.3
				c-0.7,1.4,0.1,2.1,1.9,3.3c1.6,1,3.7,1.4,5.1,1.5l-1.2,1.2c-1.6,1.6-3.2,3.2-4.3,4.3c-0.7,0.7-0.7,1.7,0,2.4l0.2,0.2
				c0.7,0.7,1.7,0.7,2.4,0l4.3-4.3c1.6,1.6,3.2,3.2,4.3,4.3c0.7,0.7,1.7,0.7,2.4,0l0.2-0.2c0.7-0.7,0.7-1.7,0-2.4l-4.3-4.3l-1.2-1.2
				c1.4-0.1,3.5-0.5,5.1-1.5c1.8-1.2,2.6-1.9,1.9-3.3C1004.9,414,1003.8,413.3,1002.3,414.5L1002.3,414.5z"/>
		</g>
	</g>
</g>
</svg>
