<?xml version="1.0" encoding="utf-8"?>
<!-- Generator: Adobe Illustrator 19.0.0, SVG Export Plug-In . SVG Version: 6.00 Build 0)  -->
<svg version="1.1" id="Слой_1" xmlns="http://www.w3.org/2000/svg" xmlns:xlink="http://www.w3.org/1999/xlink" x="0px" y="0px"
	 viewBox="0 0 50.7 50.2" style="enable-background:new 0 0 50.7 50.2;" xml:space="preserve">
<style type="text/css">
	.st0{fill:#3C5A99;}
	.st1{fill:#FFFFFF;}
</style>
<g>
	<g>
		<path class="st0" d="M50.4,47.1c0,1.7-1.4,3.1-3.1,3.1H3.6c-1.7,0-3.1-1.4-3.1-3.1V3.3c0-1.7,1.4-3.1,3.1-3.1h43.8
			c1.7,0,3.1,1.4,3.1,3.1V47.1z"/>
		<path id="f_1_" class="st1" d="M34.8,50.2V31.5h6.2l1.6-7.8h-7.8v-3.1c0-3.1,1.6-4.7,4.7-4.7h3.1V8c-1.6,0-3.5,0-6.2,0
			C30.6,8,27,12.5,27,19v4.7h-6.2v7.8H27v18.8H34.8z"/>
	</g>
</g>
</svg>
