<?xml version="1.0" encoding="utf-8"?>
<!-- Generator: Adobe Illustrator 19.0.0, SVG Export Plug-In . SVG Version: 6.00 Build 0)  -->
<svg version="1.1" id="Слой_1" xmlns="http://www.w3.org/2000/svg" xmlns:xlink="http://www.w3.org/1999/xlink" x="0px" y="0px"
	 viewBox="0 0 21.1 21.2" style="enable-background:new 0 0 21.1 21.2;" xml:space="preserve">
<style type="text/css">
	.st0{fill:#90A4AE;}
</style>
<g id="XMLID_2_">
	<path id="XMLID_6_" class="st0" d="M10.1,13c0-0.5,0.1-1,0.2-1.3s0.4-0.7,0.9-1.2s0.7-0.8,0.9-0.9c0.1-0.2,0.2-0.4,0.3-0.6
		c0.1-0.2,0.1-0.5,0.1-0.8c0-0.6-0.2-1-0.5-1.3s-0.7-0.5-1.3-0.5c-0.5,0-1,0.2-1.3,0.5S8.9,7.6,8.9,8.1H8.1c0-0.7,0.3-1.3,0.8-1.8
		s1.1-0.7,1.9-0.7c0.8,0,1.4,0.2,1.9,0.7s0.7,1.1,0.7,1.9c0,0.5-0.1,1-0.3,1.4c-0.2,0.4-0.6,0.9-1.3,1.5c-0.5,0.4-0.8,1.1-0.8,1.9
		H10.1z M10,15.3c0-0.2,0-0.3,0.1-0.4s0.2-0.2,0.4-0.2c0.2,0,0.3,0.1,0.4,0.2s0.2,0.2,0.2,0.4c0,0.2-0.1,0.3-0.2,0.4
		s-0.2,0.2-0.4,0.2c-0.2,0-0.3-0.1-0.4-0.2S10,15.4,10,15.3z"/>
</g>
<g>
	<path id="XMLID_3_" class="st0" d="M10.6,21.1c-5.8,0-10.5-4.7-10.5-10.5c0-5.8,4.7-10.5,10.5-10.5c5.8,0,10.5,4.7,10.5,10.5
		C21.1,16.4,16.4,21.1,10.6,21.1z M10.6,1.1c-5.2,0-9.5,4.3-9.5,9.5s4.3,9.5,9.5,9.5s9.5-4.3,9.5-9.5S15.8,1.1,10.6,1.1z"/>
</g>
</svg>
