<?xml version="1.0" encoding="UTF-8" standalone="no"?>
<svg width="40px" height="36px" viewBox="0 0 40 36" version="1.1" xmlns="http://www.w3.org/2000/svg" xmlns:xlink="http://www.w3.org/1999/xlink" xmlns:sketch="http://www.bohemiancoding.com/sketch/ns">
    <!-- Generator: Sketch 3.2.2 (9983) - http://www.bohemiancoding.com/sketch -->
    <title>Group</title>
    <desc>Created with Sketch.</desc>
    <defs></defs>
    <g id="Page-1" stroke="none" stroke-width="1" fill="none" fill-rule="evenodd" sketch:type="MSPage">
        <g id="Group" sketch:type="MSLayerGroup" transform="translate(19.999800, 18.000000) rotate(-180.000000) translate(-19.999800, -18.000000) ">
            <g transform="translate(10.731600, 6.000000)" sketch:type="MSShapeGroup">
                <g id="XMLID_34_" transform="translate(0.000000, 2.000000)" fill="#263238">
                    <path d="M0.4878,9.1 L9.46332,0.9 C9.65844,0.7 9.95112,0.7 10.14624,0.9 L19.12176,9.1 C19.41444,9.4 19.60956,9.9 19.60956,10.5 L19.60956,26.4 C19.60956,27.5 19.0242,28.3 18.5364,27.8 L10.2438,18.3 C10.04868,18.1 9.756,18.1 9.56088,18.3 L1.26828,27.8 C0.78048,28.3 0.19512,27.5 0.19512,26.4 L0.19512,10.5 C-1.93872696e-14,9.9 0.19512,9.3 0.4878,9.1 L0.4878,9.1 Z" id="XMLID_36_"></path>
                </g>
                <g id="XMLID_30_" fill="#70B2E2">
                    <path d="M0.4878,9.1 L9.46332,0.9 C9.65844,0.7 9.95112,0.7 10.14624,0.9 L19.12176,9.1 C19.41444,9.4 19.60956,9.9 19.60956,10.5 L19.60956,26.4 C19.60956,27.5 19.0242,28.3 18.5364,27.8 L10.2438,18.3 C10.04868,18.1 9.756,18.1 9.56088,18.3 L1.26828,27.8 C0.78048,28.3 0.19512,27.5 0.19512,26.4 L0.19512,10.5 C-1.93872696e-14,9.9 0.19512,9.3 0.4878,9.1 L0.4878,9.1 Z" id="XMLID_33_"></path>
                </g>
            </g>
            <g transform="translate(3.902400, 4.000000)" sketch:type="MSShapeGroup">
                <g id="XMLID_29_" transform="translate(0.000000, 2.000000)" fill="#263238">
                    <path d="M1.65852,9 L15.99984,0.5 C16.29252,0.3 16.68276,0.3 17.073,0.5 L31.41432,9 C31.90212,9.3 32.09724,9.8 32.09724,10.5 L32.09724,27 C32.09724,28.2 31.12164,28.9 30.34116,28.5 L16.97544,18.8 C16.68276,18.6 16.29252,18.6 15.90228,18.8 L2.53656,28.5 C1.75608,29 0.78048,28.2 0.78048,27 L0.78048,10.5 C0.9756,9.8 1.26828,9.3 1.65852,9 L1.65852,9 Z" id="XMLID_31_"></path>
                </g>
                <g id="XMLID_25_" fill="#70B2E2">
                    <path d="M1.65852,9 L15.99984,0.5 C16.29252,0.3 16.68276,0.3 17.073,0.5 L31.41432,9 C31.90212,9.3 32.09724,9.8 32.09724,10.5 L32.09724,27 C32.09724,28.2 31.12164,28.9 30.34116,28.5 L16.97544,18.8 C16.68276,18.6 16.29252,18.6 15.90228,18.8 L2.53656,28.5 C1.75608,29 0.78048,28.2 0.78048,27 L0.78048,10.5 C0.9756,9.8 1.26828,9.3 1.65852,9 L1.65852,9 Z" id="XMLID_28_"></path>
                </g>
            </g>
            <path d="M1.85364,9.6 L19.80468,1.1 C20.19492,0.9 20.68272,0.9 21.07296,1.1 L39.024,9.6 C39.60936,9.9 39.90204,10.4 39.90204,11.1 L39.90204,27.6 C39.90204,28.8 38.73132,29.5 37.65816,29.1 L20.9754,21.3 C20.58516,21.1 20.09736,21.1 19.70712,21.3 L3.02436,29.1 C1.9512,29.6 0.78048,28.8 0.78048,27.6 L0.78048,11 C0.9756,10.4 1.36584,9.8 1.85364,9.6 L1.85364,9.6 Z" id="Shape" fill="#EA4241" sketch:type="MSShapeGroup"></path>
            <g sketch:type="MSShapeGroup">
                <g id="XMLID_24_" transform="translate(0.000000, 2.000000)" fill="#263238">
                    <path d="M1.85364,9.6 L19.80468,1.1 C20.19492,0.9 20.68272,0.9 21.07296,1.1 L39.024,9.6 C39.60936,9.9 39.90204,10.4 39.90204,11.1 L39.90204,27.6 C39.90204,28.8 38.73132,29.5 37.65816,29.1 L20.9754,21.3 C20.58516,21.1 20.09736,21.1 19.70712,21.3 L3.02436,29.1 C1.9512,29.6 0.78048,28.8 0.78048,27.6 L0.78048,11 C0.9756,10.4 1.36584,9.8 1.85364,9.6 L1.85364,9.6 Z" id="XMLID_26_"></path>
                </g>
                <g id="XMLID_21_" fill="#F1592B">
                    <path d="M1.85364,9.6 L19.80468,1.1 C20.19492,0.9 20.68272,0.9 21.07296,1.1 L39.024,9.6 C39.60936,9.9 39.90204,10.4 39.90204,11.1 L39.90204,27.6 C39.90204,28.8 38.73132,29.5 37.65816,29.1 L20.9754,21.3 C20.58516,21.1 20.09736,21.1 19.70712,21.3 L3.02436,29.1 C1.9512,29.6 0.78048,28.8 0.78048,27.6 L0.78048,11 C0.9756,10.4 1.36584,9.8 1.85364,9.6 L1.85364,9.6 Z" id="XMLID_23_"></path>
                </g>
            </g>
            <path d="M1.85364,9.6 L18.24372,1.9 C19.31688,1.4 20.4876,2.2 20.4876,3.4 L20.4876,19.8 C20.4876,20.4 20.09736,21 19.60956,21.3 L3.21948,29 C2.14632,29.5 0.9756,28.7 0.9756,27.5 L0.9756,11 C0.9756,10.4 1.36584,9.8 1.85364,9.6 L1.85364,9.6 Z" id="Shape" fill="#F05323" sketch:type="MSShapeGroup"></path>
            <g transform="translate(34.146000, 15.000000)" sketch:type="MSShapeGroup">
                <g id="XMLID_17_" fill="#010101">
                    <path d="M3.51216,1.6 C3.51216,0.7 2.82924,0 1.9512,0 C1.07316,0 0.39024,0.7 0.39024,1.6 C0.39024,2.5 1.07316,3.2 1.9512,3.2 C2.82924,3.2 3.51216,2.5 3.51216,1.6 L3.51216,1.6 Z" id="XMLID_19_"></path>
                </g>
                <g id="XMLID_14_" transform="translate(0.000000, 1.000000)" fill="#FFFFFF">
                    <path d="M3.51216,1.6 C3.51216,0.7 2.82924,0 1.9512,0 C1.07316,0 0.39024,0.7 0.39024,1.6 C0.39024,2.5 1.07316,3.2 1.9512,3.2 C2.82924,3.2 3.51216,2.5 3.51216,1.6 L3.51216,1.6 Z" id="XMLID_16_"></path>
                </g>
            </g>
        </g>
    </g>
</svg>