<?xml version="1.0" encoding="utf-8"?>
<!-- Generator: Adobe Illustrator 19.2.1, SVG Export Plug-In . SVG Version: 6.00 Build 0)  -->
<svg version="1.1" widht="80" height="80" id="Слой_1" xmlns="http://www.w3.org/2000/svg" xmlns:xlink="http://www.w3.org/1999/xlink" x="0px" y="0px"
	 viewBox="0 0 80 80" style="enable-background:new 0 0 80 80;" xml:space="preserve">
<style type="text/css">
	.st0{fill:#FFFFFF;}
	.st1{fill:#556F7A;}
	.st2{fill:#DC3729;}
</style>
<g>
	<path class="st0" d="M40,79.5C18.2,79.5,0.5,61.8,0.5,40S18.2,0.5,40,0.5S79.5,18.2,79.5,40S61.8,79.5,40,79.5z"/>
	<g>
		<path class="st1" d="M40,1c21.5,0,39,17.5,39,39S61.5,79,40,79S1,61.5,1,40S18.5,1,40,1 M40,0C17.9,0,0,17.9,0,40s17.9,40,40,40
			s40-17.9,40-40S62.1,0,40,0L40,0z"/>
	</g>
</g>
<g>
	<path class="st2" d="M40,17c3.2,0,4.2,2.2,5,4.4c0.4,0.9,8.6,22.8,8.8,23.5c0.1,0.2,0,0.5-0.3,0.6c-0.3,0.1-4.6,1.7-4.8,1.8
		c-0.2,0.1-0.5,0-0.6-0.3c-0.1-0.2-1.9-5.5-2.1-5.5H33.9c-0.2,0-2,5.3-2.1,5.5c-0.1,0.2-0.3,0.4-0.6,0.3c-0.3-0.1-4.6-1.7-4.8-1.8
		c-0.2-0.1-0.4-0.4-0.3-0.6c0.3-0.8,8.4-22.3,8.8-23.5C35.8,19.3,36.8,17,40,17L40,17z"/>
	<path class="st2" d="M25.5,55.5c-0.3,0-0.5,0.9-0.5,1.1v5.1c0,0.3,0.2,0.8,0.5,0.8h29c0.3,0,0.5-0.5,0.5-0.8v-5.1
		c0-0.3-0.2-1.1-0.5-1.1H25.5L25.5,55.5z"/>
	<polygon class="st0" points="40,23.5 35.8,35.5 44.2,35.5 40,23.5 40,23.5 	"/>
</g>
</svg>
