<?xml version="1.0" encoding="utf-8"?>
<!-- Generator: Adobe Illustrator 19.0.0, SVG Export Plug-In . SVG Version: 6.00 Build 0)  -->
<svg version="1.1" id="Слой_1" xmlns="http://www.w3.org/2000/svg" xmlns:xlink="http://www.w3.org/1999/xlink" x="0px" y="0px"
	 viewBox="0 0 50.4 50.1" style="enable-background:new 0 0 50.4 50.1;" xml:space="preserve">
<style type="text/css">
	.st0{fill:#488FCC;}
	.st1{fill-rule:evenodd;clip-rule:evenodd;fill:#FCB316;}
</style>
<g>
	<path id="XMLID_19_" class="st0" d="M45.2,50h-40c-2.8,0-5-2.2-5-5V5c0-2.8,2.2-5,5-5h40c2.8,0,5,2.2,5,5v40
		C50.2,47.8,48,50,45.2,50z"/>
</g>
<path class="st1" d="M25,16.2c2.3,0,4.3,1,6.3,2.6v0c0-0.8,0-1.8,0.7-1.8h0.2c1.1,0,1.3,1.3,1.3,1.6l0,12c-0.1,0.8,0.8,1.2,1.3,0.7
	c1.9-2,4.2-10-1.2-14.7c-5-4.4-11.7-3.6-15.3-1.2c-3.8,2.6-6.2,8.4-3.9,13.8c2.6,5.9,9.9,7.7,14.3,5.9c2.2-0.9,3.2,2.1,0.9,3.1
	c-3.5,1.5-13.1,1.3-17.6-6.5c-3-5.3-2.9-14.6,5.2-19.4c6.2-3.7,14.3-2.7,19.3,2.5c5.1,5.4,4.8,15.4-0.2,19.3c-2.3,1.8-5.6,0-5.6-2.5
	l0-0.8c-1.6,1.6-3.7,2.5-6,2.5c-4.5,0-8.4-4-8.4-8.5C16.3,20.2,20.4,16.2,25,16.2L25,16.2L25,16.2L25,16.2z M30.4,24.4
	c-0.2-3.3-2.6-5.4-5.6-5.4h-0.1c-3.4,0-5.3,2.8-5.3,5.8c0,3.4,2.3,5.6,5.3,5.6c3.4,0,5.6-2.5,5.7-5.4L30.4,24.4z"/>
</svg>
