<?xml version="1.0" encoding="utf-8"?>
<!-- Generator: Adobe Illustrator 19.0.0, SVG Export Plug-In . SVG Version: 6.00 Build 0)  -->
<svg version="1.1" id="Слой_1" xmlns="http://www.w3.org/2000/svg" xmlns:xlink="http://www.w3.org/1999/xlink" x="0px" y="0px"
	 viewBox="0 0 50.4 50.1" style="enable-background:new 0 0 50.4 50.1;" xml:space="preserve">
<style type="text/css">
	.st0{fill:#D81C50;}
	.st1{fill:#FFFFFF;}
</style>
<g>
	<path id="XMLID_19_" class="st0" d="M42.2,50h-34c-4.4,0-8-3.6-8-8V8c0-4.4,3.6-8,8-8h34c4.4,0,8,3.6,8,8v34
		C50.2,46.4,46.7,50,42.2,50z"/>
</g>
<path class="st1" d="M13.6,20c3.9,0,6,4.1,10.7,4.1C28.9,24.1,31,20,35,20c2.1,0,3.5,1,4.3,2.2c0-1.8-0.1-3.3-0.3-4.6
	c-0.3-1.8-1.2-3.4-4-3.4c-3.6,0-6.2,3.8-10.7,3.8c-4.5,0-7.1-3.8-10.7-3.8c-2.8,0-3.7,1.6-4,3.4c-0.2,1.3-0.3,2.8-0.3,4.6
	C10,21,11.5,20,13.6,20z M35,21.3c-3.6,0-5.6,4.1-10.7,4.1c-5.1,0-7.1-4.1-10.7-4.1c-3,0-4.4,2.3-4.1,4.8c0.9,7.4,5,13.9,14.8,13.9
	c9.8,0,13.9-6.5,14.8-13.9C39.4,23.6,37.9,21.3,35,21.3z M24.3,16.8c3.9,0,7.1-3.8,10.7-3.8c1.3,0,2.2,0.3,2.9,0.8
	c-2.4-5-7.6-3-13.6-3s-11.2-2-13.6,3c0.7-0.5,1.6-0.8,2.9-0.8C17.1,13.1,20.3,16.8,24.3,16.8z"/>
</svg>
