<?xml version="1.0" encoding="UTF-8" standalone="no"?>
<svg width="34px" height="21px" viewBox="0 0 34 21" version="1.1" xmlns="http://www.w3.org/2000/svg" xmlns:xlink="http://www.w3.org/1999/xlink" xmlns:sketch="http://www.bohemiancoding.com/sketch/ns">
    <!-- Generator: Sketch 3.4.4 (17249) - http://www.bohemiancoding.com/sketch -->
    <title>mc-small</title>
    <desc>Created with Sketch.</desc>
    <defs></defs>
    <g id="Page-1" stroke="none" stroke-width="1" fill="none" fill-rule="evenodd" sketch:type="MSPage">
        <g id="mc-small" sketch:type="MSLayerGroup">
            <path d="M33.1,10.1 C33.1,15.6 28.6,20.1 23.1,20.1 C17.6,20.1 13.1,15.6 13.1,10.1 L13.1,10.1 C13.1,4.6 17.6,0.1 23.1,0.1 C28.6,0.1 33.1,4.5 33.1,10.1 L33.1,10.1 L33.1,10.1 Z" id="path2268_16_" fill="#F8991D" sketch:type="MSShapeGroup"></path>
            <path d="M9.9,0.4 C4.5,0.4 0.1,4.7 0.1,10.2 C0.1,15.7 4.8,20.1 10.2,20.1 C12.8,20.1 15.1,19.1 17.1,17.4 L17.1,17.3 L16.6,17.3 C17,17.3 17.3,16.3 17.6,16.3 L15.6,16.3 C15.3,16.3 15.1,15.3 14.9,15.3 L18.4,15.3 C18.6,15.3 18.8,14.3 19,14.3 L14.4,14.3 C14.2,14.3 14.1,13.3 14,13.3 L19.5,13.3 C19.8,12.3 20,10.9 20,9.8 C20,9.1 19.9,8.3 19.8,7.3 L13.8,7.3 C13.9,7.3 14,7.3 14.1,6.3 L19.6,6.3 C19.5,6.3 19.3,6.3 19.2,5.3 L14.6,5.3 C14.8,5.3 15,5.3 15.2,4.3 L18.7,4.3 C18.5,4.3 18.2,4.3 17.9,3.3 L16,3.3 C16.3,3.3 16.6,2.9 17,2.6 C14.9,1.1 12.6,0.4 9.9,0.4 L9.9,0.4 L9.9,0.4 Z" id="path1350_16_" fill="#CB2026" sketch:type="MSShapeGroup"></path>
            <path d="M32.1,15.3 L32.3,15.3 C32.4,15.3 32.4,15.4 32.4,15.4 L32.4,15.6 L32.4,15.8 C32.4,15.9 32.3,15.9 32.3,15.9 L32.1,15.9 L31.9,15.9 C31.8,15.9 31.8,15.8 31.8,15.8 L31.8,15.6 L31.8,15.4 C31.8,15.3 31.9,15.3 31.9,15.3 L32.1,15.3 M32.1,15.3 L32,15.3 L31.9,15.4 L31.9,15.5 L31.9,15.6 L32,15.7 L32.1,15.7 L32.2,15.7 L32.3,15.6 L32.3,15.5 L32.3,15.4 L32.2,15.3 C32.2,15.4 32.2,15.3 32.1,15.3 M32,15.8 L32,15.5 L32.1,15.5 L32.2,15.5 L32.2,15.5 C32.2,15.5 32.2,15.5 32.2,15.6 C32.2,15.6 32.2,15.6 32.2,15.7 C32.2,15.7 32.2,15.7 32.1,15.7 L32.1,15.7 C32.1,15.7 32.1,15.7 32.2,15.8 L32.2,15.9 L32.1,15.9 L32.1,15.8 C32.1,15.8 32.1,15.7 32,15.7 L32,15.7 L32,15.7 L32,15.8 L32,15.8 M32,15.6 L32,15.6 L32.1,15.6 L32.1,15.6 L32.1,15.6 L32.1,15.6 C32.1,15.6 32.1,15.6 32,15.6 L32,15.6 L32,15.6" id="use9412_16_" fill="#FCB341" sketch:type="MSShapeGroup"></path>
            <path d="M13.25595,12.8939 L13.45595,11.9939 L13.15595,11.9939 C12.75595,11.9939 12.75595,11.5939 12.75595,11.3939 L13.15595,9.3939 L13.75595,9.3939 L13.85595,8.3939 L13.25595,8.3939 L13.35595,8.3939 L12.25595,8.3939 C12.25595,8.3939 11.65595,11.7939 11.65595,12.1939 C11.65595,12.7939 11.95595,13.0939 12.45595,13.0939 C12.85595,13.0939 13.15595,12.9939 13.25595,12.8939 L13.25595,12.8939 Z" id="path13804_16_" fill="#21205F" sketch:type="MSShapeGroup"></path>
            <path d="M13.65595,11.1939 C13.65595,12.6939 14.65595,13.0939 15.45595,13.0939 C16.25595,13.0939 16.65595,12.8939 16.65595,12.8939 L16.85595,11.8939 C16.85595,11.8939 16.15595,12.1939 15.65595,12.1939 C14.55595,12.1939 14.75595,11.2939 14.75595,11.2939 L16.95595,11.2939 C16.95595,11.2939 17.05595,10.5939 17.05595,10.2939 C17.05595,9.5939 16.65595,8.6939 15.55595,8.6939 C14.35595,8.7939 13.65595,9.8939 13.65595,11.1939 L13.65595,11.1939 Z M15.45595,9.6939 C16.05595,9.6939 15.95595,10.3939 15.95595,10.3939 L14.75595,10.3939 C14.75595,10.3939 14.85595,9.6939 15.45595,9.6939 L15.45595,9.6939 Z" id="path13806_16_" fill="#21205F" sketch:type="MSShapeGroup"></path>
            <path d="M22.15595,12.8939 L22.25595,11.7939 C22.25595,11.7939 21.75595,12.0939 21.35595,12.0939 C20.65595,12.0939 20.35595,11.4939 20.35595,10.8939 C20.35595,9.5939 20.95595,8.9939 21.75595,8.9939 C22.25595,8.9939 22.75595,9.2939 22.75595,9.2939 L22.95595,8.1939 C22.95595,8.1939 22.45595,7.7939 21.85595,7.7939 C20.25595,7.7939 19.25595,8.9939 19.25595,10.9939 C19.25595,12.2939 19.95595,13.1939 21.25595,13.1939 C21.55595,13.0939 22.15595,12.8939 22.15595,12.8939 L22.15595,12.8939 Z" id="path13808_16_" fill="#21205F" sketch:type="MSShapeGroup"></path>
            <path d="M7.45595,8.7939 C6.75595,8.7939 6.25595,8.9939 6.25595,8.9939 L6.05595,9.8939 C6.05595,9.8939 6.55595,9.6939 7.15595,9.6939 C7.55595,9.6939 7.85595,9.6939 7.85595,10.0939 L7.85595,10.3939 L7.35595,10.3939 C6.35595,10.3939 5.45595,10.7939 5.45595,11.9939 C5.45595,12.8939 6.05595,13.0939 6.45595,13.0939 C7.15595,13.0939 7.45595,12.8939 7.55595,12.8939 L7.55595,13.4939 L8.45595,13.4939 L8.85595,10.2939 C8.95595,8.9939 7.85595,8.7939 7.45595,8.7939 L7.45595,8.7939 Z M7.65595,11.0939 C7.65595,11.2939 7.65595,12.0939 6.95595,12.0939 C6.65595,12.0939 6.55595,11.7939 6.55595,11.6939 C6.55595,11.3939 6.75595,11.0939 7.45595,11.0939 L7.65595,11.0939 L7.65595,11.0939 Z" id="path13810_32_" fill="#21205F" sketch:type="MSShapeGroup"></path>
            <path d="M9.95595,12.9939 C10.15595,12.9939 11.55595,13.0939 11.55595,11.5939 C11.55595,10.2939 10.25595,10.4939 10.25595,9.9939 C10.25595,9.6939 10.45595,9.6939 10.85595,9.6939 L11.55595,9.6939 L11.65595,8.7939 C11.65595,8.7939 11.25595,8.6939 10.65595,8.6939 C9.85595,8.6939 9.05595,8.9939 9.05595,10.0939 C9.05595,11.2939 10.35595,11.1939 10.35595,11.6939 C10.35595,11.9939 9.95595,12.0939 9.65595,12.0939 C9.15595,12.0939 8.75595,11.8939 8.75595,11.8939 L8.65595,12.7939 C8.75595,12.8939 9.05595,12.9939 9.95595,12.9939 L9.95595,12.9939 Z" id="path13812_16_" fill="#21205F" sketch:type="MSShapeGroup"></path>
            <path d="M30.75595,7.8939 L30.55595,9.2939 C30.55595,9.2939 30.15595,8.6939 29.55595,8.6939 C28.35595,8.6939 27.75595,9.8939 27.75595,11.1939 C27.75595,12.0939 28.15595,12.8939 29.05595,12.8939 C29.65595,12.8939 30.05595,12.6939 30.05595,12.6939 L30.05595,13.2939 L31.05595,13.2939 L31.85595,7.9939 L30.75595,7.8939 L30.75595,7.8939 Z M30.35595,10.6939 C30.35595,11.2939 30.05595,11.9939 29.55595,11.9939 C29.15595,11.9939 28.95595,11.6939 28.95595,11.1939 C28.95595,10.3939 29.35595,9.7939 29.75595,9.7939 C30.15595,9.7939 30.35595,10.0939 30.35595,10.6939 L30.35595,10.6939 Z" id="path13814_16_" fill="#21205F" sketch:type="MSShapeGroup"></path>
            <path d="M2.15595,13.1939 L2.65595,9.4939 L2.55595,13.3939 L3.25595,13.3939 L4.65595,9.5939 L4.05595,13.3939 L5.15595,13.3939 L5.95595,8.0939 L4.25595,7.9939 L3.25595,10.7939 L3.25595,7.3939 L1.65595,7.3939 L0.85595,13.3939 L2.25595,13.3939 L2.25595,13.1939 L2.15595,13.1939 Z" id="path13816_16_" fill="#21205F" sketch:type="MSShapeGroup"></path>
            <path d="M18.15595,13.1939 C18.15595,11.3939 18.55595,9.8939 19.35595,10.1939 C19.45595,9.4939 19.75595,8.8939 19.85595,8.5939 C19.85595,8.5939 19.75595,8.4939 19.55595,8.4939 C19.05595,8.4939 18.45595,9.1939 18.45595,9.1939 L18.55595,8.3939 L17.55595,8.3939 L16.85595,13.3939 L18.05595,13.3939 L18.05595,13.1939 L18.15595,13.1939 Z" id="path13818_16_" fill="#21205F" sketch:type="MSShapeGroup"></path>
            <path d="M24.35605,8.7939 C23.65605,8.7939 23.05605,8.9939 23.05605,8.9939 L22.85605,9.8939 C22.85605,9.8939 23.35605,9.6939 23.95605,9.6939 C24.35605,9.6939 24.65605,9.6939 24.65605,10.0939 L24.65605,10.3939 L24.15605,10.3939 C23.15605,10.3939 22.25605,10.7939 22.25605,11.9939 C22.25605,12.8939 22.85605,13.0939 23.25605,13.0939 C23.95605,13.0939 24.25605,12.8939 24.35605,12.8939 L24.35605,13.4939 L25.25605,13.4939 L25.65605,10.2939 C25.75605,8.9939 24.65605,8.7939 24.35605,8.7939 L24.35605,8.7939 Z M24.45605,11.0939 C24.45605,11.2939 24.45605,12.0939 23.75605,12.0939 C23.45605,12.0939 23.35605,11.7939 23.35605,11.6939 C23.35605,11.3939 23.55605,11.0939 24.25605,11.0939 L24.45605,11.0939 L24.45605,11.0939 Z" id="path13810_31_" fill="#21205F" sketch:type="MSShapeGroup"></path>
            <path d="M27.15595,13.1939 C27.15595,11.8939 27.45595,9.9939 28.35595,10.1939 C28.45595,9.4939 28.25595,9.4939 28.05595,9.4939 C27.55595,9.4939 27.45595,9.2939 27.45595,9.2939 L27.55595,8.4939 L26.55595,8.4939 L25.85595,13.4939 L27.25595,13.4939 L27.25595,13.1939 L27.15595,13.1939 Z" id="use14701_16_" fill="#21205F" sketch:type="MSShapeGroup"></path>
            <path d="M13.6,12.6 L13.7,11.7 L13.4,11.7 C13,11.7 13,11.5 13,11.3 L13.3,9.4 L13.9,9.4 L14,8.4 L13.5,8.4 L13.6,7.4 L12.5,7.4 C12.5,8.4 11.9,11.1 11.9,11.6 C11.9,12.2 12.2,12.6 12.7,12.6 C13.1,12.6 13.4,12.6 13.6,12.6 L13.6,12.6 Z" id="path4157_16_" fill="#FFFFFF" sketch:type="MSShapeGroup"></path>
            <path d="M13.9,10.9 C13.9,12.4 14.9,12.8 15.7,12.8 C16.5,12.8 16.8,12.6 16.8,12.6 L17,11.6 C17,11.6 16.4,12.1 15.9,12.1 C14.8,12.1 15,11.5 15,11.5 L17.1,11.5 C17.1,11.5 17.2,10.6 17.2,10.3 C17.2,9.6 16.9,8.6 15.7,8.6 C14.7,8.5 13.9,9.6 13.9,10.9 L13.9,10.9 Z M15.7,9.4 C16.3,9.4 16.2,10.1 16.2,10.1 L15,10.1 C15,10 15.2,9.4 15.7,9.4 L15.7,9.4 Z" id="path4155_16_" fill="#FFFFFF" sketch:type="MSShapeGroup"></path>
            <path d="M22.4,12.6 L22.6,11.4 C22.6,11.4 22.1,11.7 21.7,11.7 C21,11.7 20.7,11.1 20.7,10.5 C20.7,9.2 21.3,8.6 22.1,8.6 C22.6,8.6 23.1,8.9 23.1,8.9 L23.3,7.8 C23.3,7.8 22.7,7.5 22.1,7.5 C20.9,7.5 19.7,8.6 19.7,10.6 C19.7,11.9 20.3,12.8 21.6,12.8 C21.8,12.7 22.4,12.6 22.4,12.6 L22.4,12.6 Z" id="path4151_16_" fill="#FFFFFF" sketch:type="MSShapeGroup"></path>
            <path d="M7.8,8.4 C7,8.4 6.5,8.7 6.5,8.7 L6.3,9.6 C6.3,9.6 6.8,9.4 7.4,9.4 C7.8,9.4 8.1,9.4 8.1,9.8 L8.1,10.1 L7.6,10.1 C6.7,10.1 5.7,10.5 5.7,11.7 C5.7,12.6 6.3,12.8 6.7,12.8 C7.4,12.8 7.8,12.2 7.8,12.2 L7.8,12.5 L8.7,12.5 L9.1,9.7 C9.2,8.4 8.1,8.4 7.8,8.4 L7.8,8.4 Z M8,10.8 C8,11 7.9,11.8 7.3,11.8 C7,11.8 6.9,11.5 6.9,11.4 C6.9,11.1 7.1,10.8 7.8,10.8 L8,10.8 L8,10.8 Z" id="path4149_32_" fill="#FFFFFF" sketch:type="MSShapeGroup"></path>
            <path d="M10.2,12.7 C10.4,12.7 11.8,12.8 11.8,11.3 C11.8,10 10.5,10.2 10.5,9.7 C10.5,9.4 10.7,9.4 11.1,9.4 L11.8,9.4 L12,8.5 C12,8.5 11.6,8.4 11,8.4 C10.2,8.4 9.4,8.7 9.4,9.8 C9.4,11 10.7,10.9 10.7,11.4 C10.7,11.7 10.3,11.8 10,11.8 C9.5,11.8 9.1,11.6 9.1,11.6 L9,12.6 C9,12.6 9.3,12.7 10.2,12.7 L10.2,12.7 Z" id="path4145_16_" fill="#FFFFFF" sketch:type="MSShapeGroup"></path>
            <path d="M31.1,7.6 L30.9,9 C30.9,9 30.5,8.4 29.9,8.4 C28.9,8.4 28.1,9.6 28.1,10.9 C28.1,11.8 28.5,12.6 29.4,12.6 C30,12.6 30.4,12 30.4,12 L30.4,12.3 L31.4,12.3 L32.2,7.3 L31.1,7.6 L31.1,7.6 Z M30.6,10.4 C30.6,11 30.3,11.7 29.8,11.7 C29.4,11.7 29.2,11.4 29.2,10.9 C29.2,10.1 29.6,9.5 30,9.5 C30.4,9.5 30.6,9.8 30.6,10.4 L30.6,10.4 Z" id="path4139_16_" fill="#FFFFFF" sketch:type="MSShapeGroup"></path>
            <path d="M2.1,12.4 L2.7,8.6 L2.8,12.4 L3.5,12.4 L4.9,8.6 L4.3,12.4 L5.4,12.4 L6.2,7.4 L4.5,7.4 L3.5,10.5 L3.4,7.4 L1.9,7.4 L1.1,12.4 L2.1,12.4 L2.1,12.4 Z" id="path4133_16_" fill="#FFFFFF" sketch:type="MSShapeGroup"></path>
            <path d="M18.3,12.4 C18.6,10.4 18.7,9.3 19.4,9.6 C19.5,8.9 19.7,8.7 19.8,8.4 L19.6,8.4 C19.1,8.4 18.8,9 18.8,9 L18.9,8.4 L17.9,8.4 L17.2,12.4 L18.3,12.4 L18.3,12.4 Z" id="path4131_32_" fill="#FFFFFF" sketch:type="MSShapeGroup"></path>
            <path d="M24.8062,8.4 C24.1062,8.4 23.5062,8.6 23.5062,8.6 L23.3062,9.5 C23.3062,9.5 23.8062,9.3 24.4062,9.3 C24.8062,9.3 25.1062,9.3 25.1062,9.7 L25.1062,10 L24.6062,10 C23.7062,10 22.7062,10.4 22.7062,11.6 C22.7062,12.5 23.3062,12.7 23.7062,12.7 C24.4062,12.7 24.8062,12.1 24.8062,12.1 L24.8062,12.4 L25.7062,12.4 L26.1062,9.6 C26.3062,8.4 25.2062,8.4 24.8062,8.4 L24.8062,8.4 Z M25.0062,10.8 C25.0062,11 24.9062,11.8 24.3062,11.8 C24.0062,11.8 23.9062,11.5 23.9062,11.4 C23.9062,11.1 24.1062,10.8 24.8062,10.8 L25.0062,10.8 L25.0062,10.8 Z" id="path4149_31_" fill="#FFFFFF" sketch:type="MSShapeGroup"></path>
            <path d="M27.0857,12.4 C27.3857,10.4 27.4857,9.3 28.1857,9.6 C28.2857,8.9 28.4857,8.7 28.5857,8.4 L28.3857,8.4 C27.8857,8.4 27.5857,9 27.5857,9 L27.6857,8.4 L26.6857,8.4 L25.9857,12.4 L27.0857,12.4 L27.0857,12.4 Z" id="path4131_31_" fill="#FFFFFF" sketch:type="MSShapeGroup"></path>
            <path d="M32.1,12 L32.3,12 C32.4,12 32.4,12.1 32.4,12.1 L32.4,12.3 L32.4,12.5 C32.4,12.6 32.3,12.6 32.3,12.6 L32.1,12.6 L31.9,12.6 C31.8,12.6 31.8,12.5 31.8,12.5 L31.8,12.3 L31.8,12.1 C31.8,12 31.9,12 31.9,12 L32.1,12 M32.1,12.1 L32,12.1 L31.9,12.2 L31.9,12.3 L31.9,12.4 L32,12.5 L32.1,12.5 L32.2,12.5 L32.3,12.4 L32.3,12.3 L32.3,12.2 L32.2,12.1 C32.2,12.1 32.2,12.1 32.1,12.1 M32,12.5 L32,12.2 L32.1,12.2 L32.2,12.2 L32.2,12.2 C32.2,12.2 32.2,12.2 32.2,12.3 C32.2,12.3 32.2,12.3 32.2,12.4 C32.2,12.4 32.2,12.4 32.1,12.4 L32.1,12.4 C32.1,12.4 32.1,12.4 32.2,12.5 L32.2,12.6 L32.1,12.6 L32.1,12.5 C32.1,12.5 32.1,12.4 32,12.4 L32,12.4 L32,12.4 L32,12.5 L32,12.5 M32,12.3 L32,12.3 L32.1,12.3 L32.1,12.3 L32.1,12.3 L32.1,12.3 C32.1,12.3 32.1,12.3 32,12.3 L32,12.3 L32,12.3" id="text9407_16_" fill="#FFFFFF" sketch:type="MSShapeGroup"></path>
        </g>
    </g>
</svg>