<?xml version="1.0" encoding="utf-8"?>
<!-- Generator: Adobe Illustrator 19.0.0, SVG Export Plug-In . SVG Version: 6.00 Build 0)  -->
<svg version="1.1" id="Слой_1" xmlns="http://www.w3.org/2000/svg" xmlns:xlink="http://www.w3.org/1999/xlink" x="0px" y="0px"
	 viewBox="0 0 33 20" style="enable-background:new 0 0 33 20;" xml:space="preserve">
<style type="text/css">
	.st0{fill:#F8991D;}
	.st1{fill:#CB2026;}
	.st2{fill:#FCB341;}
	.st3{fill:#21205F;}
	.st4{fill:#FFFFFF;}
</style>
<g>
	<g id="layer1_1_">
		<g id="g10305_1_">
			<path id="path2268_1_" class="st0" d="M33,10c0,5.5-4.4,10-9.9,10c-5.5,0-9.9-4.5-9.9-10c0,0,0,0,0,0c0-5.5,4.4-10,9.9-10
				C28.6,0,33,4.5,33,10C33,10,33,10,33,10z"/>
			<path id="path1350_1_" class="st1" d="M9.8,0C4.4,0.1,0,4.5,0,10c0,5.5,4.4,10,9.9,10c2.6,0,4.9-1,6.6-2.6c0,0,0,0,0,0h0
				c0.4-0.3,0.7-0.7,1-1.1h-2c-0.3-0.3-0.5-0.7-0.7-1h3.5c0.2-0.3,0.4-0.7,0.6-1.1h-4.6c-0.2-0.3-0.3-0.7-0.4-1.1h5.5
				c0.3-1,0.5-2.1,0.5-3.2c0-0.7-0.1-1.5-0.2-2.1h-6c0.1-0.4,0.2-0.7,0.3-1.1h5.5c-0.1-0.4-0.3-0.7-0.4-1.1h-4.6
				c0.2-0.4,0.4-0.7,0.6-1.1h3.5C18,4.3,17.8,4,17.5,3.6h-1.9c0.3-0.4,0.6-0.7,1-1C14.8,1,12.4,0,9.8,0C9.9,0,9.8,0,9.8,0z"/>
			<path id="use9412_1_" class="st2" d="M32,15.3c0.1,0,0.1,0,0.2,0c0.1,0,0.1,0.1,0.1,0.1c0,0.1,0,0.1,0,0.2c0,0.1,0,0.1,0,0.2
				c0,0.1-0.1,0.1-0.1,0.1c-0.1,0-0.1,0-0.2,0c-0.1,0-0.1,0-0.2,0c-0.1,0-0.1-0.1-0.1-0.1c0-0.1,0-0.1,0-0.2c0-0.1,0-0.1,0-0.2
				c0-0.1,0.1-0.1,0.1-0.1C31.9,15.3,32,15.3,32,15.3 M32,15.3c0,0-0.1,0-0.1,0c0,0-0.1,0.1-0.1,0.1c0,0,0,0.1,0,0.1
				c0,0,0,0.1,0,0.1c0,0,0.1,0.1,0.1,0.1c0,0,0.1,0,0.1,0c0,0,0.1,0,0.1,0c0,0,0.1-0.1,0.1-0.1c0,0,0-0.1,0-0.1c0,0,0-0.1,0-0.1
				c0,0-0.1-0.1-0.1-0.1C32.1,15.3,32.1,15.3,32,15.3 M31.9,15.8v-0.3H32c0,0,0.1,0,0.1,0c0,0,0,0,0,0c0,0,0,0,0,0.1c0,0,0,0,0,0.1
				c0,0,0,0-0.1,0c0,0,0,0,0,0c0,0,0,0,0.1,0.1l0,0.1h-0.1l0-0.1c0,0,0-0.1-0.1-0.1c0,0,0,0,0,0h0L31.9,15.8L31.9,15.8 M31.9,15.6
				L31.9,15.6c0.1,0,0.1,0,0.1,0c0,0,0,0,0,0c0,0,0,0,0,0c0,0,0,0,0,0c0,0,0,0-0.1,0h-0.1L31.9,15.6"/>
		</g>
		<g id="g16480_1_">
			<g id="g13802_1_" transform="translate(-13.74405,15.9939)">
				<path id="path13804_1_" class="st3" d="M26.9-3.1L27-4c-0.1,0-0.2,0-0.3,0c-0.4,0-0.4-0.2-0.4-0.3l0.4-1.8h0.6l0.1-1h-0.5
					L27-7.8h-1.1c0,0-0.6,3.5-0.6,3.9c0,0.6,0.3,0.9,0.8,0.9C26.5-3,26.8-3.1,26.9-3.1z"/>
				<path id="path13806_1_" class="st3" d="M27.2-4.8c0,1.5,1,1.9,1.8,1.9c0.8,0,1.2-0.2,1.2-0.2l0.2-1c0,0-0.7,0.3-1.2,0.3
					c-1.1,0-0.9-0.9-0.9-0.9l2.2,0c0,0,0.1-0.7,0.1-1c0-0.7-0.4-1.6-1.5-1.6C28-7.3,27.2-6.1,27.2-4.8z M29.1-6.3
					c0.6,0,0.5,0.7,0.5,0.7h-1.2C28.4-5.7,28.5-6.3,29.1-6.3z"/>
				<path id="path13808_1_" class="st3" d="M35.7-3.1l0.2-1.2c0,0-0.5,0.3-0.9,0.3c-0.7,0-1-0.6-1-1.2c0-1.3,0.6-1.9,1.4-1.9
					c0.5,0,1,0.3,1,0.3L36.5-8c0,0-0.5-0.4-1.1-0.4c-1.6,0-2.6,1.2-2.6,3.2c0,1.3,0.7,2.2,2,2.2C35.2-3,35.7-3.1,35.7-3.1z"/>
				<path id="path13810_3_" class="st3" d="M21.1-7.3c-0.7,0-1.3,0.2-1.3,0.2l-0.2,0.9c0,0,0.5-0.2,1.1-0.2c0.4,0,0.7,0,0.7,0.4
					c0,0.2,0,0.3,0,0.3s-0.3,0-0.5,0c-1,0-1.9,0.4-1.9,1.6c0,0.9,0.6,1.1,1,1.1c0.7,0,1-0.5,1.1-0.5l0,0.4h0.9L22.6-6
					C22.6-7.2,21.5-7.3,21.1-7.3z M21.3-4.9c0,0.2,0,1-0.7,1c-0.3,0-0.4-0.3-0.4-0.4c0-0.3,0.2-0.6,0.9-0.6
					C21.3-4.9,21.2-4.9,21.3-4.9z"/>
				<path id="path13812_1_" class="st3" d="M23.5-3c0.2,0,1.6,0.1,1.6-1.4c0-1.3-1.3-1.1-1.3-1.6c0-0.3,0.2-0.3,0.6-0.3
					c0.1,0,0.7,0,0.7,0l0.1-0.9c0,0-0.4-0.1-1-0.1c-0.8,0-1.6,0.3-1.6,1.4c0,1.2,1.3,1.1,1.3,1.6c0,0.3-0.4,0.4-0.7,0.4
					c-0.5,0-0.9-0.2-0.9-0.2l-0.1,0.9C22.4-3.1,22.7-3,23.5-3z"/>
				<path id="path13814_1_" class="st3" d="M44.4-8.1l-0.2,1.4c0,0-0.4-0.6-1-0.6c-1.2,0-1.8,1.2-1.8,2.5c0,0.9,0.4,1.7,1.3,1.7
					c0.6,0,1-0.4,1-0.4l0,0.4h1l0.8-5.1L44.4-8.1z M44-5.3C44-4.8,43.7-4,43.1-4c-0.4,0-0.6-0.3-0.6-0.8c0-0.8,0.4-1.4,0.8-1.4
					C43.8-6.2,44-5.9,44-5.3z"/>
				<path id="path13816_1_" class="st3" d="M15.4-3l0.6-3.8L16.2-3h0.7l1.4-3.8L17.6-3h1.1l0.8-5.1l-1.7,0l-1,3.1l0-3.1h-1.6L14.4-3
					L15.4-3L15.4-3z"/>
				<path id="path13818_1_" class="st3" d="M31.6-3c0.3-1.8,0.4-3.2,1.3-2.9c0.1-0.7,0.4-1.3,0.6-1.6c0,0,0-0.1-0.3-0.1
					c-0.5,0-1.1,1-1.1,1l0.1-0.6h-1L30.5-3L31.6-3L31.6-3z"/>
				<g id="use14699_1_" transform="translate(845.3001,0)">
					<path id="path13810_2_" class="st3" d="M-807.4-7.3c-0.7,0-1.3,0.2-1.3,0.2l-0.2,0.9c0,0,0.5-0.2,1.1-0.2c0.4,0,0.7,0,0.7,0.4
						c0,0.2,0,0.3,0,0.3s-0.3,0-0.5,0c-1,0-1.9,0.4-1.9,1.6c0,0.9,0.6,1.1,1,1.1c0.7,0,1-0.5,1.1-0.5l0,0.4h0.9l0.4-2.9
						C-805.9-7.2-807-7.3-807.4-7.3z M-807.2-4.9c0,0.2,0,1-0.7,1c-0.3,0-0.4-0.3-0.4-0.4c0-0.3,0.2-0.6,0.9-0.6
						C-807.2-4.9-807.2-4.9-807.2-4.9z"/>
				</g>
				<path id="use14701_1_" class="st3" d="M40.4-3c0.2-1.3,0.5-3.1,1.3-2.9c0.1-0.7,0-0.7-0.3-0.7c-0.5,0-0.6,0-0.6,0L41-7.2h-1
					L39.4-3L40.4-3L40.4-3z"/>
			</g>
			<g id="g10289_1_">
				<path id="path4157_1_" class="st4" d="M13.4,12.6l0.1-0.9c-0.1,0-0.2,0-0.3,0c-0.4,0-0.4-0.2-0.4-0.3l0.3-1.8h0.6l0.1-1h-0.5
					l0.1-0.6h-1.1c0,0-0.6,3.5-0.6,3.9c0,0.6,0.3,0.9,0.8,0.9C13,12.7,13.3,12.6,13.4,12.6z"/>
				<path id="path4155_1_" class="st4" d="M13.8,10.8c0,1.5,1,1.9,1.8,1.9c0.8,0,1.1-0.2,1.1-0.2l0.2-1c0,0-0.6,0.3-1.1,0.3
					c-1.1,0-0.9-0.9-0.9-0.9H17c0,0,0.1-0.7,0.1-1c0-0.7-0.3-1.6-1.5-1.6C14.5,8.4,13.8,9.5,13.8,10.8z M15.6,9.3
					c0.6,0,0.5,0.7,0.5,0.7h-1.2C14.9,10,15,9.3,15.6,9.3z"/>
				<path id="path4151_1_" class="st4" d="M22.3,12.6l0.2-1.2c0,0-0.5,0.3-0.9,0.3c-0.7,0-1-0.6-1-1.2c0-1.3,0.6-1.9,1.4-1.9
					c0.5,0,1,0.3,1,0.3L23,7.7c0,0-0.6-0.3-1.2-0.3c-1.2,0-2.4,1.1-2.4,3.1c0,1.3,0.6,2.2,1.9,2.2C21.7,12.7,22.3,12.6,22.3,12.6z"
					/>
				<path id="path4149_3_" class="st4" d="M7.6,8.4c-0.7,0-1.3,0.2-1.3,0.2L6.2,9.6c0,0,0.5-0.2,1.1-0.2c0.4,0,0.7,0,0.7,0.4
					C8,9.9,8,10,8,10s-0.3,0-0.5,0c-0.9,0-1.9,0.4-1.9,1.6c0,0.9,0.6,1.1,1,1.1c0.7,0,1.1-0.5,1.1-0.5l0,0.4h0.9l0.4-2.9
					C9.1,8.4,8,8.4,7.6,8.4z M7.9,10.8c0,0.2-0.1,1-0.7,1c-0.3,0-0.4-0.3-0.4-0.4c0-0.3,0.2-0.6,0.9-0.6C7.8,10.8,7.8,10.8,7.9,10.8
					z"/>
				<path id="path4145_1_" class="st4" d="M10.1,12.7c0.2,0,1.6,0.1,1.6-1.4c0-1.3-1.3-1.1-1.3-1.6c0-0.3,0.2-0.3,0.6-0.3
					c0.1,0,0.7,0,0.7,0l0.1-0.9c0,0-0.4-0.1-1-0.1c-0.8,0-1.6,0.3-1.6,1.4c0,1.2,1.3,1.1,1.3,1.6c0,0.3-0.4,0.4-0.7,0.4
					c-0.5,0-0.9-0.2-0.9-0.2l-0.1,0.9C8.9,12.6,9.2,12.7,10.1,12.7z"/>
				<path id="path4139_1_" class="st4" d="M31,7.6L30.7,9c0,0-0.4-0.6-1-0.6c-1,0-1.8,1.2-1.8,2.5c0,0.9,0.4,1.7,1.3,1.7
					c0.6,0,1-0.4,1-0.4l0,0.4h1L32,7.6L31,7.6z M30.5,10.3c0,0.6-0.3,1.3-0.8,1.3c-0.4,0-0.6-0.3-0.6-0.8c0-0.8,0.4-1.4,0.8-1.4
					C30.3,9.5,30.5,9.7,30.5,10.3z"/>
				<path id="path4133_1_" class="st4" d="M2,12.6l0.6-3.8l0.1,3.8h0.7l1.4-3.8l-0.6,3.8h1.1l0.8-5.1H4.4l-1,3.1L3.3,7.6H1.8
					l-0.8,5.1L2,12.6z"/>
				<path id="path4131_3_" class="st4" d="M18.2,12.6c0.3-1.8,0.4-3.2,1.1-2.9c0.1-0.7,0.3-0.9,0.4-1.2c0,0-0.1,0-0.2,0
					c-0.5,0-0.8,0.7-0.8,0.7l0.1-0.6h-1l-0.7,4.1H18.2z"/>
				<g id="use8523_1_" transform="translate(847.0062,0)">
					<path id="path4149_2_" class="st4" d="M-822.3,8.4c-0.7,0-1.3,0.2-1.3,0.2l-0.2,0.9c0,0,0.5-0.2,1.1-0.2c0.4,0,0.7,0,0.7,0.4
						c0,0.2,0,0.3,0,0.3s-0.3,0-0.5,0c-0.9,0-1.9,0.4-1.9,1.6c0,0.9,0.6,1.1,1,1.1c0.7,0,1.1-0.5,1.1-0.5l0,0.4c0,0,0.9,0,0.9,0
						l0.4-2.9C-820.9,8.4-821.9,8.4-822.3,8.4z M-822.1,10.8c0,0.2-0.1,1-0.7,1c-0.3,0-0.4-0.3-0.4-0.4c0-0.3,0.2-0.6,0.9-0.6
						C-822.1,10.8-822.1,10.8-822.1,10.8z"/>
				</g>
				<g id="use8525_1_" transform="translate(442.2857,0)">
					<path id="path4131_2_" class="st4" d="M-415.3,12.6c0.3-1.8,0.4-3.2,1.1-2.9c0.1-0.7,0.3-0.9,0.4-1.2c0,0-0.1,0-0.2,0
						c-0.5,0-0.8,0.7-0.8,0.7l0.1-0.6h-1l-0.7,4.1H-415.3z"/>
				</g>
				<path id="text9407_1_" class="st4" d="M32,12c0.1,0,0.1,0,0.2,0c0.1,0,0.1,0.1,0.1,0.1c0,0.1,0,0.1,0,0.2c0,0.1,0,0.1,0,0.2
					c0,0.1-0.1,0.1-0.1,0.1c-0.1,0-0.1,0-0.2,0c-0.1,0-0.1,0-0.2,0c-0.1,0-0.1-0.1-0.1-0.1c0-0.1,0-0.1,0-0.2c0-0.1,0-0.1,0-0.2
					c0-0.1,0.1-0.1,0.1-0.1C31.9,12,32,12,32,12 M32,12.1c0,0-0.1,0-0.1,0c0,0-0.1,0.1-0.1,0.1c0,0,0,0.1,0,0.1s0,0.1,0,0.1
					c0,0,0.1,0.1,0.1,0.1c0,0,0.1,0,0.1,0c0,0,0.1,0,0.1,0c0,0,0.1-0.1,0.1-0.1c0,0,0-0.1,0-0.1s0-0.1,0-0.1c0,0-0.1-0.1-0.1-0.1
					C32.1,12.1,32,12.1,32,12.1 M31.9,12.5v-0.3H32c0,0,0.1,0,0.1,0c0,0,0,0,0,0c0,0,0,0,0,0.1c0,0,0,0,0,0.1c0,0,0,0-0.1,0
					c0,0,0,0,0,0c0,0,0,0,0.1,0.1l0,0.1h-0.1l0-0.1c0,0,0-0.1-0.1-0.1c0,0,0,0,0,0h0L31.9,12.5L31.9,12.5 M31.9,12.3L31.9,12.3
					c0.1,0,0.1,0,0.1,0c0,0,0,0,0,0c0,0,0,0,0,0c0,0,0,0,0,0c0,0,0,0-0.1,0h-0.1L31.9,12.3"/>
			</g>
		</g>
	</g>
</g>
</svg>
