<?xml version="1.0" encoding="utf-8"?>
<!-- Generator: Adobe Illustrator 19.0.0, SVG Export Plug-In . SVG Version: 6.00 Build 0)  -->
<svg version="1.1" id="Слой_1" xmlns="http://www.w3.org/2000/svg" xmlns:xlink="http://www.w3.org/1999/xlink" x="0px" y="0px"
	 viewBox="0 0 60.2 60.1" style="enable-background:new 0 0 60.2 60.1;" xml:space="preserve">
<style type="text/css">
	.st0{opacity:0.4;}
	.st1{fill:#ECEFF0;}
	.st2{fill-rule:evenodd;clip-rule:evenodd;fill:#7CB342;}
</style>
<g id="XMLID_65_" class="st0">
	<path id="XMLID_82_" class="st1" d="M60.1,52.1c0,4.4-3.6,8-8,8h-44c-4.4,0-8-3.6-8-8v-44c0-4.4,3.6-8,8-8h44c4.4,0,8,3.6,8,8V52.1
		z"/>
</g>
<g id="XMLID_56_">
	<path id="XMLID_62_" class="st2" d="M30.3,15C22,15,15,21.7,15,30c0,7.4,5.1,13.5,12.1,14.8V31.6c0-0.6,0.7-1.5,1.4-1.5h2
		c0.1,0,0.6,0.3,0.6,0.3V15C30.1,15,30.5,15,30.3,15L30.3,15z M27.1,27.9c-1,0-1.8-0.8-1.8-1.8c0-1,0.8-1.8,1.8-1.8
		c1,0,1.8,0.8,1.8,1.8C28.9,27.1,28.1,27.9,27.1,27.9L27.1,27.9z"/>
	<path id="XMLID_57_" class="st2" d="M32.1,15.2V31c0,0.6-0.3,1-0.9,1h-2c-0.1,0-0.1,0.1-0.1,0.2V45c0,0,0.6,0,0.9,0
		c8.3,0,14.9-6.7,14.9-15C44.9,22.5,40.1,16.3,32.1,15.2L32.1,15.2z M32.2,37.7c-0.9,0-1.6-0.7-1.6-1.6c0-0.9,0.7-1.6,1.6-1.6
		c0.9,0,1.6,0.7,1.6,1.6C33.8,37,33.1,37.7,32.2,37.7L32.2,37.7z M36.4,37.7c-0.9,0-1.6-0.7-1.6-1.6c0-0.9,0.7-1.6,1.6-1.6
		c0.9,0,1.6,0.7,1.6,1.6C38,37,37.3,37.7,36.4,37.7L36.4,37.7z M40.6,37.7c-0.9,0-1.6-0.7-1.6-1.6c0-0.9,0.7-1.6,1.6-1.6
		c0.9,0,1.6,0.7,1.6,1.6C42.2,37,41.5,37.7,40.6,37.7L40.6,37.7z"/>
</g>
</svg>
