<?xml version="1.0" encoding="utf-8"?>
<!-- Generator: Adobe Illustrator 19.0.0, SVG Export Plug-In . SVG Version: 6.00 Build 0)  -->
<svg version="1.1" id="Слой_1" xmlns="http://www.w3.org/2000/svg" xmlns:xlink="http://www.w3.org/1999/xlink" x="0px" y="0px"
	 viewBox="0 0 70.2 48.2" width="70" height="48" style="enable-background:new 0 0 70.2 48.2;" xml:space="preserve">
<style type="text/css">
	.st0{fill:#70B2E2;}
</style>
<g id="XMLID_8_">
	<path id="XMLID_10_" class="st0" d="M19.2,21.9h-3.9v3.2H13v-3.2h-2.4v-1.8H13v-1.6h-2.4v-1.8H13V8.1h6.3c1.8,0,3.3,0.5,4.3,1.4
		s1.6,2.2,1.6,3.8c0,1.7-0.5,2.9-1.5,3.8s-2.5,1.4-4.4,1.4h-4.1v1.6h3.9V21.9z M15.3,16.6h4.1c1.2,0,2.1-0.3,2.8-0.9
		s0.9-1.4,0.9-2.5c0-1-0.3-1.8-1-2.4c-0.7-0.6-1.5-0.9-2.7-0.9h-4.1V16.6z"/>
</g>
<g>
	<rect x="44.2" y="32.1" class="st0" width="26" height="2"/>
</g>
<g>
	<rect x="46.2" y="10.1" class="st0" width="2" height="20"/>
</g>
<g>
	<rect x="51.2" y="10.1" class="st0" width="2" height="20"/>
</g>
<g>
	<rect x="56.2" y="10.1" class="st0" width="2" height="20"/>
</g>
<g>
	<rect x="61.2" y="10.1" class="st0" width="2" height="20"/>
</g>
<g>
	<rect x="66.2" y="10.1" class="st0" width="2" height="20"/>
</g>
<g id="XMLID_5_">
	<path class="st0" d="M57.2,2.3l8.2,3.8H49L57.2,2.3 M57.2,0.1l-13,6v2h26v-2L57.2,0.1L57.2,0.1z"/>
</g>
<g id="XMLID_2_">
	<path class="st0" d="M17.2,2.1c8.3,0,15,6.7,15,15s-6.7,15-15,15s-15-6.7-15-15S9,2.1,17.2,2.1 M17.2,0.1c-9.4,0-17,7.6-17,17
		s7.6,17,17,17s17-7.6,17-17S26.6,0.1,17.2,0.1L17.2,0.1z"/>
</g>
<g id="XMLID_1_">
	<polygon class="st0" points="52.2,40.1 48.2,44.1 56.2,44.1 52.2,40.1 	"/>
</g>
<g>
	<path id="XMLID_9_" class="st0" d="M49.2,48.1h-23c-2.2,0-4-1.8-4-4v-3h2v3c0,1.1,0.9,2,2,2h23c1.1,0,2-0.9,2-2v-3h2v3
		C53.2,46.3,51.5,48.1,49.2,48.1z"/>
</g>
</svg>
