<?xml version="1.0" encoding="utf-8"?>
<!-- Generator: Adobe Illustrator 19.0.0, SVG Export Plug-In . SVG Version: 6.00 Build 0)  -->
<svg version="1.1" id="Слой_1" xmlns="http://www.w3.org/2000/svg" xmlns:xlink="http://www.w3.org/1999/xlink" x="0px" y="0px"
	 viewBox="0 0 59.3 51.1" style="enable-background:new 0 0 59.3 51.1;" width="59" height="51" xml:space="preserve">
<style type="text/css">
	.st0{fill:#70B2E2;}
	.st1{opacity:0.5;}
	.st2{fill:none;stroke:#57A0D7;stroke-width:2;stroke-miterlimit:10;}
	.st3{fill:none;stroke:#57A0D7;stroke-width:2;stroke-miterlimit:10;stroke-dasharray:1,1;}
	.st4{fill:none;stroke:#70B2E2;stroke-width:2;stroke-miterlimit:10;}
</style>
<g>
	<g>
		<g>
			<path id="XMLID_54_" class="st0" d="M10.2,4.3V1.7c0-0.1,0.3-0.2,0.3-0.3l8.5,9c0.4,0.3,0.8,0.5,1.1,0.5s0.7-0.1,1-0.4l0.1,0
				l8-9.3c0.1,0.1,0.1,0.3,0.1,0.5v2.6l-9.8,8.3L10.2,4.3z"/>
			<path id="XMLID_51_" class="st0" d="M28.8,3.4v0.4l-1.3,1.1L28.8,3.4 M29,0.1c-0.2,0-0.2,0-0.3,0.1l-8.3,9.5
				c-0.1,0.1-0.2,0.1-0.3,0.1s-0.2,0-0.3-0.1l-8.7-9.5c-0.1-0.1-0.5-0.1-0.6-0.1c-0.5,0-1.2,0.7-1.2,1.6v3l10,8.8
				c0.2,0.1,0.4,0.1,0.6,0.1c0.2,0,0.1,0,0.3-0.1l10.2-8.8v-3C30.2,0.8,29.7,0.1,29,0.1L29,0.1z"/>
		</g>
		<g>
			<path id="XMLID_47_" class="st0" d="M2.2,7.2l16.5,7.6c0.5,0.2,1,0.3,1.5,0.3s1-0.1,1.5-0.3l16.5-7.6v15.6l-18,8.3l-18-8.3V7.2
				 M38.7,5c-0.2,0-0.4,0-0.7,0.1L20.9,13c-0.2,0.1-0.4,0.1-0.7,0.1s-0.5,0-0.7-0.1L2.5,5.2C2.3,5.1,2.1,5,1.8,5
				C1,5,0.2,5.7,0.2,6.6v16.5c0,0.6,0.4,1.2,0.9,1.5L19.6,33c0.2,0.1,0.4,0.1,0.7,0.1s0.5,0,0.7-0.1l18.4-8.5
				c0.6-0.3,0.9-0.8,0.9-1.5V6.6C40.2,5.7,39.5,5,38.7,5L38.7,5z"/>
		</g>
		<g>
			<path id="XMLID_43_" class="st0" d="M2.2,7.2l16.5,7.6c0.5,0.2,1,0.3,1.5,0.3s1-0.1,1.5-0.3l16.5-7.6v15.6l-18,8.3l-18-8.3V7.2
				 M38.7,5c-0.2,0-0.4,0-0.7,0.1L20.9,13c-0.2,0.1-0.4,0.1-0.7,0.1s-0.5,0-0.7-0.1L2.5,5.2C2.3,5.1,2.1,5,1.8,5
				C1,5,0.2,5.7,0.2,6.6v16.5c0,0.6,0.4,1.2,0.9,1.5L19.6,33c0.2,0.1,0.4,0.1,0.7,0.1s0.5,0,0.7-0.1l18.4-8.5
				c0.6-0.3,0.9-0.8,0.9-1.5V6.6C40.2,5.7,39.5,5,38.7,5L38.7,5z"/>
		</g>
		<g>
			<path id="XMLID_42_" class="st0" d="M19.9,14.2c0,0-0.4,0-0.4-0.1L4.2,5.4V3.2c0-0.4,0.6-0.6,0.7-0.6l14,9.7
				c0.4,0.2,0.8,0.3,1.1,0.3s0.7-0.1,1-0.3l0.1-0.1l13.5-9.7c0,0-0.2,0-0.1,0c0.4,0,0.7,0.4,0.7,0.6v2.2l-15.4,8.8
				C19.8,14.1,20,14.2,19.9,14.2z"/>
			<path id="XMLID_38_" class="st0" d="M34.2,4.1v0.7l-6.2,3.5l6.2-4.5 M5.2,4.2L10.7,8L5.2,4.8V4.2 M34.6,1.6c-0.2,0-0.3,0-0.5,0.1
				l-13.5,9.7c-0.2,0.1-0.3,0.1-0.5,0.1c-0.2,0-0.3,0-0.5-0.1L5.8,1.7C5.6,1.6,5.2,1.6,5,1.6c-0.7,0-1.7,0.7-1.7,1.6V6L19.1,15
				c0.2,0.1,0.5,0.1,0.7,0.1s0.2,0,0.4-0.1l16-9.1V3.2C36.2,2.3,35.4,1.6,34.6,1.6L34.6,1.6z"/>
		</g>
		<g>
			<path id="XMLID_33_" class="st0" d="M36.2,14.9c-0.9,0-1.6,0.7-1.6,1.6c0,0.9,0.7,1.6,1.6,1.6s1.6-0.7,1.6-1.6
				C37.9,15.6,37.1,14.9,36.2,14.9L36.2,14.9z"/>
		</g>
	</g>
	<g class="st1">
		<g id="XMLID_25_">
			<line id="XMLID_31_" class="st2" x1="20.2" y1="15.1" x2="20.2" y2="15.1"/>
			<line id="XMLID_30_" class="st3" x1="20.2" y1="16.1" x2="20.2" y2="31.1"/>
			<line id="XMLID_29_" class="st2" x1="20.2" y1="31.1" x2="20.2" y2="32.1"/>
		</g>
	</g>
</g>
<g>
	<path id="XMLID_26_" class="st0" d="M49.2,21.1c1.7,0,3,1.3,3,3s-1.3,3-3,3s-3-1.3-3-3S47.6,21.1,49.2,21.1 M49.2,19.1
		c-2.8,0-5,2.2-5,5s2.2,5,5,5s5-2.2,5-5S52,19.1,49.2,19.1L49.2,19.1z"/>
</g>
<g>
	<polygon id="XMLID_22_" class="st0" points="48.2,43.1 46.2,43.1 46.2,51.1 48.2,51.1 48.2,43.1 	"/>
</g>
<g>
	<polygon id="XMLID_16_" class="st0" points="44.8,31.1 39.2,36.8 40.6,38.2 46.2,32.5 44.8,31.1 	"/>
</g>
<g>
	<path id="XMLID_18_" class="st0" d="M49.2,30.1c1.7,0,3,1.3,3,3v8h-6v-8C46.2,31.5,47.6,30.1,49.2,30.1 M49.2,28.1
		c-2.8,0-5,2.2-5,5v10h10v-10C54.2,30.4,52,28.1,49.2,28.1L49.2,28.1z"/>
</g>
<g>
	<polygon id="XMLID_14_" class="st0" points="52.2,43.1 50.2,43.1 50.2,51.1 52.2,51.1 52.2,43.1 	"/>
</g>
<g>
	<polygon id="XMLID_11_" class="st0" points="53.6,31.1 52.2,32.5 57.8,38.1 59.2,36.7 53.6,31.1 	"/>
</g>
<path class="st4" d="M20.2,37.1L20.2,37.1c0,3.9,3.1,7,7,7h8"/>
<g>
	<polygon id="XMLID_10_" class="st0" points="33.2,41.1 33.2,47.1 37.2,44.1 33.2,41.1 	"/>
</g>
</svg>
