<?xml version="1.0" encoding="utf-8"?>
<!-- Generator: Adobe Illustrator 19.0.0, SVG Export Plug-In . SVG Version: 6.00 Build 0)  -->
<svg version="1.1" id="Слой_1" xmlns="http://www.w3.org/2000/svg" xmlns:xlink="http://www.w3.org/1999/xlink" x="0px" y="0px"
	 viewBox="0 0 50.1 50.2" style="enable-background:new 0 0 50.1 50.2;" xml:space="preserve">
<style type="text/css">
	.st0{fill:#D71F31;}
	.st1{fill:#FFFFFF;}
</style>
<g>
	<path id="XMLID_19_" class="st0" d="M45.1,50.1h-40c-2.8,0-5-2.2-5-5v-40c0-2.8,2.2-5,5-5h40c2.8,0,5,2.2,5,5v40
		C50.1,47.9,47.9,50.1,45.1,50.1z"/>
</g>
<g>
	<path class="st1" d="M17.2,17.9c0.4-0.2,0.8-0.3,1.1-0.4c0.7-3.3,3.6-5.8,7.1-5.8c3.5,0,6.4,2.5,7.1,5.8c1.1,0.2,2,0.6,2.7,1.3
		c0-0.6,0-1.2-0.1-1.8c-0.4-5-4.6-8.9-9.7-8.9c-5.3,0-9.5,4.2-9.7,9.4c0,0.4,0,0.9,0,1.4C16.1,18.5,16.6,18.2,17.2,17.9z"/>
	<path class="st1" d="M31.1,19.1H19.4c-0.6,0-1.1-0.1-1.7,0.2c-0.6,0.3-1.1,0.4-1.4,0.8c-0.7,0.9-1.1,2-1.1,3.7V33
		c0,1.7,0.4,3,1.1,3.8c0.4,0.4,0.9,0.7,1.4,0.9c0.6,0.3,1.2,0.4,1.7,0.4h11.7c3,0,5-1.7,5-5v-9.5C36.1,20.4,34.2,19.1,31.1,19.1z"/>
</g>
</svg>
