<?xml version="1.0" encoding="utf-8"?>
<!-- Generator: Adobe Illustrator 19.0.0, SVG Export Plug-In . SVG Version: 6.00 Build 0)  -->
<svg version="1.1" id="Слой_1" xmlns="http://www.w3.org/2000/svg" xmlns:xlink="http://www.w3.org/1999/xlink" x="0px" y="0px"
	 viewBox="0 0 30.1 24.7" style="enable-background:new 0 0 30.1 24.7;" xml:space="preserve">
<style type="text/css">
	.st0{fill:#263238;}
	.st1{opacity:0.2;fill:#263238;}
</style>
<g>
	<g>
		<path id="XMLID_31_" class="st0" d="M14.8,8.1C14.8,8.1,15,8.1,14.8,8.1L8.1,3.2v-2c0-0.3-0.1-0.6,0-0.6l6.4,7
			c0.2,0.2,0.3,0.3,0.5,0.3s0.4-0.1,0.5-0.2l6.3-6.9c0,0.1,0.2,0.3,0.2,0.4v2l-7,4.9C15.1,8.1,14.8,8.1,14.8,8.1z"/>
		<path id="XMLID_27_" class="st0" d="M8.1,1.6l3.5,3.8L8.1,2.9V2 M21.1,2v0.9l-2.3,1.7L21.1,2 M21.7,0c-0.1,0-0.1,0-0.2,0.1
			l-6.3,7.1c-0.1,0.1-0.1,0.1-0.2,0.1c-0.1,0-0.1,0-0.2-0.1L8.2,0.1C8.1,0,8,0,7.9,0C7.5,0,7.1,0.5,7.1,1.2v2.3l7.3,5.1
			c0.1,0.1,0.3,0.1,0.4,0.1s0.2,0,0.3-0.1l7-5.1V1.2C22.1,0.5,22,0,21.7,0L21.7,0z"/>
	</g>
	<g>
		<path id="XMLID_22_" class="st0" d="M1.3,4.7C1.3,4.7,1.3,4.7,1.3,4.7l12.9,5.9c0.3,0.1,0.6,0.2,0.9,0.2s0.6-0.1,0.9-0.2l12.8-5.9
			c0,0,0.1,0,0.1,0c0.1,0,0.2,0.1,0.2,0.2v12.4c0,0.1,0,0.1-0.1,0.2l-13.8,6.3c0,0-0.1,0-0.1,0s-0.1,0-0.1,0L1.2,17.4
			c-0.1,0-0.1-0.1-0.1-0.2V4.9C1.1,4.7,1.2,4.7,1.3,4.7 M28.9,3.7c-0.2,0-0.3,0-0.5,0.1L15.6,9.7c-0.2,0.1-0.3,0.1-0.5,0.1
			s-0.3,0-0.5-0.1L1.8,3.8C1.6,3.7,1.4,3.7,1.3,3.7c-0.6,0-1.2,0.5-1.2,1.2v12.4c0,0.5,0.3,0.9,0.7,1.1l13.8,6.3
			c0.2,0.1,0.3,0.1,0.5,0.1s0.3,0,0.5-0.1l13.8-6.3c0.4-0.2,0.7-0.6,0.7-1.1V4.9C30.1,4.2,29.5,3.7,28.9,3.7L28.9,3.7z"/>
	</g>
	<path class="st1" d="M15.1,9.7L1.8,3.8C1,3.4,0.1,4,0.1,4.9v12.4c0,0.5,0.3,0.9,0.7,1.1l14.3,6.3"/>
	<g>
		<path id="XMLID_21_" class="st0" d="M14.8,9.3c-0.1,0-0.2,0-0.3-0.1L3.1,4.1V2.3c0-0.4,0.4-0.7,0.7-0.7c0.1,0,0.2,0,0.2,0
			l10.4,7.3c0.2,0.1,0.5,0.2,0.7,0.2s0.4-0.1,0.6-0.2l10.2-7.3c0,0,0,0,0,0c0.1,0,0.2,0.3,0.2,0.7v1.8L15,9.2
			C14.9,9.3,14.9,9.3,14.8,9.3z"/>
		<path id="XMLID_17_" class="st0" d="M4,2.1l6.7,4.7l-6.6-3V2.3C4.1,2.2,3.9,2.1,4,2.1 M26.1,2v1.7l-5.6,2.6l5.6-4 M26.1,1.1
			c-0.1,0-0.3,0-0.5,0.1L15.4,8.5c-0.1,0.1-0.3,0.1-0.4,0.1s-0.3,0-0.4-0.1L4.2,1.2C4.1,1.1,4.1,1.1,4,1.1c-0.5,0-0.9,0.5-0.9,1.2
			v2.1l11.5,5.3c0.2,0.1,0.2,0.1,0.4,0.1s0.4,0,0.6-0.1l11.5-5.3V2.3C27.1,1.6,26.5,1.1,26.1,1.1L26.1,1.1z"/>
	</g>
	<g>
		<path id="XMLID_12_" class="st0" d="M27.1,12.1c0.1,0,0.2,0.1,0.2,0.2c0,0.1-0.1,0.2-0.2,0.2s-0.2-0.1-0.2-0.2
			C26.9,12.2,27,12.1,27.1,12.1 M27.1,11.1c-0.7,0-1.2,0.5-1.2,1.2c0,0.7,0.5,1.2,1.2,1.2s1.2-0.5,1.2-1.2
			C28.3,11.6,27.7,11.1,27.1,11.1L27.1,11.1z"/>
	</g>
</g>
</svg>
