<?xml version="1.0" encoding="UTF-8" standalone="no"?>
<svg width="31px" height="25px" viewBox="0 0 31 25" version="1.1" xmlns="http://www.w3.org/2000/svg" xmlns:xlink="http://www.w3.org/1999/xlink" xmlns:sketch="http://www.bohemiancoding.com/sketch/ns">
    <!-- Generator: Sketch 3.4.4 (17249) - http://www.bohemiancoding.com/sketch -->
    <title>purse</title>
    <desc>Created with Sketch.</desc>
    <defs></defs>
    <g id="Page-1" stroke="none" stroke-width="1" fill="none" fill-rule="evenodd" sketch:type="MSPage">
        <g id="purse" sketch:type="MSLayerGroup" fill="#263238">
            <path d="M14.8,8.1 L14.8,8.1 L8.1,3.2 L8.1,1.2 C8.1,0.9 8,0.6 8.1,0.6 L14.5,7.6 C14.7,7.8 14.8,7.9 15,7.9 C15.2,7.9 15.4,7.8 15.5,7.7 L21.8,0.8 C21.8,0.9 22,1.1 22,1.2 L22,3.2 L15,8.1 C15.1,8.1 14.8,8.1 14.8,8.1 L14.8,8.1 Z" id="XMLID_31_" sketch:type="MSShapeGroup"></path>
            <path d="M8.1,1.6 L11.6,5.4 L8.1,2.9 L8.1,2 L8.1,1.6 Z M21.1,2 L21.1,2.9 L18.8,4.6 L21.1,2 L21.1,2 Z M21.7,0 C21.6,0 21.6,0 21.5,0.1 L15.2,7.2 C15.1,7.3 15.1,7.3 15,7.3 C14.9,7.3 14.9,7.3 14.8,7.2 L8.2,0.1 C8.1,0 8,0 7.9,0 C7.5,0 7.1,0.5 7.1,1.2 L7.1,3.5 L14.4,8.6 C14.5,8.7 14.7,8.7 14.8,8.7 C14.9,8.7 15,8.7 15.1,8.6 L22.1,3.5 L22.1,1.2 C22.1,0.5 22,0 21.7,0 L21.7,0 L21.7,0 Z" id="XMLID_27_" sketch:type="MSShapeGroup"></path>
            <path d="M1.3,4.7 L1.3,4.7 L14.2,10.6 C14.5,10.7 14.8,10.8 15.1,10.8 C15.4,10.8 15.7,10.7 16,10.6 L28.8,4.7 L28.9,4.7 C29,4.7 29.1,4.8 29.1,4.9 L29.1,17.3 C29.1,17.4 29.1,17.4 29,17.5 L15.2,23.8 L15.1,23.8 L15,23.8 L1.2,17.4 C1.1,17.4 1.1,17.3 1.1,17.2 L1.1,4.9 C1.1,4.7 1.2,4.7 1.3,4.7 L1.3,4.7 Z M28.9,3.7 C28.7,3.7 28.6,3.7 28.4,3.8 L15.6,9.7 C15.4,9.8 15.3,9.8 15.1,9.8 C14.9,9.8 14.8,9.8 14.6,9.7 L1.8,3.8 C1.6,3.7 1.4,3.7 1.3,3.7 C0.7,3.7 0.1,4.2 0.1,4.9 L0.1,17.3 C0.1,17.8 0.4,18.2 0.8,18.4 L14.6,24.7 C14.8,24.8 14.9,24.8 15.1,24.8 C15.3,24.8 15.4,24.8 15.6,24.7 L29.4,18.4 C29.8,18.2 30.1,17.8 30.1,17.3 L30.1,4.9 C30.1,4.2 29.5,3.7 28.9,3.7 L28.9,3.7 L28.9,3.7 Z" id="XMLID_22_" sketch:type="MSShapeGroup"></path>
            <path d="M15.1,9.7 L1.8,3.8 C1,3.4 0.1,4 0.1,4.9 L0.1,17.3 C0.1,17.8 0.4,18.2 0.8,18.4 L15.1,24.7" id="Shape" opacity="0.2" sketch:type="MSShapeGroup"></path>
            <path d="M14.8,9.3 C14.7,9.3 14.6,9.3 14.5,9.2 L3.1,4.1 L3.1,2.3 C3.1,1.9 3.5,1.6 3.8,1.6 L4,1.6 L14.4,8.9 C14.6,9 14.9,9.1 15.1,9.1 C15.3,9.1 15.5,9 15.7,8.9 L25.9,1.6 L25.9,1.6 C26,1.6 26.1,1.9 26.1,2.3 L26.1,4.1 L15,9.2 C14.9,9.3 14.9,9.3 14.8,9.3 L14.8,9.3 Z" id="XMLID_21_" sketch:type="MSShapeGroup"></path>
            <path d="M4,2.1 L10.7,6.8 L4.1,3.8 L4.1,2.3 C4.1,2.2 3.9,2.1 4,2.1 L4,2.1 Z M26.1,2 L26.1,3.7 L20.5,6.3 L26.1,2.3 L26.1,2 Z M26.1,1.1 C26,1.1 25.8,1.1 25.6,1.2 L15.4,8.5 C15.3,8.6 15.1,8.6 15,8.6 C14.9,8.6 14.7,8.6 14.6,8.5 L4.2,1.2 C4.1,1.1 4.1,1.1 4,1.1 C3.5,1.1 3.1,1.6 3.1,2.3 L3.1,4.4 L14.6,9.7 C14.8,9.8 14.8,9.8 15,9.8 C15.2,9.8 15.4,9.8 15.6,9.7 L27.1,4.4 L27.1,2.3 C27.1,1.6 26.5,1.1 26.1,1.1 L26.1,1.1 L26.1,1.1 Z" id="XMLID_17_" sketch:type="MSShapeGroup"></path>
            <path d="M27.1,12.1 C27.2,12.1 27.3,12.2 27.3,12.3 C27.3,12.4 27.2,12.5 27.1,12.5 C27,12.5 26.9,12.4 26.9,12.3 C26.9,12.2 27,12.1 27.1,12.1 L27.1,12.1 Z M27.1,11.1 C26.4,11.1 25.9,11.6 25.9,12.3 C25.9,13 26.4,13.5 27.1,13.5 C27.8,13.5 28.3,13 28.3,12.3 C28.3,11.6 27.7,11.1 27.1,11.1 L27.1,11.1 L27.1,11.1 Z" id="XMLID_12_" sketch:type="MSShapeGroup"></path>
        </g>
    </g>
</svg>