<?xml version="1.0" encoding="UTF-8" standalone="no"?>
<svg width="150px" height="150px" viewBox="0 0 150 150" version="1.1" xmlns="http://www.w3.org/2000/svg" xmlns:xlink="http://www.w3.org/1999/xlink" xmlns:sketch="http://www.bohemiancoding.com/sketch/ns">
    <!-- Generator: Sketch 3.2.2 (9983) - http://www.bohemiancoding.com/sketch -->
    <title>robot</title>
    <desc>Created with Sketch.</desc>
    <defs></defs>
    <g id="Page-1" stroke="none" stroke-width="1" fill="none" fill-rule="evenodd" sketch:type="MSPage">
        <g id="robot" sketch:type="MSArtboardGroup">
            <g id="XMLID_349_" sketch:type="MSLayerGroup" fill="#E4F2FB">
                <circle id="XMLID_97_" sketch:type="MSShapeGroup" cx="75" cy="75" r="75"></circle>
            </g>
            <g id="XMLID_4_" sketch:type="MSLayerGroup" transform="translate(35.000000, 25.000000)">
                <g id="XMLID_9_" sketch:type="MSShapeGroup">
                    <rect id="XMLID_348_" fill="#EA4241" x="9" y="14" width="2" height="16"></rect>
                    <rect id="XMLID_347_" fill="#EA4241" x="69" y="14" width="2" height="16"></rect>
                    <path d="M38.9999998,124.978096 C38.9999998,124.978096 36.796384,124.959865 35.6528934,124.879237 C33.9051154,124.756001 33.4198483,124.663513 31.6720703,124.540277 L30.3261941,124.366506 C29.8841294,124.335336 29.4828368,124.272996 29,124.169594 C29,124.200764 29,124.272996 29,124.272996 C28.6,119.572996 31,118 34,118 C37,118 39.3999998,120.278096 38.9999998,124.978096 Z" id="XMLID_346_" fill="#4E4E4E"></path>
                    <path d="M50.4668975,124.259145 C50.4668975,124.259145 47.9302099,124.708172 45.5352117,124.839692 C43.1402134,124.971212 40.7068983,125.020613 40.7068983,125.020613 C40.3068983,120.320613 43,118 46,118 C49,118 50.4668975,124.259145 50.4668975,124.259145 Z" id="XMLID_345_" fill="#4E4E4E"></path>
                    <path d="M57,91 L57,97 L69,110 L69,106 L57,91 Z" id="XMLID_344_" fill="#4E4E4E"></path>
                    <path d="M24,92 L24,97 L11,110 L11,106 L24,92 Z" id="XMLID_343_" fill="#4E4E4E"></path>
                    <path d="M80,39 C80,50 71,59 60,59 L20,59 C9,59 0,50 0,39 L0,39 C0,28 9,19 20,19 L60,19 C71,19 80,28 80,39 L80,39 L80,39 Z" id="XMLID_342_" fill="#61BDE3"></path>
                    <g id="XMLID_337_" transform="translate(0.000000, 19.000000)" fill="#010101">
                        <path d="M60,1 C70.5,1 79,9.5 79,20 C79,30.5 70.5,39 60,39 L20,39 C9.5,39 1,30.5 1,20 C1,9.5 9.5,1 20,1 L60,1 L60,1 Z M60,0 L20,0 C9,0 0,9 0,20 L0,20 C0,31 9,40 20,40 L60,40 C71,40 80,31 80,20 L80,20 C80,9 71,0 60,0 L60,0 L60,0 Z" id="XMLID_145_"></path>
                    </g>
                    <path d="M50,120 L30,120 C24.5,120 20,115.5 20,110 L24,90 C24,84.5 24.5,80 30,80 L50,80 C55.5,80 57,84.5 57,90 L60,110 C60,115.5 55.5,120 50,120 L50,120 Z" id="XMLID_336_" fill="#61BDE3"></path>
                    <g id="XMLID_331_" transform="translate(20.000000, 80.000000)" fill="#010101">
                        <path d="M30,1 C34.1,1 36,3.8 36,10 L36,10.1 L36,10.2 L39,30.1 C39,35 34.9,39 30,39 L10,39 C5.1,39 1.1,35 1,30.1 L5,10.2 L5,10.1 L5,10 C5,3.9 5.7,1 10,1 L30,1 L30,1 Z M30,0 L10,0 C4.5,0 4,4.5 4,10 L0,30 C0,35.5 4.5,40 10,40 L30,40 C35.5,40 40,35.5 40,30 L37,10 C37,4.5 35.5,0 30,0 L30,0 L30,0 Z" id="XMLID_131_"></path>
                    </g>
                    <path d="M27,39 C27,42.9 13,42.9 13,39 C13,35.1 16.1,32 20,32 C23.9,32 27,35.1 27,39 L27,39 Z" id="XMLID_330_" fill="#FFFFFF"></path>
                    <circle id="XMLID_329_" fill="#EA4241" cx="10" cy="7" r="7"></circle>
                    <circle id="XMLID_328_" fill="#EA4241" cx="70" cy="7" r="7"></circle>
                    <path d="M55,49 C55,49 55,56 40,56 C25,56 25,49 25,49 L55,49 L55,49 Z" id="XMLID_327_" fill="#FFFFFF"></path>
                    <g id="XMLID_322_" transform="translate(12.000000, 31.000000)" fill="#010101">
                        <path d="M8,1 C11.9,1 15,4.1 15,8 C15,9.9 11.5,10.9 8,10.9 C4.5,10.9 1,9.9 1,8 C1,4.1 4.1,1 8,1 L8,1 Z M8,0 C3.6,0 0,3.6 0,8 C0,10.9 4.3,11.9 8,11.9 C11.7,11.9 16,10.9 16,8 C16,3.6 12.4,0 8,0 L8,0 L8,0 Z" id="XMLID_127_"></path>
                    </g>
                    <g id="XMLID_316_" transform="translate(16.000000, 35.000000)" fill="#4E4E4E">
                        <path d="M4,5.7 C2.4,5.7 0.5,5.2 0.5,4 C0.5,2.1 2.1,0.5 4,0.5 C5.9,0.5 7.5,2.1 7.5,4 C7.5,5.3 5.6,5.7 4,5.7 L4,5.7 Z" id="XMLID_125_"></path>
                        <path d="M4,1 C5.7,1 7,2.3 7,4 C7,4.8 5.5,5.2 4,5.2 C2.5,5.2 1,4.8 1,4 C1,2.3 2.3,1 4,1 L4,1 Z M4,0 C1.8,0 0,1.8 0,4 C0,5.4 1.5,6.2 4,6.2 C6.5,6.2 8,5.3 8,4 C8,1.8 6.2,0 4,0 L4,0 L4,0 Z" id="XMLID_122_"></path>
                    </g>
                    <path d="M67,39 C67,42.9 53,42.9 53,39 C53,35.1 56.1,32 60,32 C63.9,32 67,35.1 67,39 L67,39 Z" id="XMLID_315_" fill="#FFFFFF"></path>
                    <g id="XMLID_310_" transform="translate(52.000000, 31.000000)" fill="#010101">
                        <path d="M8,1 C11.9,1 15,4.1 15,8 C15,9.9 11.5,10.9 8,10.9 C4.5,10.9 1,9.9 1,8 C1,4.1 4.1,1 8,1 L8,1 Z M8,0 C3.6,0 0,3.6 0,8 C0,10.9 4.3,11.9 8,11.9 C11.7,11.9 16,10.9 16,8 C16,3.6 12.4,0 8,0 L8,0 L8,0 Z" id="XMLID_118_"></path>
                    </g>
                    <g id="XMLID_304_" transform="translate(56.000000, 35.000000)" fill="#4E4E4E">
                        <path d="M4,5.7 C2.4,5.7 0.5,5.2 0.5,4 C0.5,2.1 2.1,0.5 4,0.5 C5.9,0.5 7.5,2.1 7.5,4 C7.5,5.3 5.6,5.7 4,5.7 L4,5.7 Z" id="XMLID_116_"></path>
                        <path d="M4,1 C5.7,1 7,2.3 7,4 C7,4.8 5.5,5.2 4,5.2 C2.5,5.2 1,4.8 1,4 C1,2.3 2.3,1 4,1 L4,1 Z M4,0 C1.8,0 0,1.8 0,4 C0,5.4 1.5,6.2 4,6.2 C6.5,6.2 8,5.3 8,4 C8,1.8 6.2,0 4,0 L4,0 L4,0 Z" id="XMLID_113_"></path>
                    </g>
                    <g id="XMLID_299_" transform="translate(24.000000, 49.000000)" fill="#010101">
                        <path d="M31,1 C31,1 31,8 16,8 C1,8 1,1 1,1 L31,1 L31,1 Z M32,0 L31,0 L1,0 L0,0 L0,0.5 C0,0.8 0.2,8.5 16,8.5 C31.8,8.5 32,0.8 32,0.5 L32,0 L32,0 Z" id="XMLID_108_"></path>
                    </g>
                    <path d="M31.4,60.6 L32,60 L48,60 L48.6,60.6 C49.4,61.4 49.4,62.6 48.6,63.4 L48,64 L32,64 L31.4,63.4 C30.6,62.6 30.6,61.4 31.4,60.6 L31.4,60.6 Z" id="XMLID_298_" fill="#61BDE3"></path>
                    <path d="M31.4,65.6 L32,65 L48,65 L48.6,65.6 C49.4,66.4 49.4,67.6 48.6,68.4 L48,69 L32,69 L31.4,68.4 C30.6,67.6 30.6,66.4 31.4,65.6 L31.4,65.6 Z" id="XMLID_297_" fill="#61BDE3"></path>
                    <path d="M31.4,70.6 L32,70 L48,70 L48.6,70.6 C49.4,71.4 49.4,72.6 48.6,73.4 L48,74 L32,74 L31.4,73.4 C30.6,72.6 30.6,71.4 31.4,70.6 L31.4,70.6 Z" id="XMLID_296_" fill="#61BDE3"></path>
                    <path d="M31.4,75.6 L32,75 L48,75 L48.6,75.6 C49.4,76.4 49.4,77.6 48.6,78.4 L48,79 L32,79 L31.4,78.4 C30.6,77.6 30.6,76.4 31.4,75.6 L31.4,75.6 Z" id="XMLID_295_" fill="#61BDE3"></path>
                    <g id="XMLID_290_" transform="translate(30.000000, 60.000000)" fill="#010101">
                        <path d="M17.8,1 L18,1.3 C18.4,1.7 18.3,2.3 17.9,2.7 L17.6,3 L2.4,3 L2.1,2.7 C1.7,2.3 1.7,1.7 2.1,1.3 L2.4,1 L18,1 L17.8,1 Z M18,0 L2,0 L1.4,0.6 C0.6,1.4 0.6,2.6 1.4,3.4 L2,4 L18,4 L18.6,3.4 C19.4,2.6 19.4,1.4 18.6,0.6 L18,0 L18,0 Z" id="XMLID_103_"></path>
                    </g>
                    <path d="M18.6,109.4 L18,108.8 L22,91.4 L22.6,90.8 C23.4,89.9 24.6,89.9 25.4,90.8 L26,91.4 L22,108.8 L21.4,109.4 C20.6,110.2 19.4,110.2 18.6,109.4 L18.6,109.4 Z" id="XMLID_289_" fill="#FFFFFF"></path>
                    <g id="XMLID_284_" transform="translate(18.000000, 90.000000)" fill="#4E4E4E">
                        <path d="M6,1 C6.3,1 6.5,1.1 6.7,1.3 L6.9,1.6 L3.1,18.3 L2.7,18.7 C2.5,18.9 2.3,19 2,19 C1.7,19 1.5,18.9 1.3,18.7 L1.1,18.4 L4.9,1.7 L5.3,1.3 C5.5,1.1 5.7,1 6,1 L6,1 Z M6,0 C5.5,0 5,0.2 4.6,0.6 L4,1.2 L0,18.6 L0.6,19.2 C1,19.6 1.5,19.8 2,19.8 C2.5,19.8 3,19.6 3.4,19.2 L4,18.6 L8,1.2 L7.4,0.6 C7,0.2 6.5,0 6,0 L6,0 L6,0 Z" id="XMLID_98_"></path>
                    </g>
                    <path d="M49.4,121.4 L48.8,122 L31.3,122 L30.7,121.4 C29.8,120.6 29.8,119.4 30.7,118.6 L31.3,118 L48.7,118 L49.3,118.6 C50.2,119.4 50.2,120.6 49.4,121.4 L49.4,121.4 Z" id="XMLID_283_" fill="#FFFFFF"></path>
                    <g id="XMLID_278_" transform="translate(30.000000, 118.000000)" fill="#4E4E4E">
                        <path d="M18.2,1 L18.6,1.3 C18.8,1.5 19,1.7 19,2 C19,2.3 18.9,2.5 18.7,2.7 L18.4,3 L1.7,3 L1.3,2.7 C1.1,2.5 1,2.3 1,2 C1,1.7 1.1,1.5 1.3,1.3 L1.7,1 L18,1 L18.2,1 Z M18.7,0 L1.3,0 L0.7,0.6 C-0.2,1.4 -0.2,2.6 0.7,3.4 L1.3,4 L18.7,4 L19.3,3.4 C20.2,2.6 20.2,1.4 19.3,0.6 L18.7,0 L18.7,0 Z" id="XMLID_94_"></path>
                    </g>
                    <path d="M58.6,109.4 L58,108.8 L55,91.4 L55.6,90.8 C56.4,89.9 57.6,89.9 58.4,90.8 L59,91.4 L62,108.8 L61.4,109.4 C60.6,110.2 59.4,110.2 58.6,109.4 L58.6,109.4 Z" id="XMLID_277_" fill="#FFFFFF"></path>
                    <g id="XMLID_272_" transform="translate(55.000000, 90.000000)" fill="#4E4E4E">
                        <path d="M2,1 C2.3,1 2.5,1.1 2.7,1.3 L3.1,1.7 L6,18.4 L5.7,18.7 C5.5,18.9 5.3,19 5,19 C4.7,19 4.5,18.9 4.3,18.7 L3.9,18.3 L1,1.6 L1.3,1.3 C1.5,1.1 1.7,1 2,1 L2,1 Z M2,0 C1.5,0 1,0.2 0.6,0.6 L0,1.2 L3,18.6 L3.6,19.2 C4,19.6 4.5,19.8 5,19.8 C5.5,19.8 6,19.6 6.4,19.2 L7,18.6 L4,1.2 L3.4,0.6 C3,0.2 2.5,0 2,0 L2,0 L2,0 Z" id="XMLID_90_"></path>
                    </g>
                    <g id="XMLID_267_" transform="translate(30.000000, 65.000000)" fill="#010101">
                        <path d="M17.8,1 L18,1.3 C18.4,1.7 18.3,2.3 17.9,2.7 L17.6,3 L2.4,3 L2.1,2.7 C1.7,2.3 1.7,1.7 2.1,1.3 L2.4,1 L18,1 L17.8,1 Z M18,0 L2,0 L1.4,0.6 C0.6,1.4 0.6,2.6 1.4,3.4 L2,4 L18,4 L18.6,3.4 C19.4,2.6 19.4,1.4 18.6,0.6 L18,0 L18,0 Z" id="XMLID_86_"></path>
                    </g>
                    <g id="XMLID_262_" transform="translate(30.000000, 70.000000)" fill="#010101">
                        <path d="M17.8,1 L18,1.3 C18.4,1.7 18.3,2.3 17.9,2.7 L17.6,3 L2.4,3 L2.1,2.7 C1.7,2.3 1.7,1.7 2.1,1.3 L2.4,1 L18,1 L17.8,1 Z M18,0 L2,0 L1.4,0.6 C0.6,1.4 0.6,2.6 1.4,3.4 L2,4 L18,4 L18.6,3.4 C19.4,2.6 19.4,1.4 18.6,0.6 L18,0 L18,0 Z" id="XMLID_82_"></path>
                    </g>
                    <g id="XMLID_257_" transform="translate(30.000000, 75.000000)" fill="#010101">
                        <path d="M17.8,1 L18,1.3 C18.4,1.7 18.3,2.3 17.9,2.7 L17.6,3 L2.4,3 L2.1,2.7 C1.7,2.3 1.7,1.7 2.1,1.3 L2.4,1 L18,1 L17.8,1 Z M18,0 L2,0 L1.4,0.6 C0.6,1.4 0.6,2.6 1.4,3.4 L2,4 L18,4 L18.6,3.4 C19.4,2.6 19.4,1.4 18.6,0.6 L18,0 L18,0 Z" id="XMLID_78_"></path>
                    </g>
                    <rect id="XMLID_218_" fill="#4E4E4E" transform="translate(22.156300, 109.629190) rotate(97.805165) translate(-22.156300, -109.629190) " x="21.1563359" y="99.1295673" width="1.99992813" height="20.9992454"></rect>
                    <g id="XMLID_212_" transform="translate(29.000000, 106.000000)">
                        <path d="M13.9,11 L13.7,11 L3.4,9.6 C2.8,9.5 2.4,9.1 2.2,8.6 L1.1,5.4 C0.9,5 1,4.5 1.3,4.1 L3.2,1.3 C3.5,0.9 3.9,0.6 4.4,0.6 L4.6,0.6 L14.9,2 C15.3,2.1 15.7,2.3 15.9,2.6 C16.1,2.9 16.2,3.3 16.2,3.7 C16.1,4.4 15.5,5 14.7,5 L14.5,5 C15.3,5.1 15.9,5.9 15.8,6.7 C15.7,7.4 15.1,8 14.3,8 L14.1,8 L6.7,7 L14.1,8 C14.5,8.1 14.8,8.3 15.1,8.6 C15.4,8.9 15.4,9.3 15.4,9.7 C15.3,10.5 14.6,11 13.9,11 L13.9,11 Z" id="XMLID_46_" fill="#FFFFFF"></path>
                        <path d="M4.4,1.2 L4.5,1.2 L6.9,1.5 L14.8,2.6 C15.3,2.7 15.7,3.2 15.7,3.7 C15.6,4.2 15.2,4.6 14.7,4.6 L14.6,4.6 L6.7,3.5 L6.6,4.5 L14.5,5.6 C15,5.7 15.4,6.2 15.4,6.7 C15.3,7.2 14.9,7.6 14.4,7.6 L14.3,7.6 L6.4,6.5 L6.3,7.5 L14.2,8.6 C14.7,8.7 15.1,9.2 15.1,9.7 C15,10.2 14.6,10.6 14.1,10.6 L14,10.6 L6.1,9.5 L3.7,9.2 C3.3,9.1 3,8.9 2.9,8.5 L1.8,5.3 C1.7,5 1.7,4.7 1.9,4.4 L3.8,1.6 C3.8,1.3 4.1,1.2 4.4,1.2 L4.4,1.2 Z M4.4,0.2 C3.7,0.2 3.1,0.5 2.7,1.1 L0.8,3.9 C0.4,4.4 0.4,5.1 0.6,5.7 L1.7,8.9 C1.9,9.6 2.6,10.1 3.3,10.2 L5.7,10.5 L13.6,11.6 L13.9,11.6 C14.9,11.6 15.7,10.9 15.9,9.9 C16,9.3 15.8,8.7 15.4,8.3 C15.9,8 16.2,7.5 16.3,6.9 C16.4,6.4 16.2,5.8 15.9,5.4 L15.8,5.3 C16.3,5 16.6,4.5 16.7,3.9 C16.8,3.4 16.6,2.8 16.3,2.4 C16,2 15.5,1.7 15,1.6 L7.1,0.5 L4.7,0.2 C4.6,0.2 4.5,0.2 4.4,0.2 L4.4,0.2 L4.4,0.2 Z" id="XMLID_43_" fill="#4E4E4E"></path>
                    </g>
                    <g id="XMLID_206_" transform="translate(6.000000, 104.000000)">
                        <path d="M4.5,8.5 C2.3,8.5 0.5,6.7 0.5,4.5 C0.5,2.3 2.3,0.5 4.5,0.5 C6.7,0.5 8.5,2.3 8.5,4.5 C8.5,6.7 6.7,8.5 4.5,8.5 L4.5,8.5 Z" id="XMLID_126_" fill="#FFFFFF"></path>
                        <path d="M4.5,1 C6.4,1 8,2.6 8,4.5 C8,6.4 6.4,8 4.5,8 C2.6,8 1,6.4 1,4.5 C1,2.6 2.6,1 4.5,1 L4.5,1 Z M4.5,0 C2,0 0,2 0,4.5 C0,7 2,9 4.5,9 C7,9 9,7 9,4.5 C9,2 7,0 4.5,0 L4.5,0 L4.5,0 Z" id="XMLID_40_" fill="#4E4E4E"></path>
                    </g>
                    <rect id="XMLID_205_" fill="#4E4E4E" transform="translate(59.040003, 107.856045) rotate(93.309594) translate(-59.040003, -107.856045) " x="58.0400352" y="97.3563833" width="1.99993556" height="20.9993234"></rect>
                    <g id="XMLID_164_" transform="translate(65.000000, 104.000000)">
                        <path d="M4.5,8.5 C2.3,8.5 0.5,6.7 0.5,4.5 C0.5,2.3 2.3,0.5 4.5,0.5 C6.7,0.5 8.5,2.3 8.5,4.5 C8.5,6.7 6.7,8.5 4.5,8.5 L4.5,8.5 Z" id="XMLID_170_" fill="#FFFFFF"></path>
                        <path d="M4.5,1 C6.4,1 8,2.6 8,4.5 C8,6.4 6.4,8 4.5,8 C2.6,8 1,6.4 1,4.5 C1,2.6 2.6,1 4.5,1 L4.5,1 Z M4.5,0 C2,0 0,2 0,4.5 C0,7 2,9 4.5,9 C7,9 9,7 9,4.5 C9,2 7,0 4.5,0 L4.5,0 L4.5,0 Z" id="XMLID_130_" fill="#4E4E4E"></path>
                    </g>
                    <g id="XMLID_14_" transform="translate(35.000000, 101.000000)">
                        <path d="M2.3,10.1 C1.5,10.1 0.8,9.3 0.9,8.5 C0.9,7.7 1.6,7.1 2.4,7.1 L9.5,7.5 L2.5,7.1 C1.7,7.1 1,6.3 1.1,5.5 C1.1,4.7 1.8,4.1 2.6,4.1 L9.7,4.5 L2.7,4.1 C1.9,4.1 1.2,3.3 1.3,2.5 C1.3,1.7 2,1.1 2.8,1.1 L13.3,1.7 C13.9,1.7 14.4,2.1 14.6,2.6 L15.9,5.7 C16.1,6.1 16.1,6.6 15.8,7 L14.1,9.9 C13.8,10.4 13.3,10.7 12.8,10.7 L2.3,10.1 L2.3,10.1 Z" id="XMLID_184_" fill="#FFFFFF"></path>
                        <path d="M2.7,1.6 L2.7,1.6 L10.7,2.1 L13.1,2.2 C13.5,2.2 13.8,2.5 14,2.8 L15.3,5.9 C15.4,6.2 15.4,6.5 15.2,6.8 L13.5,9.7 C13.3,10 13,10.2 12.6,10.2 C12.6,10.2 12.6,10.2 12.5,10.2 L10.1,10.1 L2.1,9.6 C1.5,9.6 1.1,9.1 1.2,8.5 C1.2,8 1.7,7.6 2.2,7.6 L2.3,7.6 L10.3,8.1 L10.4,7.1 L2.4,6.6 C1.8,6.6 1.4,6.1 1.5,5.5 C1.5,5 2,4.6 2.5,4.6 L2.6,4.6 L10.6,5.1 L10.7,4.1 L2.7,3.6 C2.1,3.6 1.7,3.1 1.8,2.5 C1.7,2 2.2,1.6 2.7,1.6 L2.7,1.6 Z M2.7,0.6 L2.7,0.6 C1.6,0.6 0.8,1.4 0.7,2.5 C0.7,3.1 0.9,3.6 1.3,4 C0.9,4.3 0.6,4.9 0.5,5.5 C0.5,6.1 0.7,6.6 1.1,7 C0.7,7.3 0.4,7.9 0.3,8.5 C0.2,9.6 1.1,10.5 2.2,10.6 L10.2,11.1 L12.6,11.2 L12.7,11.2 C13.4,11.2 14.1,10.8 14.4,10.2 L16.1,7.3 C16.4,6.8 16.5,6.1 16.2,5.5 L14.9,2.4 C14.6,1.7 13.9,1.2 13.2,1.2 L10.8,1.1 L2.8,0.6 C2.8,0.6 2.7,0.6 2.7,0.6 L2.7,0.6 L2.7,0.6 Z" id="XMLID_176_" fill="#4E4E4E"></path>
                    </g>
                </g>
            </g>
        </g>
    </g>
</svg>