<?xml version="1.0" encoding="utf-8"?>
<!-- Generator: Adobe Illustrator 19.0.0, SVG Export Plug-In . SVG Version: 6.00 Build 0)  -->
<svg version="1.1" id="Слой_1" xmlns="http://www.w3.org/2000/svg" xmlns:xlink="http://www.w3.org/1999/xlink" x="0px" y="0px"
	 viewBox="0 0 60.2 60.1" style="enable-background:new 0 0 60.2 60.1;" xml:space="preserve">
<style type="text/css">
	.st0{opacity:0.4;}
	.st1{fill:#ECEFF0;}
	.st2{fill:url(#XMLID_59_);}
	.st3{fill:url(#XMLID_61_);}
	.st4{fill:url(#XMLID_63_);}
</style>
<g id="XMLID_64_" class="st0">
	<path id="XMLID_80_" class="st1" d="M60.1,52.1c0,4.4-3.6,8-8,8h-44c-4.4,0-8-3.6-8-8v-44c0-4.4,3.6-8,8-8h44c4.4,0,8,3.6,8,8V52.1
		z"/>
</g>
<g id="XMLID_57_">
	<g id="XMLID_58_">
		<linearGradient id="XMLID_59_" gradientUnits="userSpaceOnUse" x1="24.9251" y1="28.562" x2="36.0382" y2="41.0643">
			<stop  offset="0" style="stop-color:#1CA8E1"/>
			<stop  offset="0.1731" style="stop-color:#1DA6DD"/>
			<stop  offset="0.3227" style="stop-color:#209ED4"/>
			<stop  offset="0.4637" style="stop-color:#2292C8"/>
			<stop  offset="0.5992" style="stop-color:#2382B8"/>
			<stop  offset="0.731" style="stop-color:#2370A6"/>
			<stop  offset="0.86" style="stop-color:#215B93"/>
			<stop  offset="0.9843" style="stop-color:#20437F"/>
			<stop  offset="1" style="stop-color:#203F7D"/>
		</linearGradient>
		<path id="XMLID_62_" class="st2" d="M25.3,29.6c-1.4-1.9-2.1-4.2-2.2-6.4c0-0.2,0-0.3,0-0.5c0,0,0,0,0,0c0,0,0,0,0,0
			c0-1.8,0.5-3.5,1.4-4.8c0.5-0.8,1.6-1.4,3-2c-0.6,0.2-1.3,0.2-1.9,1.2h0c-10.3,6-4.7,22.2-0.5,27.2c0.1,0.1,0.5,0.4,0.7,0.6
			c2.6,2.6,6.4,3,8.5,0.9c2-2,1.5-5.7-1-8.3C30.6,34.7,27.7,33.2,25.3,29.6z"/>
		<linearGradient id="XMLID_61_" gradientUnits="userSpaceOnUse" x1="34.978" y1="28.3952" x2="34.978" y2="16.3042">
			<stop  offset="0" style="stop-color:#1CA8E1"/>
			<stop  offset="0.1731" style="stop-color:#1DA6DD"/>
			<stop  offset="0.3227" style="stop-color:#209ED4"/>
			<stop  offset="0.4637" style="stop-color:#2292C8"/>
			<stop  offset="0.5992" style="stop-color:#2382B8"/>
			<stop  offset="0.731" style="stop-color:#2370A6"/>
			<stop  offset="0.86" style="stop-color:#215B93"/>
			<stop  offset="0.9843" style="stop-color:#20437F"/>
			<stop  offset="1" style="stop-color:#203F7D"/>
		</linearGradient>
		<path id="XMLID_60_" class="st3" d="M30.4,15c-0.2,0-0.3,0-0.5,0c0.9,0,1.6,0.1,2.1,0.4c0.1,0,0.2,0.1,0.3,0.2
			c0.4,0.3,0.8,0.7,1.1,1.1c0.4,0.7,0.7,1.5,0.7,2.4c0,0,0,0,0,0.1v0c0,1.8-0.9,3.9-2.5,5.7c0,0-0.1,0.1-0.2,0.1l0,0l0,0
			c-0.1,0.2-0.3,0.3-0.4,0.5c-1.6,2.2-1.2,5.2,0.7,6.5c2,1.4,4.8,0.7,6.4-1.6c0.1-0.1,0.1-0.2,0.2-0.3C42.8,23,37.6,14.7,30.4,15z"
			/>
		<linearGradient id="XMLID_63_" gradientUnits="userSpaceOnUse" x1="22.9709" y1="24.2587" x2="34.0833" y2="24.2587">
			<stop  offset="0.1" style="stop-color:#FBBA5F"/>
			<stop  offset="0.8" style="stop-color:#EF5025"/>
		</linearGradient>
		<path id="XMLID_14_" class="st4" d="M26.6,27.5c0.2-3.7,2.6-6.6,5.4-6.4c0.5,0,1.1,0.2,1.6,0.4c0.3-0.8,0.5-1.6,0.5-2.4v0
			c0,0,0,0,0-0.1c0-0.9,0-1.7-1-2.4v0l0,0c0-0.4-0.5-0.8-0.9-1.1c-0.1-0.1-0.1-0.1-0.2-0.2c-0.9-0.5-2.6-0.5-4.4,0.1
			c-1.5,0.6-2.7,1.5-3.2,2.4c-0.9,1.3-1.4,3-1.4,4.8c0,0.2,0,0.3,0,0.5c0.1,2.2,0.9,4.5,2.3,6.4c1.1,1.6,2.3,2.8,3.6,3.9
			C27.4,32.2,26.5,30,26.6,27.5z"/>
	</g>
</g>
</svg>
