<?xml version="1.0" encoding="utf-8"?>
<!-- Generator: Adobe Illustrator 19.0.0, SVG Export Plug-In . SVG Version: 6.00 Build 0)  -->
<svg version="1.1" id="Слой_1" xmlns="http://www.w3.org/2000/svg" xmlns:xlink="http://www.w3.org/1999/xlink" x="0px" y="0px"
	 viewBox="0 0 8.1 10" style="enable-background:new 0 0 8.1 10;" xml:space="preserve">
<style type="text/css">
	.st0{fill:#90A4AE;}
</style>
<g id="XMLID_54_">
	<path id="XMLID_55_" class="st0" d="M4.8,7.6H2.3V10H1.4V7.6H0V6.9h1.4v-1H0V5.2h1.4V0h3.4c1,0,1.9,0.3,2.5,0.8S8.2,2.1,8.2,3
		c0,0.9-0.3,1.7-0.9,2.2S5.9,5.9,4.8,5.9H2.3v1h2.5V7.6z M2.3,5.2h2.6c0.8,0,1.4-0.2,1.8-0.6S7.3,3.7,7.3,3c0-0.7-0.2-1.2-0.6-1.6
		C6.3,1,5.7,0.8,4.9,0.7H2.3V5.2z"/>
</g>
</svg>
