<?xml version="1.0" encoding="utf-8"?>
<!-- Generator: Adobe Illustrator 19.0.0, SVG Export Plug-In . SVG Version: 6.00 Build 0)  -->
<svg version="1.1" id="Слой_1" xmlns="http://www.w3.org/2000/svg" xmlns:xlink="http://www.w3.org/1999/xlink" x="0px" y="0px"
	 viewBox="0 0 50.2 50.2" style="enable-background:new 0 0 50.2 50.2;" xml:space="preserve">
<style type="text/css">
	.st0{opacity:0.25;}
	.st1{fill:#BDDDF4;}
	.st2{fill:#70B2E2;}
	.st3{font-family:'Icon-Works';}
	.st4{font-size:34px;}
	.st5{fill:none;stroke:#70B2E2;stroke-width:2;stroke-miterlimit:10;}
</style>
<g class="st0">
	<path id="XMLID_24_" class="st1" d="M45.1,50.1h-40c-2.8,0-5-2.2-5-5v-40c0-2.8,2.2-5,5-5h40c2.8,0,5,2.2,5,5v40
		C50.1,47.9,47.9,50.1,45.1,50.1z"/>
</g>
<text transform="matrix(1 0 0 1 6.125 34.125)" class="st2 st3 st4">l</text>
<g>
	<g id="XMLID_10_">
		<path id="XMLID_13_" class="st5" d="M40.1,41.1h-29c-1.1,0-2-0.9-2-2v-4"/>
		<g id="XMLID_11_">
			<polygon id="XMLID_12_" class="st2" points="35.9,38.1 39.2,41.1 35.9,44.1 38.7,44.1 42.1,41.1 38.7,38.1 			"/>
		</g>
	</g>
</g>
</svg>
