<?xml version="1.0" encoding="utf-8"?>
<!-- Generator: Adobe Illustrator 19.0.0, SVG Export Plug-In . SVG Version: 6.00 Build 0)  -->
<svg version="1.1" id="Слой_1" xmlns="http://www.w3.org/2000/svg" xmlns:xlink="http://www.w3.org/1999/xlink" x="0px" y="0px"
	 viewBox="0 0 50.1 50" style="enable-background:new 0 0 50.1 50;" xml:space="preserve">
<style type="text/css">
	.st0{opacity:0.25;}
	.st1{fill:#BDDDF4;}
	.st2{fill:#70B2E2;}
</style>
<g class="st0">
	<path id="XMLID_36_" class="st1" d="M45.1,50h-40c-2.8,0-5-2.2-5-5V5c0-2.8,2.2-5,5-5h40c2.8,0,5,2.2,5,5v40
		C50.1,47.8,47.9,50,45.1,50z"/>
</g>
<g>
	<path class="st2" d="M27.1,12c0,0.6-0.4,1-1,1h0c-0.6,0-1-0.4-1-1V4c0-0.6,0.4-1,1-1h0c0.6,0,1,0.4,1,1V12z"/>
	<path class="st2" d="M31.1,8c0,0.6-0.4,1-1,1h-8c-0.6,0-1-0.4-1-1v0c0-0.6,0.4-1,1-1h8C30.7,7,31.1,7.4,31.1,8L31.1,8z"/>
</g>
<g>
	<g>
		<path id="XMLID_27_" class="st2" d="M34.8,12c-0.1,0-0.1,0-0.2,0.1l-8.3,9.5c-0.1,0.1-0.2,0.1-0.3,0.1s-0.2,0-0.3-0.1L17,12.1
			C16.9,12,16.5,12,16.4,12c-0.5,0-1.2,0.7-1.2,1.6v3l10,6.8c0.2,0.1,0.4,0.1,0.6,0.1c0.2,0,0.1,0,0.3-0.1l9.2-6.8v-3
			C35.1,12.7,35.2,12,34.8,12L34.8,12z"/>
	</g>
	<g>
		<path id="XMLID_23_" class="st2" d="M8.1,19.1l16.5,7.6c0.5,0.2,1,0.3,1.5,0.3s1-0.1,1.5-0.3l16.5-7.6v15.6l-18,8.3l-18-8.3V19.1
			 M44.5,16.9c-0.2,0-0.4,0-0.7,0.1l-17.1,7.8C26.6,25,26.4,25,26.1,25s-0.5,0-0.7-0.1L8.4,17c-0.2-0.1-0.4-0.1-0.7-0.1
			c-0.8,0-1.6,0.7-1.6,1.6V35c0,0.6,0.4,1.2,0.9,1.5l18.4,8.5c0.2,0.1,0.4,0.1,0.7,0.1s0.5,0,0.7-0.1l18.4-8.5
			c0.6-0.3,0.9-0.8,0.9-1.5V18.5C46.1,17.6,45.4,16.9,44.5,16.9L44.5,16.9z"/>
	</g>
	<g>
		<path id="XMLID_15_" class="st2" d="M8.1,19.1l16.5,7.6c0.5,0.2,1,0.3,1.5,0.3s1-0.1,1.5-0.3l16.5-7.6v15.6l-18,8.3l-18-8.3V19.1
			 M44.5,16.9c-0.2,0-0.4,0-0.7,0.1l-17.1,7.8C26.6,25,26.4,25,26.1,25s-0.5,0-0.7-0.1L8.4,17c-0.2-0.1-0.4-0.1-0.7-0.1
			c-0.8,0-1.6,0.7-1.6,1.6V35c0,0.6,0.4,1.2,0.9,1.5l18.4,8.5c0.2,0.1,0.4,0.1,0.7,0.1s0.5,0,0.7-0.1l18.4-8.5
			c0.6-0.3,0.9-0.8,0.9-1.5V18.5C46.1,17.6,45.4,16.9,44.5,16.9L44.5,16.9z"/>
	</g>
	<g>
		<path id="XMLID_17_" class="st2" d="M11.1,16l2.1,1.5l-2.1-0.9V16 M39.6,16.4v0.2l-0.7,0.3L39.6,16.4 M40.3,13.5
			c-0.2,0-0.2,0-0.4,0.1l-13.5,9.7c-0.2,0.1-0.3,0.1-0.5,0.1c-0.2,0-0.3,0-0.5-0.1l-13.9-9.7c-0.2-0.1-0.6-0.1-0.8-0.1
			c-0.7,0-1.7,0.7-1.7,1.6v2.8L25,24.9c0.2,0.1,0.5,0.1,0.7,0.1s0.2,0,0.4-0.1l15-7.1v-2.8C41.1,14.1,40.9,13.5,40.3,13.5L40.3,13.5
			z"/>
	</g>
	<g>
		<path id="XMLID_10_" class="st2" d="M42.1,26.8c-0.9,0-1.6,0.7-1.6,1.6c0,0.9,0.7,1.6,1.6,1.6s1.6-0.7,1.6-1.6
			C43.7,27.5,43,26.8,42.1,26.8L42.1,26.8z"/>
	</g>
</g>
</svg>
