<?xml version="1.0" encoding="utf-8"?>
<!-- Generator: Adobe Illustrator 19.2.1, SVG Export Plug-In . SVG Version: 6.00 Build 0)  -->
<svg version="1.1" id="Слой_1" xmlns="http://www.w3.org/2000/svg" xmlns:xlink="http://www.w3.org/1999/xlink" x="0px" y="0px"
	 viewBox="0 0 11.1 11" style="enable-background:new 0 0 11.1 11;" xml:space="preserve">
<style type="text/css">
	.st0{opacity:0.75;}
	.st1{fill:#263238;}
</style>
<g class="st0">
	<path class="st1" d="M0.1,5.4C0.1,5,0,4.6,0,4.3s0-0.7,0.1-1.1c0.2-0.7,0.6-1.4,1.1-1.9c0.4-0.4,0.9-0.7,1.4-0.9
		C3.2,0.1,3.7,0,4.3,0s1.1,0.1,1.6,0.3c0.5,0.2,1,0.5,1.4,0.9c0.5,0.5,0.8,1,1,1.6c0.2,0.5,0.2,0.9,0.2,1.4c0,0.1,0,0.3,0,0.4
		C8.4,5.3,8.3,5.9,7.9,6.4c0,0.1,0,0.2-0.1,0.2l3,3c0.1,0.1,0.2,0.2,0.2,0.4c0,0,0,0,0,0.1c0,0.1,0,0.2-0.1,0.2
		c0,0.1-0.1,0.2-0.2,0.3l-0.1,0.1c-0.1,0.1-0.2,0.2-0.3,0.2c-0.1,0-0.1,0.1-0.2,0.1c0,0,0,0-0.1,0c-0.1,0-0.2-0.1-0.4-0.2l-3.1-3
		c0,0,0,0-0.1,0c0,0,0,0-0.1,0C5.9,8.3,5.1,8.5,4.3,8.5c-0.6,0-1.1-0.1-1.6-0.3C2.1,8,1.7,7.7,1.3,7.3C0.7,6.7,0.3,6.1,0.1,5.4z
		 M1,2.9C0.8,3.4,0.8,3.8,0.8,4.3S0.8,5.2,1,5.6C1.2,6,1.4,6.4,1.8,6.7c0.3,0.3,0.7,0.6,1.1,0.8s0.9,0.3,1.3,0.3
		c0.5,0,0.9-0.1,1.3-0.3C6,7.3,6.4,7.1,6.7,6.7c0.5-0.5,0.8-1,0.9-1.6c0.1-0.3,0.1-0.6,0.1-0.9s0-0.6-0.1-0.9
		C7.5,2.8,7.2,2.2,6.7,1.8c-0.7-0.7-1.5-1-2.5-1C3.8,0.8,3.3,0.8,2.9,1S2.1,1.5,1.8,1.8C1.4,2.1,1.2,2.5,1,2.9z"/>
</g>
</svg>
