<?xml version="1.0" encoding="utf-8"?>
<!-- Generator: Adobe Illustrator 19.0.0, SVG Export Plug-In . SVG Version: 6.00 Build 0)  -->
<svg version="1.1" id="Слой_1" xmlns="http://www.w3.org/2000/svg" xmlns:xlink="http://www.w3.org/1999/xlink" x="0px" y="0px"
	 viewBox="0 0 60.2 60.1" style="enable-background:new 0 0 60.2 60.1;" xml:space="preserve">
<style type="text/css">
	.st0{opacity:0.4;}
	.st1{fill:#ECEFF0;}
	.st2{fill:#FFFFFF;}
</style>
<g id="XMLID_118_" class="st0">
	<path id="XMLID_104_" class="st1" d="M60.1,52.1c0,4.4-3.6,8-8,8h-44c-4.4,0-8-3.6-8-8v-44c0-4.4,3.6-8,8-8h44c4.4,0,8,3.6,8,8
		V52.1z"/>
</g>
<g id="XMLID_86_">
	<path id="XMLID_102_" class="st2" d="M43.1,26.9c0,0,0.1,0,0.1,0c0.7,0,1.1,0.5,1,1.2c-0.1,0.3-0.2,0.7-0.3,1
		c-0.3,0.5-0.6,0.9-1,1.3c-1.1,1.1-2.2,2.2-3.3,3.2c-0.1,0.1-0.2,0.2-0.3,0.3c0.1,0,0.2,0,0.2,0c1.3,0,2.6-0.1,4-0.1
		c0.1,0,0.2,0,0.2-0.1c0.4-0.4,0.8-0.8,1.2-1.2c0.8-0.9,1.5-1.8,2-2.9c0.4-0.9,0.7-1.9,0.5-2.9c-0.5-2.2-2.2-2.9-4.2-2.6
		C43.1,25,43.1,25.9,43.1,26.9z M34.1,25.7c-1,0.1-1.8,0.2-2.5,0.3c-0.2,0-0.4,0.1-0.4,0.3c0,3.5,0,7,0,10.5c0,0.1,0,0.3,0,0.3
		c0.9,0,1.9,0,2.9,0C34.1,33.1,34.1,29.5,34.1,25.7z M47.1,37.1c0-1,0-2,0-3c-3,0.1-5,0.2-8,0.3c0,0.9,0,1.8,0,2.8
		C42.1,37.1,44.1,37.1,47.1,37.1z M27.1,37.1c0-3,0-7,0-10.5c-1,0.1-2,0.2-2,0.3c0,3.4,0,7.1,0,10.1C25.1,37.1,26.1,37.1,27.1,37.1z
		 M19.1,27.8c0,3.1,0,6.3,0,9.3c0,0,1,0,2,0c0-3,0-6.4,0-9.6C20.1,27.6,19.1,27.7,19.1,27.8z M38.8,29.6
		C38.9,29.6,38.9,29.6,38.8,29.6c0.9-0.1,1.7-0.1,2.6-0.2c0.1,0,0.1-0.1,0.1-0.2c0-0.3,0-0.5,0-0.8c0-0.6,0.2-1.1,0.8-1.4
		c0.1,0-0.1-0.1-0.1-0.2c0-0.6-0.2-1.2-0.2-1.7c0-0.3,0-0.6,0-1c0,0,0.1,0,0.1,0c-0.9,0.2-1.6,0.6-2.3,1.3
		C38.8,26.6,38.8,28.1,38.8,29.6z M15.1,30.6c0,2.2,0,4.5,0,6.5h1c0-2,0-4.5,0-6.7C16.1,30.4,15.1,30.5,15.1,30.6z M18.1,27.9
		C18.1,27.9,18,27.9,18.1,27.9c-1.7,0.2-3.3,0.4-4.9,0.7c-0.1,0-0.2,0.1-0.2,0.2c0,0.5,0,1,0,1.6c0,0.1,0,0.1,0,0.2
		c1.7-0.2,3-0.4,5-0.5C18.1,29.2,18.1,28.5,18.1,27.9z M38.1,27.7c0-0.9,0-1.8,0-2.7c0,0-0.2,0-0.2,0c-1.2,0.2-2.4,0.3-3.5,0.5
		c-0.1,0-0.2,0.1-0.2,0.2c0,0.5-0.1,1.1-0.1,1.6c0,0.2,0,0.5,0,0.8C35.1,28,37.1,27.9,38.1,27.7z M34.1,37.1c1,0,3,0,4,0
		c0-1,0-1.9,0-2.7c-1,0-3,0.1-4,0.1C34.1,35.3,34.1,36.1,34.1,37.1z M27.1,37.1c1,0,2,0,3,0c0-1,0-1.7,0-2.5c-1,0-2,0.1-3,0.1
		C27.1,35.5,27.1,36.1,27.1,37.1z M34.1,32.6c1,0,2-0.1,3-0.1c0-0.9,0-1.8,0-2.7c-1,0.1-1.8,0.1-2.6,0.2c0,0-0.3,0.1-0.3,0.2
		c0,0.5-0.2,1-0.2,1.5C34.1,32,34.1,32.3,34.1,32.6z M24.1,27.1c0,0-0.2,0-0.2,0c-0.9,0.1-1.8,0.2-2.6,0.4c0,0-0.1,0.1-0.1,0.2
		c0,0.4,0,0.8,0,1.2c0,0.2,0.1,0.5,0.1,0.8c1-0.1,2-0.2,3-0.3C24.1,28.5,24.1,27.8,24.1,27.1z M24.1,37.1c0-1,0-1.6,0-2.3
		c-1,0-2,0.1-3,0.1c0,0.7,0,1.2,0,2.2C22.1,37.1,23.1,37.1,24.1,37.1z M21.1,33.3c0.6,0,1-0.1,2-0.1c0-0.8,0-1.5,0-2.2
		c-1,0.1-1.3,0.1-1.9,0.2c0,0-0.1,0.1-0.1,0.1C21.1,31.9,21.1,32.6,21.1,33.3z"/>
	<path id="XMLID_68_" d="M43.1,26.9c0-1,0-1.9,0-2.8c2-0.3,3.7,0.4,4.2,2.6c0.2,1,0,2-0.4,2.9c-0.5,1.1-1.2,2-2,2.9
		c-0.4,0.4-0.8,0.8-1.2,1.2c-0.1,0.1-0.1,0.1-0.2,0.1c-1.3,0-2.6,0.1-4,0.1c0,0-0.1,0-0.2,0c0.1-0.1,0.2-0.2,0.3-0.3
		c1.1-1.1,2.2-2.1,3.3-3.2c0.4-0.4,0.7-0.8,1-1.3c0.2-0.3,0.3-0.6,0.3-1c0.1-0.7-0.3-1.1-0.9-1.2C43.2,26.9,43.1,26.9,43.1,26.9z"/>
	<path id="XMLID_67_" d="M34.1,25.7c0,3.8,0,7.4,0,11.4c-1,0-2.1,0-2.9,0c0,0,0-0.2,0-0.3c0-3.5,0-7,0-10.5c0-0.2,0.3-0.3,0.5-0.3
		C32.3,25.9,33.1,25.8,34.1,25.7z"/>
	<path id="XMLID_65_" d="M47.1,37.1c-3,0-5,0-8,0c0-1,0-1.9,0-2.8c3-0.1,5-0.2,8-0.3C47.1,35,47.1,36.1,47.1,37.1z"/>
	<path id="XMLID_64_" d="M27.1,37.1c-1,0-2,0-2,0c0-3,0-6.8,0-10.1c0-0.1,1-0.2,2-0.3C27.1,30.1,27.1,34.1,27.1,37.1z"/>
	<path id="XMLID_63_" d="M19.1,27.8c0-0.1,1-0.2,2-0.3c0,3.2,0,6.6,0,9.6c-1,0-2,0-2,0C19.1,34.1,19.1,30.8,19.1,27.8z"/>
	<path id="XMLID_62_" d="M38.8,29.6c0-1.5,0.1-2.9,1.1-4.1c0.6-0.7,1.3-1.1,2.2-1.3c0,0-0.1,0-0.1,0c0,0.3,0,0.6,0,1
		c0,0.6,0.2,1.2,0.2,1.7c0,0.1,0,0.2,0,0.2c-0.6,0.3-0.7,0.8-0.8,1.4c0,0.3,0,0.5,0,0.8c0,0.1-0.1,0.2-0.1,0.2
		C40.6,29.4,39.7,29.5,38.8,29.6C38.9,29.6,38.9,29.6,38.8,29.6z"/>
	<path id="XMLID_61_" d="M15.1,30.6c0-0.1,1-0.1,1-0.2c0,2.2,0,4.7,0,6.7h-1C15.1,35.1,15.1,32.7,15.1,30.6z"/>
	<path id="XMLID_60_" d="M18.1,27.9c0,0.7,0,1.3,0,2c-2,0.2-3.4,0.4-5,0.5c0-0.1,0-0.1,0-0.2c0-0.5,0-1,0-1.6c0-0.1,0-0.2,0.1-0.2
		C14.8,28.3,16.4,28.1,18.1,27.9C18,27.9,18.1,27.9,18.1,27.9z"/>
	<path id="XMLID_59_" d="M38.1,27.7c-1,0.1-3,0.3-4,0.4c0-0.3,0-0.5,0-0.8c0-0.5,0-1.1,0-1.6c0-0.1,0-0.2,0.2-0.2
		c1.2-0.2,2.4-0.3,3.6-0.5c0,0,0.2,0,0.2,0C38.1,25.9,38.1,26.8,38.1,27.7z"/>
	<path id="XMLID_58_" d="M34.1,37.1c0-1,0-1.8,0-2.6c1,0,3-0.1,4-0.1c0,0.9,0,1.7,0,2.7C37.1,37.1,35.1,37.1,34.1,37.1z"/>
	<path id="XMLID_57_" d="M27.1,37.1c0-1,0-1.6,0-2.4c1,0,2-0.1,3-0.1c0,0.8,0,1.5,0,2.5C29.1,37.1,28.1,37.1,27.1,37.1z"/>
	<path id="XMLID_56_" d="M34.1,32.6c0-0.3,0-0.6,0-1c0-0.5,0-1,0-1.5c0-0.1,0.3-0.2,0.4-0.2c0.8-0.1,1.6-0.1,2.6-0.2
		c0,0.9,0,1.8,0,2.7C36.1,32.5,35.1,32.6,34.1,32.6z"/>
	<path id="XMLID_55_" d="M24.1,27.1c0,0.7,0,1.5,0,2.2c-1,0.1-2,0.2-3,0.3c0-0.3-0.1-0.5-0.1-0.8c0-0.4,0-0.8,0-1.2
		c0-0.1,0.1-0.2,0.1-0.2c0.9-0.1,1.8-0.2,2.7-0.4C23.9,27.1,24.1,27.1,24.1,27.1z"/>
	<path id="XMLID_19_" d="M24.1,37.1c-1,0-2,0-3,0c0-1,0-1.5,0-2.2c1,0,2-0.1,3-0.1C24.1,35.5,24.1,36.1,24.1,37.1z"/>
	<path id="XMLID_14_" d="M21.1,33.3c0-0.7-0.1-1.4,0-2.1c0,0,0.1-0.1,0.2-0.1c0.6-0.1,0.8-0.1,1.8-0.2c0,0.8,0,1.5,0,2.2
		C22.1,33.3,21.8,33.3,21.1,33.3z"/>
</g>
</svg>
