<?xml version="1.0" encoding="utf-8"?>
<!-- Generator: Adobe Illustrator 19.0.0, SVG Export Plug-In . SVG Version: 6.00 Build 0)  -->
<svg version="1.1" id="Слой_1" xmlns="http://www.w3.org/2000/svg" xmlns:xlink="http://www.w3.org/1999/xlink" x="0px" y="0px"
	 viewBox="0 0 33 10" style="enable-background:new 0 0 33 10;" xml:space="preserve">
<style type="text/css">
	.st0{fill:#2C3B92;}
	.st1{fill:#F6961E;}
</style>
<g>
	<g id="g10_1_" transform="matrix(1.25,0,0,-1.25,-74.19125,149.0417)">
		<g id="g4163_1_" transform="matrix(0.6384875,0,0,0.6384875,24.348951,24.07854)">
			<g id="g12_1_" transform="translate(143.448,67.609)">
				<path id="path14_1_" class="st0" d="M-74.6,69.1l2,12.1h3.2l-2-12.1H-74.6"/>
			</g>
			<g id="g16_1_" transform="translate(224.353,133.66)">
				<path id="path18_1_" class="st0" d="M-140.7,14.9c-0.6,0.2-1.6,0.5-2.9,0.5c-3.2,0-5.4-1.6-5.4-4c0-1.7,1.6-2.7,2.8-3.3
					c1.2-0.6,1.7-1,1.7-1.5c0-0.8-1-1.2-1.9-1.2c-1.3,0-2,0.2-3,0.6l-0.4,0.2l-0.4-2.7c0.7-0.3,2.1-0.6,3.6-0.6
					c3.4,0,5.6,1.6,5.6,4.1c0,1.4-0.8,2.4-2.7,3.3c-1.1,0.6-1.8,0.9-1.8,1.5c0,0.5,0.6,1,1.8,1c1,0,1.8-0.2,2.4-0.5l0.3-0.1
					L-140.7,14.9"/>
			</g>
			<g id="g20_1_" transform="translate(247.634,91.616)">
				<path id="path22_1_" class="st0" d="M-159.7,49.4c0.3,0.7,1.3,3.4,1.3,3.4c0,0,0.3,0.7,0.4,1.2l0.2-1c0,0,0.6-2.9,0.7-3.5
					C-157.5,49.4-159.1,49.4-159.7,49.4z M-155.8,57.2h-2.5c-0.8,0-1.3-0.2-1.7-1l-4.8-11.1h3.4c0,0,0.5,1.5,0.7,1.8
					c0.4,0,3.6,0,4.1,0c0.1-0.4,0.4-1.8,0.4-1.8h3L-155.8,57.2"/>
			</g>
			<g id="g24_1_" transform="translate(128.78,135.265)">
				<path id="path26_1_" class="st0" d="M-62.6,13.5l-3.1-8.3L-66.1,7c-0.6,1.9-2.4,4-4.4,5.1l2.9-10.6l3.4,0l5,12.1H-62.6"/>
			</g>
			<g id="g28_1_" transform="translate(95.781,135.311)">
				<path id="path30_1_" class="st1" d="M-35.7,13.5h-5.2l0-0.3c4-1,6.7-3.4,7.8-6.3l-1.1,5.6C-34.4,13.3-35,13.5-35.7,13.5"/>
			</g>
			<g id="g32_1_" transform="translate(288.329,72.034)">
				<path id="path34_1_" class="st0" d="M-192.9,65.4h0.2c0.1,0,0.1,0.1,0.1,0.1c0,0.1-0.1,0.1-0.1,0.1h-0.1V65.4z M-193.1,65.8h0.3
					c0.1,0,0.2,0,0.2-0.2c0,0,0-0.1-0.1-0.2v0c0.1,0,0.1-0.1,0.1-0.2c0-0.1,0-0.1,0-0.2h-0.1c0,0,0,0,0,0.2c0,0.1,0,0.1-0.2,0.1
					h-0.1v-0.3h-0.1V65.8z M-192.8,64.8c0.3,0,0.6,0.3,0.6,0.6c0,0.3-0.3,0.6-0.6,0.6c-0.3,0-0.6-0.3-0.6-0.6
					C-193.4,65.1-193.1,64.8-192.8,64.8z M-192.8,66.1c0.4,0,0.7-0.3,0.7-0.7c0-0.4-0.3-0.7-0.7-0.7c-0.4,0-0.7,0.3-0.7,0.7
					C-193.5,65.8-193.2,66.1-192.8,66.1"/>
			</g>
		</g>
	</g>
</g>
</svg>
