<?xml version="1.0" encoding="UTF-8" standalone="no"?>
<svg width="34px" height="11px" viewBox="0 0 34 11" version="1.1" xmlns="http://www.w3.org/2000/svg" xmlns:xlink="http://www.w3.org/1999/xlink" xmlns:sketch="http://www.bohemiancoding.com/sketch/ns">
    <!-- Generator: Sketch 3.4.4 (17249) - http://www.bohemiancoding.com/sketch -->
    <title>visa-small</title>
    <desc>Created with Sketch.</desc>
    <defs></defs>
    <g id="Page-1" stroke="none" stroke-width="1" fill="none" fill-rule="evenodd" sketch:type="MSPage">
        <g id="visa-small" sketch:type="MSLayerGroup" transform="translate(-1.000000, -2.000000)">
            <g id="g10_16_" transform="translate(17.808750, 6.541700) scale(1, -1) translate(-17.808750, -6.541700) translate(0.308750, 0.541700)" sketch:type="MSShapeGroup">
                <g id="g4163_16_" transform="translate(0.034095, 0.342941)">
                    <path d="M11.9301389,0.603401734 L13.5263577,9.62203767 L16.0803077,9.62203767 L14.4840889,0.603401734 L11.7705171,0.603401734" id="path14_16_" fill="#2C3B92"></path>
                    <path d="M23.8259592,9.74255219 C23.3470935,9.90217406 22.5489842,10.1416069 21.511442,10.1416069 C18.957492,10.1416069 17.2016514,8.86463187 17.2016514,6.94916937 C17.2016514,5.59238344 18.4786264,4.79427406 19.4363576,4.31540844 C20.3940889,3.83654281 20.7931435,3.51729906 20.7931435,3.11824437 C20.7931435,2.47975687 19.9950342,2.16051312 19.2767357,2.16051312 C18.2391935,2.16051312 17.680517,2.320135 16.8824076,2.63937875 L16.5631639,2.79900062 L16.2439201,0.644105312 C16.8025967,0.4046725 17.9199498,0.165239687 19.1171139,0.165239687 C21.8306857,0.165239687 23.5865264,1.44221469 23.5865264,3.43748812 C23.5865264,4.55484125 22.9480389,5.35295062 21.431631,6.07124906 C20.5537107,6.55011469 19.9950342,6.7895475 19.9950342,7.26841312 C19.9950342,7.66746781 20.4738998,8.0665225 21.431631,8.0665225 C22.2297404,8.0665225 22.8682279,7.90690062 23.3470935,7.66746781 L23.5865264,7.58765687 L23.8259592,9.74255219" id="path18_16_" fill="#2C3B92"></path>
                    <path d="M27.1628545,3.64180412 C27.4022873,4.67934631 28.2003967,6.355376 28.2003967,6.355376 C28.2003967,6.355376 28.4398295,6.91405256 28.5196404,7.31310725 L28.6792623,6.43518694 C28.6792623,6.43518694 29.1581279,4.59953537 29.2379388,3.64180412 L27.1628545,3.64180412 L27.1628545,3.64180412 Z M30.8341576,9.62762444 L28.3600185,9.62762444 C27.721531,9.62762444 27.3224763,9.78724631 27.0032326,9.14875881 L23.1723076,0.6089885 L25.8858795,0.6089885 C25.8858795,0.6089885 26.2849342,1.64653069 26.444556,1.8859635 C26.7637998,1.8859635 29.3177498,1.96577444 29.7168045,1.96577444 C29.7966154,1.64653069 30.0360482,0.6089885 30.0360482,0.6089885 L32.4303763,0.6089885 L30.5947248,9.94686819 L30.8341576,9.62762444 Z" id="path22_16_" fill="#2C3B92"></path>
                    <path d="M9.80078313,9.58692086 L7.32664406,3.20204586 L7.00740031,4.5588318 C6.52853469,6.07523961 5.09193781,7.83108023 3.49571906,8.62918961 L5.81023625,0.169230234 L8.52380813,0.00960835937 L12.514355,9.50710992 L9.80078313,9.50710992" id="path26_16_" fill="#2C3B92"></path>
                    <path d="M4.85330311,9.62363389 L0.862756234,9.62363389 L0.862756234,9.62363389 C4.05519373,8.82552452 6.21008905,6.98987295 7.08800936,4.67535577 L6.21008905,8.98514639 C6.05046717,9.62363389 5.57160155,9.70344483 5.01292498,9.70344483" id="path30_16_" fill="#F6961E"></path>
                    <path d="M33.1446842,0.862787281 L33.3043061,0.862787281 C33.384117,0.862787281 33.384117,0.942598219 33.384117,0.942598219 C33.384117,1.02240916 33.3043061,1.02240916 33.3043061,1.02240916 L33.2244952,1.02240916 L33.2244952,0.862787281 L33.1446842,0.862787281 Z M33.0648733,1.10222009 L33.3043061,1.10222009 C33.384117,1.10222009 33.463928,1.10222009 33.463928,0.942598219 C33.463928,0.942598219 33.463928,0.862787281 33.384117,0.782976344 L33.384117,0.782976344 C33.463928,0.782976344 33.463928,0.703165406 33.463928,0.623354469 L33.463928,0.463732594 L33.384117,0.463732594 C33.384117,0.463732594 33.384117,0.463732594 33.384117,0.623354469 C33.384117,0.703165406 33.384117,0.703165406 33.2244952,0.703165406 L33.1446842,0.703165406 L33.1446842,0.623354469 L33.0648733,0.623354469 L33.0648733,1.10222009 L33.0648733,1.10222009 Z M33.2244952,0.383921656 C33.463928,0.383921656 33.7033608,0.623354469 33.7033608,0.862787281 C33.7033608,1.10222009 33.463928,1.34165291 33.2244952,1.34165291 C32.9850624,1.34165291 32.7456295,1.10222009 32.7456295,0.862787281 C32.8254405,0.623354469 32.9850624,0.383921656 33.2244952,0.383921656 L33.2244952,0.383921656 Z M33.2244952,1.42146384 C33.5437389,1.42146384 33.7831717,1.18203103 33.7831717,0.862787281 C33.7831717,0.543543531 33.5437389,0.304110719 33.2244952,0.304110719 C32.9052514,0.304110719 32.6658186,0.543543531 32.6658186,0.862787281 C32.6658186,1.18203103 32.9052514,1.42146384 33.2244952,1.42146384 L33.2244952,1.42146384 Z" id="path34_16_" fill="#2C3B92"></path>
                </g>
            </g>
        </g>
    </g>
</svg>