<?xml version="1.0" encoding="utf-8"?>
<!-- Generator: Adobe Illustrator 19.0.0, SVG Export Plug-In . SVG Version: 6.00 Build 0)  -->
<svg version="1.1" id="Слой_1" xmlns="http://www.w3.org/2000/svg" xmlns:xlink="http://www.w3.org/1999/xlink" x="0px" y="0px"
	 viewBox="0 0 50.2 50.2" style="enable-background:new 0 0 50.2 50.2;" xml:space="preserve">
<style type="text/css">
	.st0{fill:#366497;}
	.st1{fill:#FFFFFF;}
</style>
<g>
	<g id="Layer_x0020_1_2_">
		<g id="_680639056_2_">
			<path class="st0" d="M8.3,0.1h33.6c4.5,0,8.2,3.7,8.2,8.2v33.6c0,4.5-3.7,8.2-8.2,8.2H8.3c-4.5,0-8.2-3.7-8.2-8.2V8.3
				C0.1,3.8,3.8,0.1,8.3,0.1z"/>
			<path class="st1" d="M34.2,29.5c0,1.1-0.2,2.1-0.6,3c-0.4,0.9-1,1.6-1.7,2.1c-0.9,0.7-1.8,1.2-2.8,1.4c-1,0.3-2.3,0.4-3.9,0.4H16
				V13.7h8c1.7,0,2.9,0.1,3.8,0.2c0.9,0.1,1.7,0.4,2.4,0.8c0.8,0.4,1.4,1,1.8,1.8c0.4,0.7,0.6,1.6,0.6,2.5c0,1.1-0.3,2.1-0.8,3
				c-0.5,0.9-1.3,1.5-2.3,1.9V24c1.4,0.3,2.5,0.9,3.4,1.8C33.8,26.7,34.2,28,34.2,29.5L34.2,29.5z M26.9,20.2c0-0.4-0.1-0.7-0.3-1.1
				c-0.2-0.4-0.5-0.7-0.9-0.8c-0.4-0.2-0.8-0.3-1.3-0.3c-0.5,0-1.3,0-2.3,0h-0.4v4.8h0.7c1,0,1.7,0,2.1,0c0.4,0,0.8-0.1,1.2-0.3
				c0.5-0.2,0.8-0.5,0.9-0.9C26.8,21.1,26.9,20.7,26.9,20.2L26.9,20.2z M28.4,29.4c0-0.7-0.1-1.2-0.4-1.7c-0.3-0.4-0.7-0.7-1.3-0.9
				c-0.3-0.1-0.8-0.2-1.4-0.2s-1.4,0-2.4,0h-1v5.7H22c1.5,0,2.5,0,3.1,0c0.6,0,1.2-0.2,1.7-0.4c0.5-0.2,0.9-0.5,1.1-1
				C28.2,30.5,28.4,30,28.4,29.4z"/>
		</g>
	</g>
</g>
</svg>
