<?xml version="1.0" encoding="utf-8"?>
<!-- Generator: Adobe Illustrator 19.0.0, SVG Export Plug-In . SVG Version: 6.00 Build 0)  -->
<svg version="1.1" id="Слой_1" xmlns="http://www.w3.org/2000/svg" xmlns:xlink="http://www.w3.org/1999/xlink" x="0px" y="0px"
	 viewBox="0 0 60.2 60.1" style="enable-background:new 0 0 60.2 60.1;" xml:space="preserve">
<style type="text/css">
	.st0{opacity:0.1;}
	.st1{fill:#607D8B;}
</style>
<g id="XMLID_69_" class="st0">
	<path id="XMLID_80_" class="st1" d="M60.1,52.1c0,4.4-3.6,8-8,8h-44c-4.4,0-8-3.6-8-8v-44c0-4.4,3.6-8,8-8h44c4.4,0,8,3.6,8,8V52.1
		z"/>
</g>
<g id="XMLID_19_">
	<g id="XMLID_55_">
		<path id="XMLID_104_" class="st1" d="M19,39.1V21.9c0-1.2,0.5-2.4,1.4-3.4c0.9-1,2.2-1.9,3.9-2.5c1.6-0.6,3.5-1,5.5-1h0h0.5h0.9
			c2,0.1,3.8,0.5,5.4,1.1c1.6,0.6,2.9,1.5,3.8,2.5c0.9,1,1.4,2.1,1.4,3.4v17.2c0,1-0.3,1.9-0.9,2.8c-0.6,0.9-1.5,1.6-2.6,2.3
			c-2.1,1.2-4.8,1.9-7.9,1.9h-0.1c-3,0-5.6-0.6-7.8-1.9c-1.1-0.6-2-1.4-2.6-2.3C19.3,41,19,40.1,19,39.1z M20.7,39.1
			c0,0.6,0.2,1.3,0.7,1.9c0.5,0.6,1.1,1.2,2,1.7c1.9,1.1,4.2,1.7,6.9,1.7h0c2.7,0,5.1-0.6,7-1.7c1.8-1,2.7-2.2,2.7-3.6V21.9
			c0-0.9-0.4-1.7-1.2-2.5c-0.8-0.8-1.9-1.4-3.2-1.9c-1.4-0.5-2.9-0.8-4.5-0.8h-0.8h-0.5c-1.7,0.1-3.2,0.3-4.6,0.8
			c-1.4,0.5-2.5,1.1-3.3,1.9c-0.8,0.8-1.2,1.6-1.2,2.5V39.1z M22,35.5V23c0-1,0.3-1.8,1-2.5c0.7-0.7,1.5-1.1,2.5-1.1h9.6
			c1,0,1.8,0.4,2.5,1.1c0.7,0.7,1,1.5,1,2.5v12.5c0,1-0.3,1.8-1,2.6c-0.7,0.7-1.5,1.1-2.5,1.1h-9.6c-1,0-1.8-0.4-2.5-1.1
			C22.3,37.3,22,36.5,22,35.5z M23.7,35.5c0,0.5,0.2,1,0.6,1.4c0.4,0.4,0.8,0.6,1.3,0.6h9.6c0.5,0,0.9-0.2,1.3-0.6
			c0.4-0.4,0.5-0.8,0.5-1.4V23c0-0.5-0.2-1-0.5-1.3c-0.4-0.4-0.8-0.6-1.3-0.6h-9.6c-0.5,0-1,0.2-1.3,0.6c-0.4,0.4-0.6,0.8-0.6,1.3
			V35.5z M29.4,42.6c-0.3-0.3-0.4-0.6-0.4-1s0.1-0.8,0.4-1c0.3-0.3,0.6-0.4,0.9-0.4c0.4,0,0.7,0.1,0.9,0.4c0.3,0.3,0.4,0.6,0.4,1
			s-0.1,0.7-0.4,1c-0.3,0.3-0.6,0.4-0.9,0.4C30,43.1,29.6,42.9,29.4,42.6z"/>
	</g>
</g>
</svg>
