<?xml version="1.0" encoding="utf-8"?>
<!-- Generator: Adobe Illustrator 19.0.0, SVG Export Plug-In . SVG Version: 6.00 Build 0)  -->
<svg version="1.1" id="Слой_1" xmlns="http://www.w3.org/2000/svg" xmlns:xlink="http://www.w3.org/1999/xlink" x="0px" y="0px"
	 viewBox="0 0 60.2 60.1" style="enable-background:new 0 0 60.2 60.1;" xml:space="preserve">
<style type="text/css">
	.st0{fill:#32B7E8;}
	.st1{fill:#FFFFFF;}
</style>
<g id="XMLID_58_">
	<path id="XMLID_76_" class="st0" d="M60.1,52.1c0,4.4-3.6,8-8,8h-44c-4.4,0-8-3.6-8-8v-44c0-4.4,3.6-8,8-8h44c4.4,0,8,3.6,8,8V52.1
		z"/>
</g>
<g id="XMLID_55_">
	<path id="XMLID_14_" class="st1" d="M36.5,25.4c1.6-1.7,2.6-4,2.6-6.5V17c0-1.1-0.9-2-2-2c-1.1,0-2,0.9-2,2v1.8
		c0,1.4-0.5,2.7-1.4,3.7c-0.9,0.9-2.1,1.5-3.5,1.5c-1.4,0-2.6-0.6-3.5-1.5c-0.9-0.9-1.5-2.2-1.5-3.7V17c0-1.1-0.9-2-2-2
		c-1.1,0-2,0.9-2,2v1.8c0,2.5,1,4.9,2.6,6.5c1.2,1.2,2.4,2.1,4.4,2.5v4.3c-2,0.4-3.2,1.3-4.4,2.5c-1.6,1.7-2.6,4-2.6,6.5V43
		c0,1.1,0.9,2,2,2c1.1,0,2-0.9,2-2v-1.8c0-1.4,0.6-2.7,1.5-3.7c0.9-0.9,2.2-1.5,3.6-1.5c1.4,0,2.6,0.6,3.5,1.5
		c0.9,0.9,1.4,2.2,1.4,3.7V43c0,1.1,0.9,2,2,2c1.1,0,2-0.9,2-2v-1.8c0-2.5-1-4.9-2.6-6.5c-1.2-1.2-2.4-2.1-4.4-2.5v-4.3
		C34.1,27.5,35.3,26.6,36.5,25.4"/>
	<path id="XMLID_56_" class="st1" d="M30.1,44.6c1.9,0,3.5-1.6,3.5-3.5c0-1.9-1.6-3.5-3.5-3.5c-1.9,0-3.5,1.6-3.5,3.5
		C26.6,43,28.2,44.6,30.1,44.6"/>
</g>
</svg>
